<?xml version="1.0"?>
<svg xmlns="http://www.w3.org/2000/svg" xmlns:xlink="http://www.w3.org/1999/xlink" width="173.767487" height="251.960571">
	<defs>
		<marker id="CustomMarker-01" markerUnits="strokeWidth" markerWidth="15.000001" markerHeight="9" viewBox="-15 -4.5 15 9" orient="auto-start-reverse">
			<path d="M 0 -0 L -10 -3, -8 -0.5, -8 0.5, -10 3 Z" fill="#000000" stroke="#000000" stroke-linejoin="round" />
		</marker>
		<marker id="CustomMarker-02" markerUnits="strokeWidth" markerWidth="15.000001" markerHeight="9" viewBox="-15 -4.5 15 9" orient="auto-start-reverse">
			<path d="M 0 -0 L -10 -3, -8 -0.5, -8 0.5, -10 3 Z" fill="#000000" stroke="#000000" stroke-linejoin="round" />
		</marker>
	</defs>
	<rect x="-78.9493408" y="-48.5842285" width="157.898682" height="97.168457" stroke="none" fill="#F42821" fill-opacity="0.392156839" transform="matrix(0.625 0 -0 0.625 115.924 213.095)" />
	<path d="M -78.9493 -48.5842 L 78.9493 -48.5842, 78.9493 48.5842, -78.9493 48.5842 Z" fill="none" stroke="#000000" stroke-width="1.60000002" stroke-linecap="round" stroke-linejoin="round" transform="matrix(0.625 0 -0 0.625 115.924 213.095)" />
	<rect x="-78.9493408" y="-48.5842285" width="157.898682" height="97.168457" stroke="none" fill="#FC7072" fill-opacity="0.392156839" transform="matrix(0.625 0 -0 0.625 115.924 38.8651)" />
	<path d="M -78.9493 -48.5842 L 78.9493 -48.5842, 78.9493 48.5842, -78.9493 48.5842 Z" fill="none" stroke="#000000" stroke-width="1.60000002" stroke-linecap="round" stroke-linejoin="round" transform="matrix(0.625 0 -0 0.625 115.924 38.8651)" />
	<g transform="matrix(1 0 -0 1 7.99997 205.09)">
		<svg width="129.0569" height="47.945446">
			<defs />
			<path d="M 0.193935 2.0066 L 11.1662 2.0066, 12.055 1.14293, 13.3002 2.35207, 6.83701 2.35207, 6.83701 5.34613 C 9.21211 6.04067, 10.5868 6.58766, 10.961 6.9907, 11.3353 7.39375, 11.5224 7.75002, 11.5224 8.0523, 11.5224 8.17106, 11.4756 8.33659, 11.3749 8.54531, 11.2777 8.75763, 11.1878 8.86199, 11.1086 8.85839, 10.9502 8.86199, 10.6732 8.61369, 10.2773 8.10988, 9.72311 7.38296, 8.57875 6.55887, 6.83701 5.63402 L 6.83701 11.507 C 6.83701 12.3167, 6.8586 12.986, 6.89819 13.5222 L 5.88697 13.9253 C 5.93016 12.5074, 5.94815 11.5286, 5.94815 10.9888 L 5.94815 2.35207, 2.15159 2.35207 C 1.64059 2.35567, 1.16557 2.41324, 0.730132 2.5248 Z" stroke="none" fill="#000000" />
			<path d="M 15.7994 13.9253 C 15.839 12.7737, 15.857 9.93798, 15.857 5.40371, 15.0293 6.7496, 14.2772 7.76801, 13.6043 8.45535 L 13.4243 8.34019 C 14.1801 7.19223, 14.8602 5.9471, 15.472 4.60121, 16.0837 3.25892, 16.548 1.89504, 16.8646 0.509567 L 18.2285 1.2005, 17.6959 1.4884 C 17.0626 2.87387, 16.6091 3.87069, 16.332 4.48246 L 17.1021 5.00066, 16.6271 5.34613 C 16.6271 9.95598, 16.6487 12.6586, 16.6883 13.4646 Z M 20.6612 0.73988 L 20.8375 0.624723 C 21.9855 1.474, 22.5685 2.08937, 22.5901 2.47082, 22.6116 2.85588, 22.5217 3.12577, 22.3238 3.27692, 22.1258 3.43166, 22.0071 3.50723, 21.9675 3.50363, 21.7696 3.50723, 21.6508 3.29491, 21.6112 2.87027, 21.4925 2.29809, 21.1758 1.58916, 20.6612 0.73988 Z M 17.6383 3.96425 L 24.814 3.96425, 25.6417 3.15816, 26.8292 4.30972, 19.5348 4.30972 C 19.0598 4.31332, 18.6064 4.3709, 18.1709 4.48246 Z M 19.0022 5.63402 L 19.1786 5.51886 C 20.1682 7.05908, 20.7404 8.08469, 20.8987 8.60289, 21.057 9.12109, 21.1362 9.51334, 21.1362 9.77964, 21.1362 10.1683, 21.0282 10.4742, 20.8123 10.7045, 20.5964 10.9348, 20.4453 11.05, 20.3661 11.0464, 20.2473 11.05, 20.1862 10.9168, 20.1862 10.6433, 20.1502 10.1863, 20.0494 9.53494, 19.8911 8.68926, 19.7327 7.84718, 19.4377 6.82877, 19.0022 5.63402 Z M 24.0403 4.8855 L 25.4654 5.63402 C 25.1127 5.82835, 24.7564 6.50129, 24.3966 7.64925, 24.0439 8.80441, 23.4897 10.4562, 22.7376 12.601 L 25.4042 12.601, 26.2355 11.7949, 27.423 12.9464, 19.2361 12.9464 C 18.7251 12.9464, 18.2501 13.004, 17.8147 13.1192 L 17.2821 12.601, 22.3202 12.601 C 22.7952 11.032, 23.191 9.50615, 23.5077 8.02711, 23.8244 6.55167, 24.0043 5.50447, 24.0403 4.8855 Z" stroke="none" fill="#000000" />
			<path d="M 34.6005 2.35207 L 34.6005 7.36136 C 34.6005 10.2043, 33.4957 12.3743, 31.2789 13.8677 L 31.1026 13.695 C 32.8803 12.126, 33.7692 10.0136, 33.7692 7.36136 L 33.7692 4.59761 C 33.7692 3.56481, 33.7512 2.51041, 33.7116 1.43082 L 34.6005 2.0066, 37.3282 2.0066, 37.8608 1.43082, 38.8109 2.23691, 38.2171 2.58238, 38.2171 11.9676 C 38.2171 12.3563, 38.415 12.5434, 38.8109 12.5434 L 39.5234 12.5434 C 39.7213 12.5434, 39.8581 12.3958, 39.9372 12.0864, 40.0164 11.7805, 40.0776 11.0895, 40.1172 10.01 L 40.4122 10.01 C 40.4122 10.8592, 40.4518 11.4242, 40.531 11.7121, 40.6102 12, 40.8081 12.2195, 41.1248 12.3707, 40.8873 12.8313, 40.6426 13.0904, 40.3835 13.148, 40.128 13.2055, 39.8797 13.2343, 39.6421 13.2343 L 38.397 13.2343 C 37.7241 13.2343, 37.3858 12.9284, 37.3858 12.3131 L 37.3858 2.35207 Z M 30.6276 6.32496 C 30.6276 10.3986, 30.6492 12.8529, 30.6851 13.695 L 29.7387 14.098 C 29.7783 12.4138, 29.7963 10.0711, 29.7963 7.07347, 29.2061 8.68926, 28.3352 10.1107, 27.1873 11.3343 L 27.0685 11.1615 C 28.2561 9.3622, 29.1449 7.13465, 29.7387 4.48246 L 28.3136 4.48246, 27.781 4.59761, 27.306 4.13699, 29.7963 4.13699 C 29.7963 2.7983, 29.7783 1.54957, 29.7387 0.394411 L 31.0414 0.912614, 30.6276 1.31566, 30.6276 4.13699, 31.4553 4.13699, 32.1102 3.50363, 33.1178 4.48246, 30.6276 4.48246, 30.6276 6.03707 C 31.5776 6.38613, 32.2002 6.65603, 32.4953 6.84676, 32.7903 7.04109, 32.9379 7.28939, 32.9379 7.59168, 32.9379 7.786, 32.9091 7.98033, 32.8515 8.17106, 32.7939 8.36538, 32.7436 8.45895, 32.704 8.45535, 32.5852 8.45895, 32.4053 8.26822, 32.1678 7.87957, 31.8151 7.34697, 31.3005 6.82877, 30.6276 6.32496 Z" stroke="none" fill="#000000" />
			<rect />
		</svg>
	</g>
	<g transform="matrix(1 0 -0 1 7.99997 30.8598)">
		<svg width="132.117233" height="47.945446">
			<defs />
			<path d="M 5.59188 0.624723 L 7.19327 1.31566, 6.54192 1.77629, 6.54192 5.63402, 10.0398 5.63402, 10.9287 4.77035, 12.1738 5.97949, 6.54192 5.97949, 6.54192 12.4858, 11.4037 12.4858, 12.3537 11.5646, 13.6564 12.8313, 1.79533 12.8313 C 1.28432 12.8313, 0.809302 12.8889, 0.373867 13.004 L -0.162329 12.4858, 5.64946 12.4858, 5.64946 2.81269 C 5.64946 2.12535, 5.63147 1.39483, 5.59188 0.624723 Z" stroke="none" fill="#000000" />
			<path d="M 15.7994 13.9253 C 15.839 12.7737, 15.857 9.93798, 15.857 5.40371, 15.0293 6.7496, 14.2772 7.76801, 13.6043 8.45535 L 13.4243 8.34019 C 14.1801 7.19223, 14.8602 5.9471, 15.472 4.60121, 16.0837 3.25892, 16.548 1.89504, 16.8646 0.509567 L 18.2285 1.2005, 17.6959 1.4884 C 17.0626 2.87387, 16.6091 3.87069, 16.332 4.48246 L 17.1021 5.00066, 16.6271 5.34613 C 16.6271 9.95598, 16.6487 12.6586, 16.6883 13.4646 Z M 20.6612 0.73988 L 20.8375 0.624723 C 21.9855 1.474, 22.5685 2.08937, 22.5901 2.47082, 22.6116 2.85588, 22.5217 3.12577, 22.3238 3.27692, 22.1258 3.43166, 22.0071 3.50723, 21.9675 3.50363, 21.7696 3.50723, 21.6508 3.29491, 21.6112 2.87027, 21.4925 2.29809, 21.1758 1.58916, 20.6612 0.73988 Z M 17.6383 3.96425 L 24.814 3.96425, 25.6417 3.15816, 26.8292 4.30972, 19.5348 4.30972 C 19.0598 4.31332, 18.6064 4.3709, 18.1709 4.48246 Z M 19.0022 5.63402 L 19.1786 5.51886 C 20.1682 7.05908, 20.7404 8.08469, 20.8987 8.60289, 21.057 9.12109, 21.1362 9.51334, 21.1362 9.77964, 21.1362 10.1683, 21.0282 10.4742, 20.8123 10.7045, 20.5964 10.9348, 20.4453 11.05, 20.3661 11.0464, 20.2473 11.05, 20.1862 10.9168, 20.1862 10.6433, 20.1502 10.1863, 20.0494 9.53494, 19.8911 8.68926, 19.7327 7.84718, 19.4377 6.82877, 19.0022 5.63402 Z M 24.0403 4.8855 L 25.4654 5.63402 C 25.1127 5.82835, 24.7564 6.50129, 24.3966 7.64925, 24.0439 8.80441, 23.4897 10.4562, 22.7376 12.601 L 25.4042 12.601, 26.2355 11.7949, 27.423 12.9464, 19.2361 12.9464 C 18.7251 12.9464, 18.2501 13.004, 17.8147 13.1192 L 17.2821 12.601, 22.3202 12.601 C 22.7952 11.032, 23.191 9.50615, 23.5077 8.02711, 23.8244 6.55167, 24.0043 5.50447, 24.0403 4.8855 Z" stroke="none" fill="#000000" />
			<path d="M 34.6005 2.35207 L 34.6005 7.36136 C 34.6005 10.2043, 33.4957 12.3743, 31.2789 13.8677 L 31.1026 13.695 C 32.8803 12.126, 33.7692 10.0136, 33.7692 7.36136 L 33.7692 4.59761 C 33.7692 3.56481, 33.7512 2.51041, 33.7116 1.43082 L 34.6005 2.0066, 37.3282 2.0066, 37.8608 1.43082, 38.8109 2.23691, 38.2171 2.58238, 38.2171 11.9676 C 38.2171 12.3563, 38.415 12.5434, 38.8109 12.5434 L 39.5234 12.5434 C 39.7213 12.5434, 39.8581 12.3958, 39.9372 12.0864, 40.0164 11.7805, 40.0776 11.0895, 40.1172 10.01 L 40.4122 10.01 C 40.4122 10.8592, 40.4518 11.4242, 40.531 11.7121, 40.6102 12, 40.8081 12.2195, 41.1248 12.3707, 40.8873 12.8313, 40.6426 13.0904, 40.3835 13.148, 40.128 13.2055, 39.8797 13.2343, 39.6421 13.2343 L 38.397 13.2343 C 37.7241 13.2343, 37.3858 12.9284, 37.3858 12.3131 L 37.3858 2.35207 Z M 30.6276 6.32496 C 30.6276 10.3986, 30.6492 12.8529, 30.6851 13.695 L 29.7387 14.098 C 29.7783 12.4138, 29.7963 10.0711, 29.7963 7.07347, 29.2061 8.68926, 28.3352 10.1107, 27.1873 11.3343 L 27.0685 11.1615 C 28.2561 9.3622, 29.1449 7.13465, 29.7387 4.48246 L 28.3136 4.48246, 27.781 4.59761, 27.306 4.13699, 29.7963 4.13699 C 29.7963 2.7983, 29.7783 1.54957, 29.7387 0.394411 L 31.0414 0.912614, 30.6276 1.31566, 30.6276 4.13699, 31.4553 4.13699, 32.1102 3.50363, 33.1178 4.48246, 30.6276 4.48246, 30.6276 6.03707 C 31.5776 6.38613, 32.2002 6.65603, 32.4953 6.84676, 32.7903 7.04109, 32.9379 7.28939, 32.9379 7.59168, 32.9379 7.786, 32.9091 7.98033, 32.8515 8.17106, 32.7939 8.36538, 32.7436 8.45895, 32.704 8.45535, 32.5852 8.45895, 32.4053 8.26822, 32.1678 7.87957, 31.8151 7.34697, 31.3005 6.82877, 30.6276 6.32496 Z" stroke="none" fill="#000000" />
			<rect />
		</svg>
	</g>
	<path d="M 0 -90.8 L 0 90.8" fill="none" stroke="#000000" stroke-width="1.60000002" stroke-linecap="round" stroke-linejoin="round" marker-end="url(#CustomMarker-01)" transform="matrix(0.625 0 0 0.625 91.5808 125.98)" />
	<path d="M 0 90.8 L 0 -90.8" fill="none" stroke="#000000" stroke-width="1.60000002" stroke-linecap="round" stroke-linejoin="round" marker-end="url(#CustomMarker-02)" transform="matrix(0.625 0 0 0.625 137.081 125.98)" />
	<g transform="matrix(1 0 -0 1 88.6473 30.8598)">
		<svg width="171.027283" height="47.945446">
			<defs />
			<path d="M 7.9058 6.78558 C 7.74746 7.44053, 7.58912 8.11348, 7.43078 8.80082 L 10.8099 8.80082, 11.4037 8.16746, 12.53 9.20386 C 12.0982 9.20746, 11.6016 9.47736, 11.0474 10.0136, 10.4932 10.5533, 9.88145 11.1831, 9.20851 11.91, 10.119 12.2591, 10.6839 12.5542, 10.8999 12.8025, 11.1194 13.0544, 11.2273 13.2739, 11.2273 13.4646, 11.2273 13.5438, 11.1986 13.6662, 11.1374 13.8389, 11.0798 14.0116, 10.9898 14.098, 10.8711 14.098, 10.7523 14.098, 10.612 14.0044, 10.4536 13.8101, 10.101 13.4646, 9.54678 13.0544, 8.79467 12.5722, 8.04615 12.0972, 7.17528 11.6257, 6.18566 11.1615 L 6.24324 10.9312 C 7.50995 11.3199, 8.40242 11.6077, 8.91342 11.7949 L 10.8099 9.14629, 7.43078 9.14629, 6.95577 9.66449, 6.12448 8.91597, 6.5995 8.5705 C 6.75784 8.11348, 6.91618 7.5197, 7.07452 6.78558 L 5.82939 6.78558 C 5.31839 6.78918, 4.84337 6.84676, 4.40434 6.95832 L 3.87174 6.44011, 7.1321 6.44011 C 7.29044 5.6772, 7.44878 4.9071, 7.60712 4.13699 L 6.48075 4.13699 C 5.96974 4.14059, 5.49472 4.19816, 5.05929 4.30972 L 4.52309 3.79152, 7.66829 3.79152 C 7.9058 2.68314, 8.06414 1.60715, 8.14331 0.567145 L 9.5072 1.2005, 8.971 1.60355 C 8.81266 2.29809, 8.65432 3.02861, 8.49598 3.79152 L 11.1662 3.79152, 11.8175 3.15816, 12.8287 4.13699, 8.4384 4.13699 C 8.28006 4.83152, 8.12172 5.59803, 7.96338 6.44011 L 11.7599 6.44011, 12.4725 5.74918, 13.5377 6.78558 Z M 3.33914 5.23097 L 3.33914 10.9312 C 3.33914 11.3954, 3.36073 12.2987, 3.39672 13.6374 L 2.3891 13.9828 C 2.43228 12.6406, 2.45028 11.6653, 2.45028 11.0464 L 2.45028 5.34613 C 1.46425 6.84676, 0.571792 7.95874, -0.219907 8.68566 L -0.399839 8.51293 C 0.276704 7.71043, 0.989233 6.61645, 1.73775 5.23457, 2.48986 3.8527, 3.10163 2.29809, 3.57665 0.567145 L 4.87935 1.37324 C 4.56267 1.53158, 4.30717 1.81947, 4.10925 2.23691, 3.87174 2.70113, 3.51547 3.41006, 3.04045 4.3673 L 3.87174 4.82793 Z" stroke="none" fill="#000000" />
			<path d="M 19.7723 6.728 L 19.7723 8.22503, 21.6112 8.22503, 21.6112 6.728 Z M 19.7723 8.5705 L 19.7723 10.1251, 21.6112 10.1251, 21.6112 8.5705 Z M 22.5577 1.60355 C 21.2945 3.71955, 19.7327 5.19499, 17.8722 6.03707 L 17.7535 5.86433 C 18.9015 5.10142, 19.8227 4.23775, 20.5136 3.27692, 21.2046 2.31968, 21.73 1.35884, 22.0862 0.394411 L 23.2702 1.08535, 22.7952 1.37324 C 23.9827 3.25892, 25.5265 4.3709, 27.423 4.71277 L 27.423 4.94308 C 26.8328 4.98627, 26.4766 5.19499, 26.3542 5.57644, 24.814 4.77395, 23.5473 3.44965, 22.5577 1.60355 Z M 19.0022 14.0404 C 19.0418 13.2739, 19.0598 11.9424, 19.0598 10.0423, 19.0598 8.14227, 19.0418 6.78918, 19.0022 5.97949 L 19.8299 6.38254, 21.4925 6.38254, 21.9063 5.86433, 22.7376 6.49769, 22.3202 6.84316, 22.3202 12.8889 C 22.3202 13.4646, 22.0251 13.8497, 21.4313 14.0404, 21.3161 13.5798, 20.9383 13.2919, 20.3049 13.1768 L 20.3049 12.9464 C 20.7008 12.986, 21.0175 13.004, 21.255 13.004, 21.4925 13.004, 21.6112 12.8529, 21.6112 12.5434 L 21.6112 10.4706, 19.7723 10.4706, 19.7723 13.6374 Z M 23.5077 11.7373 C 23.5509 11.2047, 23.5689 10.341, 23.5689 9.14988, 23.5689 7.96234, 23.5509 7.07707, 23.5077 6.49769 L 24.6341 7.07347, 24.2778 7.36136, 24.2778 11.3918 Z M 25.5229 7.64925 C 25.5229 7.23181, 25.5049 6.65603, 25.4654 5.92191 L 26.6493 6.44011, 26.2355 6.84316, 26.2355 12.7161 C 26.2787 13.3315, 25.9008 13.7525, 25.1091 13.9828, 25.0731 13.4862, 24.5585 13.1408, 23.5689 12.9464 L 23.5689 12.7161 C 24.321 12.7557, 24.8356 12.7737, 25.1091 12.7737, 25.3862 12.7737, 25.5229 12.6226, 25.5229 12.3131 Z M 16.332 6.728 C 16.332 5.73478, 16.314 4.96467, 16.2709 4.42488 L 17.5196 5.00066, 17.1021 5.40371, 17.1021 6.728, 17.4008 6.728, 17.991 6.2098, 18.8223 7.07347, 17.1021 7.07347, 17.1021 9.49175, 18.7035 9.20386, 18.7647 9.43418, 17.1021 9.8948 C 17.1021 11.7409, 17.1237 13.004, 17.1633 13.695 L 16.2709 14.0404 C 16.314 12.4318, 16.332 11.1255, 16.332 10.1251, 14.871 10.5138, 14.0793 10.8376, 13.9605 11.1039 L 13.4243 10.1251 C 14.2952 10.0136, 15.2668 9.85881, 16.332 9.66449 L 16.332 7.07347, 14.6119 7.07347, 14.1369 7.47652, 13.4855 6.55527 C 13.7626 6.4833, 14.0181 6.17741, 14.2556 5.63762, 14.4931 5.10142, 14.7702 4.3709, 15.0869 3.44605 L 14.9682 3.44605 C 14.6947 3.44965, 14.3384 3.50723, 13.8994 3.61879 L 13.3668 3.10058, 15.2057 3.10058 C 15.4432 2.18293, 15.6627 1.33725, 15.857 0.567145 L 16.9834 1.2005 C 16.7891 1.31926, 16.6307 1.4848, 16.512 1.69352, 16.3932 1.90584, 16.2133 2.37366, 15.9758 3.10058 L 17.6383 3.10058, 18.3473 2.46722, 19.2361 3.44605, 15.857 3.44605, 14.6119 6.728 Z M 20.3049 4.59761 L 23.3314 4.59761, 23.9215 4.02183, 24.814 4.94308, 21.9675 4.94308, 20.4237 4.71277, 20.7799 5.05824 Z" stroke="none" fill="#000000" />
			<path d="M 30.9875 9.03113 C 30.6708 9.53494, 30.3757 10.0136, 30.095 10.4706, 30.6132 10.5893, 31.225 10.7225, 31.9339 10.8736, 32.2938 10.4922, 32.6501 9.88041, 33.0027 9.03113 Z M 28.5548 1.25808 C 29.3069 1.72231, 29.7604 2.06777, 29.9187 2.29809, 30.077 2.5284, 30.1562 2.70113, 30.1562 2.81269, 30.1562 3.00702, 30.0878 3.20134, 29.9511 3.39207, 29.8143 3.5864, 29.7028 3.67996, 29.6236 3.67636, 29.5049 3.67996, 29.3861 3.48923, 29.2674 3.10058, 29.109 2.56798, 28.8139 1.9922, 28.3785 1.37324 Z M 33.6541 1.08535 L 34.7229 1.77629 C 34.4062 1.85546, 34.1291 2.04978, 33.8916 2.35207, 33.6181 2.66155, 33.1611 3.12217, 32.5277 3.73394 L 32.3514 3.61879 C 33.1035 2.47082, 33.5389 1.62514, 33.6541 1.08535 Z M 30.9875 0.451989 L 32.2902 1.02777, 31.8152 1.43082, 31.8152 4.07941, 33.2978 4.07941, 33.9528 3.44605, 34.9604 4.42488, 31.8152 4.42488, 31.8152 4.94308 C 32.7256 5.13741, 33.2906 5.32094, 33.5065 5.49367, 33.7261 5.66641, 33.834 5.88592, 33.834 6.15222, 33.834 6.27098, 33.816 6.41492, 33.7764 6.58766, 33.7369 6.76039, 33.6757 6.84676, 33.5965 6.84316, 33.5173 6.84676, 33.3806 6.71361, 33.1791 6.44011, 32.866 6.02267, 32.4126 5.61963, 31.8152 5.23097 L 31.8152 7.01589, 31.1063 7.47652, 31.9339 7.82199 C 31.7396 7.90116, 31.4805 8.18905, 31.1638 8.68566 L 33.0027 8.68566, 33.4166 8.16746, 34.309 8.91597, 33.7728 9.20386 C 33.377 10.0891, 33.0243 10.7045, 32.7076 11.0464, 33.341 11.2047, 33.7656 11.3666, 33.9816 11.5394, 34.2011 11.7121, 34.309 11.9352, 34.309 12.2015, 34.309 12.4714, 34.2515 12.601, 34.1291 12.601, 34.0139 12.601, 33.8736 12.529, 33.7153 12.3707, 33.2798 12.0684, 32.7868 11.7985, 32.2326 11.5646, 30.8507 12.6406, 29.2098 13.3495, 27.3097 13.695 L 27.2485 13.5222 C 29.0694 12.9464, 30.4909 12.2015, 31.5201 11.2767, 30.7284 11.0104, 29.9583 10.8196, 29.2062 10.7009, 29.3645 10.4742, 29.6812 9.91639, 30.1562 9.03113 L 29.3861 9.03113 C 28.8715 9.03473, 28.3965 9.09231, 27.961 9.20386 L 27.4284 8.68566, 30.275 8.68566 C 30.4333 8.3042, 30.5916 7.84358, 30.75 7.30379 L 31.0451 7.41894, 31.0451 5.05824 C 29.9799 6.25298, 28.7527 7.17423, 27.3673 7.82199 L 27.2485 7.64925 C 28.7132 6.65603, 29.8215 5.58004, 30.5701 4.42488 L 29.5049 4.42488 C 28.9903 4.42848, 28.5152 4.48606, 28.0798 4.59761 L 27.5472 4.07941, 31.0451 4.07941 C 31.0451 2.70113, 31.0271 1.49199, 30.9875 0.451989 Z M 35.8492 4.42488 C 36.0472 6.65603, 36.5222 8.51652, 37.2743 10.01, 37.9077 8.70725, 38.2999 6.84676, 38.4583 4.42488 Z M 36.1443 0.451989 L 37.5082 1.2005 C 37.1951 1.31926, 36.9576 1.54957, 36.7993 1.89504, 36.6409 2.24051, 36.3459 2.97103, 35.9068 4.07941 L 39.2895 4.07941, 40.0021 3.38847, 41.0673 4.42488, 39.3471 4.42488 C 39.1096 7.2678, 38.5986 9.3802, 37.8069 10.7585, 38.7174 11.8381, 39.7862 12.5074, 41.0097 12.7737 L 41.0097 13.004 C 40.2612 13.1192, 39.8653 13.3495, 39.8221 13.695, 38.7965 13.004, 37.9473 12.2195, 37.2743 11.3343, 35.9716 12.565, 34.4098 13.4646, 32.5889 14.0404 L 32.4701 13.8677 C 34.291 13.0616, 35.7341 12.0108, 36.7993 10.7009, 36.0508 8.90158, 35.6549 6.92233, 35.6117 4.77035, 35.2159 5.77077, 34.6437 6.71361, 33.8916 7.59168 L 33.7153 7.47652 C 34.6653 5.9435, 35.475 3.60439, 36.1443 0.451989 Z" stroke="none" fill="#000000" />
			<path d="M 47.6545 14.0404 C 47.6941 13.1983, 47.7121 12.3095, 47.7121 11.3666, 47.7121 10.4274, 47.6941 9.59251, 47.6545 8.85839 L 48.4822 9.31902, 50.1448 9.31902, 50.1448 7.01589, 47.3558 7.01589 C 47.0823 9.74366, 46.0351 11.9892, 44.2142 13.7525 L 44.0343 13.5798 C 44.9052 12.4714, 45.5709 11.2155, 46.0243 9.81203, 46.4778 8.41216, 46.7153 6.78198, 46.7333 4.91789, 46.7549 3.0574, 46.7441 1.72231, 46.7045 0.912614 L 47.5934 1.43082, 52.4587 1.43082, 52.9301 0.970192, 53.7614 1.71871, 53.2864 2.0066 C 53.2864 3.16176, 53.308 4.00744, 53.3476 4.54004 L 52.5163 4.8855, 52.5163 4.19457, 47.5358 4.19457 C 47.5358 4.92869, 47.4962 5.75277, 47.417 6.67043 L 50.1448 6.67043 C 50.1448 5.9435, 50.1268 5.23457, 50.0836 4.54004 L 51.3899 5.11582, 50.9149 5.46129, 50.9149 6.67043, 52.8725 6.67043, 53.5239 6.03707, 54.5315 7.01589, 50.9149 7.01589, 50.9149 9.31902, 52.4587 9.31902, 52.9301 8.80082, 53.7614 9.54933, 53.2864 9.8948 C 53.2864 11.435, 53.308 12.6226, 53.3476 13.4646 L 52.5163 13.9253, 52.5163 12.7161, 48.4822 12.7161, 48.4822 13.695 Z M 47.5358 1.77629 L 47.5358 3.8491, 52.5163 3.8491, 52.5163 1.77629 Z M 48.4822 9.66449 L 48.4822 12.3707, 52.5163 12.3707, 52.5163 9.66449 Z M 44.2142 6.90074 L 46.1719 5.80675, 46.2906 6.03707, 44.2142 7.5341, 44.2142 12.1979 C 44.1747 12.8889, 43.7392 13.3891, 42.9079 13.695, 42.9871 13.3135, 42.4941 12.9105, 41.4253 12.4858 L 41.4253 12.2555 C 42.2962 12.4138, 42.8432 12.4822, 43.0591 12.4606, 43.275 12.4426, 43.383 12.2987, 43.383 12.0252 L 43.383 7.93714 C 42.2782 8.70725, 41.706 9.20746, 41.6628 9.43418 L 40.7739 8.39777 C 41.0115 8.36178, 41.8823 7.98033, 43.383 7.24621 L 43.383 4.30972, 42.0191 4.30972, 41.3065 4.42488, 40.8315 3.96425, 43.383 3.96425 C 43.383 2.39525, 43.365 1.27967, 43.3254 0.624723 L 44.6893 1.31566, 44.2142 1.71871, 44.2142 3.96425, 44.8656 3.96425, 45.6357 3.3309, 46.5282 4.30972, 44.2142 4.30972 Z" stroke="none" fill="#000000" />
			<rect />
		</svg>
	</g>
	<g transform="matrix(1 0 -0 1 88.6473 205.09)">
		<svg width="171.027283" height="47.945446">
			<defs />
			<path d="M 1.67657 10.6721 C 2.1156 9.50615, 2.33152 7.95154, 2.33152 6.01188, 2.33152 4.07581, 2.31353 2.64356, 2.27035 1.71871 L 3.15921 2.17933 C 4.74261 2.06777, 6.38358 1.85905, 8.08214 1.54957, 9.78429 1.24369, 10.8315 0.973791, 11.2273 0.73988 L 12.1738 1.89144 C 11.6628 1.85546, 10.4176 1.93463, 8.4384 2.12175, 6.46275 2.31608, 4.70302 2.45283, 3.15921 2.5248 L 3.15921 5.34613, 10.5148 5.34613, 11.1086 4.77035, 12.1162 5.6916, 11.5224 6.09465 C 10.3781 8.17106, 9.38844 9.6285, 8.55716 10.4706, 10.0218 11.6257, 11.7599 12.3743, 13.7752 12.7161 L 13.7752 12.8889 C 13.1454 13.004, 12.692 13.2919, 12.4113 13.7525, 10.6732 12.986, 9.21211 12.0864, 8.02456 11.0464, 6.326 12.2411, 4.228 13.1408, 1.73775 13.7525 L 1.73775 13.5222 C 4.42593 12.529, 6.344 11.5106, 7.48836 10.4706, 6.22524 9.13189, 5.2752 7.5377, 4.64184 5.6916 L 3.15921 5.6916 C 3.20239 7.84358, 2.96488 9.51694, 2.45028 10.7045, 1.93567 11.8956, 1.10439 12.968, -0.0435742 13.9253 L -0.219907 13.7525 C 0.611377 12.8709, 1.24474 11.8453, 1.67657 10.6721 Z M 4.99811 5.6916 C 5.98773 7.65285, 6.97736 9.05272, 7.96338 9.8948, 9.03218 8.74684, 9.90304 7.34697, 10.5724 5.6916 Z" stroke="none" fill="#000000" />
			<path d="M 20.4237 2.46722 L 20.4237 3.90668, 22.4389 3.90668, 22.4389 2.46722 Z M 23.2126 2.46722 L 23.2126 3.90668, 25.2279 3.90668, 25.2279 2.46722 Z M 19.5924 4.94308 C 19.6356 4.33132, 19.6536 3.76633, 19.6536 3.24813, 19.6536 2.72992, 19.6356 2.20092, 19.5924 1.66113 L 20.4237 2.12175, 22.4389 2.12175 C 22.4389 1.85546, 22.4209 1.30127, 22.3813 0.451989 L 23.684 1.02777, 23.2126 1.37324, 23.2126 2.12175, 25.1667 2.12175, 25.5841 1.60355, 26.4154 2.29449, 25.998 2.63996 C 25.998 3.29491, 26.0196 3.91027, 26.0591 4.48246 L 25.2279 4.71277, 25.2279 4.25214, 23.2126 4.25214, 23.2126 5.57644, 25.7605 5.57644, 26.5342 4.8855, 27.423 5.92191, 20.0098 5.92191 C 19.6932 5.92551, 19.3189 5.98309, 18.8835 6.09465 L 18.3473 5.57644, 22.4389 5.57644, 22.4389 4.25214, 20.4237 4.25214, 20.4237 4.59761 Z M 25.8216 7.5341 C 25.8216 8.91957, 25.8432 9.97397, 25.8792 10.7009 L 25.0515 11.2191, 25.0515 7.36136, 20.4849 7.36136, 20.4849 10.8161, 19.6536 11.2191 C 19.6932 10.4166, 19.7111 9.60331, 19.7111 8.77563, 19.7111 7.95154, 19.6932 7.21022, 19.6536 6.55527 L 20.4849 7.01589, 24.9903 7.01589, 25.4042 6.49769, 26.2966 7.24621 Z M 22.2014 7.93714 L 23.5689 8.5705, 23.0327 8.97355 C 22.7592 10.7801, 22.2554 11.9892, 21.5213 12.601, 20.7907 13.2163, 19.4952 13.677, 17.6383 13.9828 L 17.5772 13.8101 C 19.0418 13.3891, 20.0422 12.9752, 20.5748 12.5722, 21.1074 12.1727, 21.5033 11.6185, 21.7588 10.906, 22.0179 10.1971, 22.1654 9.20746, 22.2014 7.93714 Z M 23.0939 10.9888 C 24.6341 11.4926, 25.6741 11.8848, 26.2067 12.1727, 26.7393 12.4606, 26.9588 12.8025, 26.858 13.2055, 26.7609 13.6086, 26.6529 13.8101, 26.5342 13.8101, 26.455 13.8101, 26.3758 13.7525, 26.2966 13.6374, 26.0591 13.3315, 25.7353 13.004, 25.3178 12.6586, 24.904 12.3167, 24.1231 11.8165, 22.9751 11.1615 Z M 17.1021 5.92191 L 18.0522 3.8491, 15.6195 3.8491 C 14.9106 5.27416, 14.2196 6.36814, 13.5431 7.13105 L 13.3668 7.01589 C 14.0001 5.9435, 14.5363 4.78474, 14.9682 3.53602, 15.4036 2.29089, 15.6591 1.33725, 15.7383 0.682302 L 16.9834 1.43082 C 16.7099 1.474, 16.2924 2.16494, 15.7383 3.50363 L 17.991 3.50363, 18.4084 2.92785, 19.4161 3.90668 C 18.941 3.94986, 18.2321 4.65879, 17.2821 6.03707 Z M 16.4508 11.5646 L 18.7647 9.60691, 18.941 9.77964 C 17.2425 11.5862, 16.314 12.7161, 16.1557 13.1768 L 15.382 12.2555 C 15.5835 12.0684, 15.6807 11.7985, 15.6807 11.4494 L 15.6807 7.47652 C 15.6807 6.67402, 15.6627 6.00108, 15.6195 5.46129 L 16.9834 6.03707, 16.4508 6.44011 Z" stroke="none" fill="#000000" />
			<path d="M 30.9875 9.03113 C 30.6708 9.53494, 30.3757 10.0136, 30.095 10.4706, 30.6132 10.5893, 31.225 10.7225, 31.9339 10.8736, 32.2938 10.4922, 32.6501 9.88041, 33.0027 9.03113 Z M 28.5548 1.25808 C 29.3069 1.72231, 29.7604 2.06777, 29.9187 2.29809, 30.077 2.5284, 30.1562 2.70113, 30.1562 2.81269, 30.1562 3.00702, 30.0878 3.20134, 29.9511 3.39207, 29.8143 3.5864, 29.7028 3.67996, 29.6236 3.67636, 29.5049 3.67996, 29.3861 3.48923, 29.2674 3.10058, 29.109 2.56798, 28.8139 1.9922, 28.3785 1.37324 Z M 33.6541 1.08535 L 34.7229 1.77629 C 34.4062 1.85546, 34.1291 2.04978, 33.8916 2.35207, 33.6181 2.66155, 33.1611 3.12217, 32.5277 3.73394 L 32.3514 3.61879 C 33.1035 2.47082, 33.5389 1.62514, 33.6541 1.08535 Z M 30.9875 0.451989 L 32.2902 1.02777, 31.8152 1.43082, 31.8152 4.07941, 33.2978 4.07941, 33.9528 3.44605, 34.9604 4.42488, 31.8152 4.42488, 31.8152 4.94308 C 32.7256 5.13741, 33.2906 5.32094, 33.5065 5.49367, 33.7261 5.66641, 33.834 5.88592, 33.834 6.15222, 33.834 6.27098, 33.816 6.41492, 33.7764 6.58766, 33.7369 6.76039, 33.6757 6.84676, 33.5965 6.84316, 33.5173 6.84676, 33.3806 6.71361, 33.1791 6.44011, 32.866 6.02267, 32.4126 5.61963, 31.8152 5.23097 L 31.8152 7.01589, 31.1063 7.47652, 31.9339 7.82199 C 31.7396 7.90116, 31.4805 8.18905, 31.1638 8.68566 L 33.0027 8.68566, 33.4166 8.16746, 34.309 8.91597, 33.7728 9.20386 C 33.377 10.0891, 33.0243 10.7045, 32.7076 11.0464, 33.341 11.2047, 33.7656 11.3666, 33.9816 11.5394, 34.2011 11.7121, 34.309 11.9352, 34.309 12.2015, 34.309 12.4714, 34.2515 12.601, 34.1291 12.601, 34.0139 12.601, 33.8736 12.529, 33.7153 12.3707, 33.2798 12.0684, 32.7868 11.7985, 32.2326 11.5646, 30.8507 12.6406, 29.2098 13.3495, 27.3097 13.695 L 27.2485 13.5222 C 29.0694 12.9464, 30.4909 12.2015, 31.5201 11.2767, 30.7284 11.0104, 29.9583 10.8196, 29.2062 10.7009, 29.3645 10.4742, 29.6812 9.91639, 30.1562 9.03113 L 29.3861 9.03113 C 28.8715 9.03473, 28.3965 9.09231, 27.961 9.20386 L 27.4284 8.68566, 30.275 8.68566 C 30.4333 8.3042, 30.5916 7.84358, 30.75 7.30379 L 31.0451 7.41894, 31.0451 5.05824 C 29.9799 6.25298, 28.7527 7.17423, 27.3673 7.82199 L 27.2485 7.64925 C 28.7132 6.65603, 29.8215 5.58004, 30.5701 4.42488 L 29.5049 4.42488 C 28.9903 4.42848, 28.5152 4.48606, 28.0798 4.59761 L 27.5472 4.07941, 31.0451 4.07941 C 31.0451 2.70113, 31.0271 1.49199, 30.9875 0.451989 Z M 35.8492 4.42488 C 36.0472 6.65603, 36.5222 8.51652, 37.2743 10.01, 37.9077 8.70725, 38.2999 6.84676, 38.4583 4.42488 Z M 36.1443 0.451989 L 37.5082 1.2005 C 37.1951 1.31926, 36.9576 1.54957, 36.7993 1.89504, 36.6409 2.24051, 36.3459 2.97103, 35.9068 4.07941 L 39.2895 4.07941, 40.0021 3.38847, 41.0673 4.42488, 39.3471 4.42488 C 39.1096 7.2678, 38.5986 9.3802, 37.8069 10.7585, 38.7174 11.8381, 39.7862 12.5074, 41.0097 12.7737 L 41.0097 13.004 C 40.2612 13.1192, 39.8653 13.3495, 39.8221 13.695, 38.7965 13.004, 37.9473 12.2195, 37.2743 11.3343, 35.9716 12.565, 34.4098 13.4646, 32.5889 14.0404 L 32.4701 13.8677 C 34.291 13.0616, 35.7341 12.0108, 36.7993 10.7009, 36.0508 8.90158, 35.6549 6.92233, 35.6117 4.77035, 35.2159 5.77077, 34.6437 6.71361, 33.8916 7.59168 L 33.7153 7.47652 C 34.6653 5.9435, 35.475 3.60439, 36.1443 0.451989 Z" stroke="none" fill="#000000" />
			<path d="M 47.6545 14.0404 C 47.6941 13.1983, 47.7121 12.3095, 47.7121 11.3666, 47.7121 10.4274, 47.6941 9.59251, 47.6545 8.85839 L 48.4822 9.31902, 50.1448 9.31902, 50.1448 7.01589, 47.3558 7.01589 C 47.0823 9.74366, 46.0351 11.9892, 44.2142 13.7525 L 44.0343 13.5798 C 44.9052 12.4714, 45.5709 11.2155, 46.0243 9.81203, 46.4778 8.41216, 46.7153 6.78198, 46.7333 4.91789, 46.7549 3.0574, 46.7441 1.72231, 46.7045 0.912614 L 47.5934 1.43082, 52.4587 1.43082, 52.9301 0.970192, 53.7614 1.71871, 53.2864 2.0066 C 53.2864 3.16176, 53.308 4.00744, 53.3476 4.54004 L 52.5163 4.8855, 52.5163 4.19457, 47.5358 4.19457 C 47.5358 4.92869, 47.4962 5.75277, 47.417 6.67043 L 50.1448 6.67043 C 50.1448 5.9435, 50.1268 5.23457, 50.0836 4.54004 L 51.3899 5.11582, 50.9149 5.46129, 50.9149 6.67043, 52.8725 6.67043, 53.5239 6.03707, 54.5315 7.01589, 50.9149 7.01589, 50.9149 9.31902, 52.4587 9.31902, 52.9301 8.80082, 53.7614 9.54933, 53.2864 9.8948 C 53.2864 11.435, 53.308 12.6226, 53.3476 13.4646 L 52.5163 13.9253, 52.5163 12.7161, 48.4822 12.7161, 48.4822 13.695 Z M 47.5358 1.77629 L 47.5358 3.8491, 52.5163 3.8491, 52.5163 1.77629 Z M 48.4822 9.66449 L 48.4822 12.3707, 52.5163 12.3707, 52.5163 9.66449 Z M 44.2142 6.90074 L 46.1719 5.80675, 46.2906 6.03707, 44.2142 7.5341, 44.2142 12.1979 C 44.1747 12.8889, 43.7392 13.3891, 42.9079 13.695, 42.9871 13.3135, 42.4941 12.9105, 41.4253 12.4858 L 41.4253 12.2555 C 42.2962 12.4138, 42.8432 12.4822, 43.0591 12.4606, 43.275 12.4426, 43.383 12.2987, 43.383 12.0252 L 43.383 7.93714 C 42.2782 8.70725, 41.706 9.20746, 41.6628 9.43418 L 40.7739 8.39777 C 41.0115 8.36178, 41.8823 7.98033, 43.383 7.24621 L 43.383 4.30972, 42.0191 4.30972, 41.3065 4.42488, 40.8315 3.96425, 43.383 3.96425 C 43.383 2.39525, 43.365 1.27967, 43.3254 0.624723 L 44.6893 1.31566, 44.2142 1.71871, 44.2142 3.96425, 44.8656 3.96425, 45.6357 3.3309, 46.5282 4.30972, 44.2142 4.30972 Z" stroke="none" fill="#000000" />
			<rect />
		</svg>
	</g>
</svg>
