<?xml version="1.0"?>
<svg xmlns="http://www.w3.org/2000/svg" xmlns:xlink="http://www.w3.org/1999/xlink" width="542.873413" height="178.730286">
	<defs>
		<marker id="CustomMarker-01" markerUnits="strokeWidth" markerWidth="15.000001" markerHeight="9" viewBox="-15 -4.5 15 9" orient="auto-start-reverse">
			<path d="M 0 -0 L -10 -3, -8 -0.5, -8 0.5, -10 3 Z" fill="#000000" stroke="#000000" stroke-linejoin="round" />
		</marker>
		<marker id="CustomMarker-02" markerUnits="strokeWidth" markerWidth="15.000001" markerHeight="9" viewBox="-15 -4.5 15 9" orient="auto-start-reverse">
			<path d="M 0 -0 L -10 -3, -8 -0.5, -8 0.5, -10 3 Z" fill="#000000" stroke="#000000" stroke-linejoin="round" />
		</marker>
		<marker id="CustomMarker-03" markerUnits="strokeWidth" markerWidth="15.000001" markerHeight="9" viewBox="-15 -4.5 15 9" orient="auto-start-reverse">
			<path d="M 0 -0 L -10 -3, -8 -0.5, -8 0.5, -10 3 Z" fill="#000000" stroke="#000000" stroke-linejoin="round" />
		</marker>
		<marker id="CustomMarker-04" markerUnits="strokeWidth" markerWidth="15.000001" markerHeight="9" viewBox="-15 -4.5 15 9" orient="auto-start-reverse">
			<path d="M 0 -0 L -10 -3, -8 -0.5, -8 0.5, -10 3 Z" fill="#000000" stroke="#000000" stroke-linejoin="round" />
		</marker>
		<marker id="CustomMarker-05" markerUnits="strokeWidth" markerWidth="15.000001" markerHeight="9" viewBox="-15 -4.5 15 9" orient="auto-start-reverse">
			<path d="M 0 -0 L -10 -3, -8 -0.5, -8 0.5, -10 3 Z" fill="#000000" stroke="#000000" stroke-linejoin="round" />
		</marker>
	</defs>
	<rect x="-59.2120209" y="-36.4381714" width="118.424042" height="72.8763428" stroke="none" fill="#3E16FE" fill-opacity="0.392156839" transform="matrix(0.833333 0 -0 0.833333 57.8434 139.865)" />
	<path d="M -59.212 -36.4382 L 59.212 -36.4382, 59.212 36.4382, -59.212 36.4382 Z" fill="none" stroke="#000000" stroke-width="1.20000005" stroke-linecap="round" stroke-linejoin="round" transform="matrix(0.833333 0 -0 0.833333 57.8434 139.865)" />
	<g transform="matrix(1 0 -0 1 30.5665 131.86)">
		<svg width="167.966949" height="47.945446">
			<defs />
			<path d="M 6.43037 3.44605 C 6.43037 2.2585, 6.41237 1.31926, 6.37279 0.624723 L 7.97418 1.31566, 7.32283 1.83386, 7.32283 11.9676 C 7.32283 12.8529, 6.82981 13.4862, 5.83659 13.8677, 5.87977 13.4071, 5.24642 12.9284, 3.93651 12.4282 L 3.93651 12.1403 C 4.80738 12.2987, 5.44074 12.3743, 5.83659 12.3743, 6.23244 12.3743, 6.43037 12.1044, 6.43037 11.5646 Z M 3.64143 4.25214 L 4.94773 5.1734 C 4.63105 5.33173, 4.35395 5.61963, 4.11644 6.03707, 3.83935 6.46171, 3.39312 7.08787, 2.78135 7.91195, 2.16958 8.73964, 1.3455 9.59251, 0.316289 10.4706 L 0.136357 10.2978 C 0.65456 9.76525, 1.16916 9.1139, 1.68377 8.34379, 2.19837 7.57728, 2.62301 6.81797, 2.95768 6.06945, 3.29596 5.32094, 3.52267 4.71637, 3.64143 4.25214 Z M 8.98539 4.54004 C 10.4896 5.73478, 11.5188 6.61645, 12.073 7.19223, 12.6272 7.76801, 12.9367 8.19265, 12.9943 8.45895, 13.0518 8.72884, 13.0806 8.91957, 13.0806 9.03113, 13.0806 9.3802, 13.0015 9.66089, 12.8431 9.86961, 12.6848 10.0819, 12.566 10.1863, 12.4869 10.1827, 12.3285 10.1863, 12.1918 9.97397, 12.073 9.54933, 11.8355 8.93756, 11.4505 8.22144, 10.9143 7.39375, 10.3817 6.56966, 9.67633 5.6772, 8.80546 4.71277 Z" stroke="none" fill="#000000" />
			<path d="M 20.3157 1.2005 C 20.0386 1.27967, 19.6212 1.81947, 19.067 2.81269 L 24.3534 2.81269, 25.2422 2.0066, 26.3722 3.15816, 19.0094 3.15816, 16.8107 6.95832, 20.0782 6.95832 C 20.0782 5.50447, 20.0602 4.46806, 20.017 3.8491 L 21.4421 4.42488, 20.9671 4.8855, 20.9671 6.95832, 23.6984 6.95832, 24.5297 6.09465, 25.6597 7.30379, 20.9671 7.30379, 20.9671 10.1251, 25.3034 10.1251, 26.1923 9.26144, 27.3798 10.4706, 20.9671 10.4706 C 20.9671 11.6653, 20.9887 12.7557, 21.0282 13.7525 L 20.017 14.0404 C 20.0602 12.6226, 20.0782 11.435, 20.0782 10.4706 L 15.2093 10.4706 C 14.8926 10.4742, 14.5183 10.5318, 14.0793 10.6433 L 13.5467 10.1251, 20.0782 10.1251, 20.0782 7.30379, 16.8107 7.30379, 16.2169 7.87957, 15.328 7.01589 C 15.7634 6.78918, 16.1989 6.32136, 16.6343 5.60883, 17.0698 4.8999, 17.5052 4.08301, 17.9406 3.15816 L 16.2169 3.15816 C 15.9002 3.16176, 15.5259 3.21934, 15.0905 3.3309 L 14.5543 2.81269, 18.0594 2.81269 C 18.6136 1.58916, 18.9302 0.801057, 19.0094 0.451989 Z" stroke="none" fill="#000000" />
			<path d="M 33.0099 0.624723 L 34.6149 1.31566, 33.96 1.77629, 33.96 5.63402, 37.465 5.63402, 38.3539 4.77035, 39.6026 5.97949, 33.96 5.97949, 33.96 12.4858, 38.8289 12.4858, 39.779 11.5646, 41.0853 12.8313, 29.2098 12.8313 C 28.6988 12.8313, 28.2237 12.8889, 27.7847 13.004 L 27.2521 12.4858, 33.0711 12.4858, 33.0711 2.81269 C 33.0711 2.12535, 33.0531 1.39483, 33.0099 0.624723 Z" stroke="none" fill="#000000" />
			<path d="M 47.068 3.56121 C 47.068 2.45283, 47.05 1.43442, 47.0104 0.509567 L 48.3743 1.14293, 47.8992 1.54597, 47.8992 3.56121, 51.5231 3.56121, 52.1168 2.98543, 52.9481 3.79152, 52.4119 4.19457 C 52.4119 7.2678, 52.4335 9.18947, 52.4731 9.95238 L 51.5806 10.3554, 51.5806 9.66449, 47.8992 9.66449, 47.8992 12.2555 C 47.8992 12.6801, 48.1367 12.8889, 48.6118 12.8889 L 52.7106 12.8889 C 53.0669 12.8529, 53.2648 12.6514, 53.3044 12.2879, 53.344 11.9244, 53.3836 11.1831, 53.4231 10.0675 L 53.7182 10.0675 C 53.7182 11.032, 53.7902 11.6653, 53.9269 11.9712, 54.0673 12.2807, 54.276 12.529, 54.5495 12.7161, 54.3912 13.0256, 54.1932 13.2451, 53.9557 13.3783, 53.7182 13.515, 53.3836 13.5798, 52.9481 13.5798 L 48.3167 13.5798 C 47.4854 13.5798, 47.068 13.1983, 47.068 12.4282 L 47.068 9.66449, 43.5053 9.66449, 43.5053 10.4706, 42.6164 10.8736 C 42.656 9.57092, 42.674 8.22863, 42.674 6.84676, 42.674 5.46488, 42.656 4.19816, 42.6164 3.043 L 43.5665 3.56121 Z M 43.5053 3.90668 L 43.5053 6.38254, 47.068 6.38254, 47.068 3.90668 Z M 47.8992 3.90668 L 47.8992 6.38254, 51.5806 6.38254, 51.5806 3.90668 Z M 43.5053 6.728 L 43.5053 9.31902, 47.068 9.31902, 47.068 6.728 Z M 47.8992 6.728 L 47.8992 9.31902, 51.5806 9.31902, 51.5806 6.728 Z" stroke="none" fill="#000000" />
			<rect />
		</svg>
	</g>
	<rect x="-59.2120361" y="-36.4381714" width="118.424072" height="72.8763428" stroke="none" fill="#9F40C9" fill-opacity="0.392156839" transform="matrix(0.833333 0 -0 0.833333 200.187 139.865)" />
	<path d="M -59.212 -36.4382 L 59.212 -36.4382, 59.212 36.4382, -59.212 36.4382 Z" fill="none" stroke="#000000" stroke-width="1.20000005" stroke-linecap="round" stroke-linejoin="round" transform="matrix(0.833333 0 -0 0.833333 200.187 139.865)" />
	<g transform="matrix(1 0 -0 1 179.763 131.86)">
		<svg width="132.117233" height="45.0363579">
			<defs />
			<path d="M 5.89777 2.63996 L 12.073 2.63996, 12.6056 2.06418, 13.4981 2.81269, 12.9619 3.21574 C 12.6452 9.05272, 12.3393 12.2303, 12.0442 12.7449, 11.7491 13.2631, 11.2633 13.6194, 10.5868 13.8101, 10.3493 13.2343, 9.69792 12.8133, 8.62913 12.5434 L 8.62913 12.2555 C 9.97502 12.4138, 10.7199 12.4822, 10.8567 12.4606, 10.9934 12.4426, 11.1518 12.3275, 11.3317 12.1152, 11.5116 11.9064, 11.7779 8.86199, 12.1306 2.98543 L 8.86664 2.98543 C 8.82705 4.67678, 8.6975 6.16662, 8.48159 7.45133, 8.26567 8.73964, 7.83023 9.90919, 7.17528 10.9636, 6.52033 12.0216, 5.5595 12.9284, 4.29278 13.695 L 4.17402 13.5222 C 5.2824 12.565, 6.10649 11.6077, 6.63909 10.6469, 7.17528 9.68968, 7.53155 8.56691, 7.70788 7.27859, 7.88781 5.99388, 7.99577 4.56163, 8.03535 2.98543 L 7.14289 2.98543, 6.37279 3.10058 Z M 2.27394 0.394411 C 3.42551 1.04936, 4.00849 1.54957, 4.02648 1.89504, 4.04807 2.24051, 3.9761 2.48162, 3.81776 2.61477, 3.65942 2.75152, 3.54066 2.81629, 3.46149 2.81269, 3.30315 2.81629, 3.1844 2.64356, 3.10523 2.29449, 2.94689 1.83746, 2.61222 1.26168, 2.09761 0.567145 Z M 3.58025 7.36136 C 3.7026 7.40455, 3.90053 7.46212, 4.17402 7.5341, 4.88655 6.46171, 5.36157 5.6772, 5.59908 5.1734 L 6.54912 5.97949 C 6.23244 6.09824, 5.89777 6.29977, 5.5415 6.58766, 5.18524 6.87555, 4.82897 7.23181, 4.47271 7.64925, 5.38316 7.99832, 5.86898 8.25742, 5.92656 8.43016, 5.98773 8.60289, 6.01652 8.76483, 6.01652 8.91597, 6.01652 9.14988, 5.97694 9.33341, 5.89777 9.46656, 5.8186 9.60331, 5.76102 9.66809, 5.71784 9.66449, 5.60268 9.66809, 5.46233 9.51334, 5.30399 9.20386, 5.0269 8.82241, 4.45112 8.3042, 3.58025 7.64925 L 3.58025 11.7949 C 3.58025 12.2591, 3.60184 12.8313, 3.64143 13.5222 L 2.74896 13.8677 C 2.79215 12.565, 2.81014 11.5862, 2.81014 10.9312 L 2.81014 6.728 C 1.8601 7.76801, 0.852485 8.61369, -0.219907 9.26144 L -0.338662 9.08871 C 0.575391 8.3258, 1.39588 7.49091, 2.1264 6.58766, 2.86052 5.688, 3.52267 4.69838, 4.11644 3.61879 L 1.8601 3.61879 C 1.3455 3.62238, 0.870478 3.67996, 0.435044 3.79152 L -0.101152 3.27332, 4.11644 3.27332, 4.64904 2.75511, 5.5415 3.61879, 4.94773 3.90668 C 4.39354 4.6408, 3.94011 5.25256, 3.58025 5.74918 Z" stroke="none" fill="#000000" />
			<path d="M 21.3845 8.39777 L 21.3845 12.1979, 25.3034 12.1979, 25.3034 8.39777 Z M 22.3921 0.451989 L 23.6984 1.25808, 23.1658 1.54597 C 21.9387 3.69796, 21.0858 5.04384, 20.6108 5.57644, 21.5608 5.54046, 23.2846 5.48288, 25.7784 5.40371, 25.3826 4.67678, 24.85 3.96785, 24.1735 3.27332 L 24.3534 3.10058 C 25.9368 4.14059, 26.7789 4.79554, 26.876 5.06184, 26.9768 5.33173, 27.0236 5.56205, 27.0236 5.74918, 27.0236 6.02267, 26.9444 6.25298, 26.7861 6.44371, 26.6277 6.63804, 26.509 6.7316, 26.4298 6.728, 26.3506 6.7316, 26.293 6.65603, 26.2535 6.49769, 26.1347 6.23139, 26.016 5.96509, 25.8972 5.6916, 24.195 5.81035, 22.9175 5.9543, 22.0683 6.12703, 21.219 6.29977, 20.6324 6.51928, 20.3157 6.78558 L 19.6032 5.57644 C 20.0386 5.4253, 20.5028 4.91069, 20.9995 4.02543, 21.4961 3.14377, 21.9603 1.95262, 22.3921 0.451989 Z M 26.1347 8.62808 C 26.1347 11.3199, 26.1563 12.8709, 26.1923 13.2919 L 25.3034 13.695, 25.3034 12.5434, 21.3845 12.5434, 21.3845 13.4646, 20.4921 13.8101 C 20.5352 13.2343, 20.5532 12.2303, 20.5532 10.7909, 20.5532 9.35141, 20.5352 8.26822, 20.4921 7.5341 L 21.3845 8.0523, 25.1847 8.0523, 25.5985 7.47652, 26.6097 8.22503 Z M 16.3968 4.42488 C 16.1197 5.31014, 15.6447 6.86475, 14.9718 9.08871, 15.6843 9.32262, 16.3392 9.55293, 16.9294 9.77964, 17.5268 8.47694, 18.0018 6.69202, 18.3545 4.42488 Z M 17.7031 1.2005 L 17.1669 1.54597 C 17.0086 2.04978, 16.7711 2.89186, 16.4544 4.07941 L 18.2969 4.07941, 18.7107 3.56121, 19.6608 4.30972, 19.1857 4.65519 C 18.7539 6.96192, 18.2573 8.76483, 17.7031 10.0675, 18.4552 10.4562, 18.9087 10.7441, 19.067 10.9348, 19.2253 11.1291, 19.3045 11.3774, 19.3045 11.6797, 19.3045 11.874, 19.2865 12.0576, 19.2469 12.2303, 19.2073 12.403, 19.1678 12.4894, 19.1282 12.4858, 19.0094 12.4894, 18.8511 12.3347, 18.6532 12.0252, 18.2969 11.5286, 17.8794 11.0895, 17.4044 10.7009, 16.4184 12.0864, 15.1913 13.1588, 13.723 13.9253 L 13.6043 13.7525 C 14.9933 12.6801, 16.0226 11.5502, 16.6919 10.3554, 15.7059 9.82283, 14.8746 9.43777, 14.198 9.20386, 14.6731 7.67085, 15.1301 6.08025, 15.5655 4.42488 L 15.4468 4.42488 C 14.9322 4.42848, 14.4571 4.48606, 14.0217 4.59761 L 13.4855 4.07941, 15.6231 4.07941 C 16.019 2.43124, 16.2565 1.26168, 16.3356 0.567145 Z" stroke="none" fill="#000000" />
			<path d="M 29.7999 13.9253 C 29.8431 12.6981, 29.8611 11.5286, 29.8611 10.413 L 29.8611 5.34613 C 28.9902 6.61645, 28.1589 7.65285, 27.3672 8.45535 L 27.1873 8.28261 C 28.0581 7.09506, 28.8714 5.71679, 29.6235 4.14059, 30.3757 2.56798, 30.8507 1.37684, 31.0486 0.567145 L 32.3549 1.31566, 31.7611 1.66113 C 31.2465 2.77671, 30.7715 3.73754, 30.3361 4.54004 L 31.1674 5.00066, 30.6923 5.46129, 30.6923 11.7373 C 30.6923 12.1619, 30.7139 12.7377, 30.7499 13.4646 Z M 34.73 7.64925 L 34.73 3.50363 C 34.73 2.66155, 34.712 1.68272, 34.6688 0.567145 L 36.0363 1.2005, 35.5613 1.66113, 35.5613 7.01589 C 36.1155 6.51928, 36.7201 5.88952, 37.3714 5.11942, 38.0264 4.35291, 38.4906 3.73754, 38.7677 3.27332 L 39.8365 4.25214, 39.1815 4.42488 C 38.0372 5.6952, 36.828 6.86475, 35.5613 7.93714 L 35.5613 11.5646 C 35.5613 12.2195, 35.8996 12.5434, 36.5689 12.5434 L 39.1239 12.5434 C 39.4406 12.5434, 39.6385 12.2987, 39.7177 11.7985, 39.7969 11.3019, 39.8365 10.5318, 39.8365 9.49175 L 40.1316 9.49175 C 40.2107 10.5318, 40.3115 11.2227, 40.4302 11.5682, 40.549 11.9136, 40.7649 12.1439, 41.0816 12.2555, 40.7289 12.9464, 40.1531 13.2919, 39.3614 13.2919 L 36.2126 13.2919 C 35.2266 13.2919, 34.73 12.8529, 34.73 11.9676 L 34.73 8.45535 C 33.7008 9.22545, 32.5132 9.88041, 31.1674 10.413 L 31.1062 10.1827 C 32.4953 9.41978, 33.7008 8.5741, 34.73 7.64925 Z" stroke="none" fill="#000000" />
			<rect />
		</svg>
	</g>
	<path d="M 0 0 L 52.388 0" fill="none" stroke="#000000" stroke-width="1.20000005" stroke-linecap="round" stroke-linejoin="round" marker-end="url(#CustomMarker-01)" transform="matrix(0.833333 0 0 0.833333 107.187 139.865)" />
	<path d="M -59.212 0 L 0 -36.4382, 59.212 0, 0 36.4382 Z" stroke="none" fill="#F10463" fill-opacity="0.392156839" transform="matrix(0.833333 0 -0 0.833333 347.03 139.865)" />
	<path d="M -59.212 0 L 0 -36.4382, 59.212 0, 0 36.4382 Z" fill="none" stroke="#000000" stroke-width="1.20000005" stroke-linecap="round" stroke-linejoin="round" transform="matrix(0.833333 0 -0 0.833333 347.03 139.865)" />
	<g transform="matrix(1 0 -0 1 317.008 131.86)">
		<svg width="186.037537" height="50.9999924">
			<defs />
			<path d="M 7.79784 10.8736 L 7.79784 12.601, 11.598 12.601, 11.598 10.8736 Z M 3.34274 13.9253 C 3.7026 13.3135, 4.04807 12.547, 4.38274 11.6257, 4.72101 10.7045, 4.93693 9.51694, 5.03769 8.0559, 5.13846 6.59845, 5.18524 5.31014, 5.18524 4.19457, 5.14565 3.08619, 5.12406 2.22252, 5.12406 1.60355 L 5.95535 2.17933 C 8.01376 1.79788, 9.41003 1.49199, 10.1442 1.26168, 10.8783 1.03137, 11.3821 0.801057, 11.6556 0.567145 L 12.6056 1.66113 C 12.1738 1.66473, 11.5584 1.71511, 10.7667 1.80867, 9.97502 1.90584, 8.37363 2.12535, 5.95535 2.46722 L 5.95535 4.3673, 9.10415 4.3673 C 9.14373 3.56481, 9.14373 2.89186, 9.10415 2.35207 L 10.468 2.92785, 9.99301 3.27332, 9.93543 4.3673, 11.8931 4.3673, 12.6056 3.67636, 13.6744 4.71277, 9.93543 4.71277, 9.87426 6.55527, 11.4792 6.55527, 11.9543 6.03707, 12.8431 6.728, 12.4293 7.01589, 12.4293 11.507 C 12.4293 12.3563, 12.4509 13.0616, 12.4869 13.6374 L 11.598 13.9828, 11.598 12.9464, 7.79784 12.9464, 7.79784 13.695, 6.96656 13.9828 C 7.00615 13.0616, 7.02414 11.6545, 7.02414 9.75445, 7.02414 7.85438, 7.00615 6.63444, 6.96656 6.09465 L 7.79784 6.55527, 9.04297 6.55527, 9.10415 4.71277, 7.61791 4.71277 C 7.18608 4.71637, 6.79023 4.77395, 6.43037 4.8855 L 5.95535 4.42488 C 5.99853 6.54087, 5.87977 8.33659, 5.60268 9.81203, 5.32558 11.2911, 4.63105 12.6981, 3.52267 14.0404 Z M 7.79784 6.90074 L 7.79784 8.5705, 11.598 8.5705, 11.598 6.90074 Z M 7.79784 8.91597 L 7.79784 10.5282, 11.598 10.5282, 11.598 8.91597 Z M 2.98647 0.682302 L 4.05527 1.60355 C 3.65942 1.76189, 3.14481 2.18293, 2.51145 2.87027, 1.84211 3.56481, 1.01082 4.27374, 0.0176025 5.00066 L -0.101152 4.82793 C 0.690547 4.06502, 1.37429 3.26972, 1.95007 2.44203, 2.52585 1.61795, 2.87132 1.03137, 2.98647 0.682302 Z M 3.58025 3.50363 L 4.71022 4.3673, 4.11644 4.59761 C 3.60184 5.33173, 3.14481 5.96509, 2.74896 6.49769 L 2.74896 13.7525, 1.8601 14.0404 C 1.89969 13.1192, 1.91768 12.3563, 1.91768 11.7373 L 1.91768 7.36136 C 1.24833 8.13147, 0.553799 8.76483, -0.15873 9.26144 L -0.277485 9.08871 C 0.118364 8.70725, 0.625771 8.11348, 1.23754 7.30738, 1.84931 6.50129, 2.35311 5.76357, 2.74896 5.09063, 3.14481 4.42128, 3.42191 3.89228, 3.58025 3.50363 Z" stroke="none" fill="#000000" />
			<path d="M 21.2658 10.413 C 21.8199 10.5318, 22.3058 10.6109, 22.7196 10.6469, 23.137 10.6865, 23.3422 10.5318, 23.3422 10.1827 L 23.3422 3.3309, 21.3845 3.3309, 21.3845 5.40371 C 21.3845 7.09506, 21.0786 8.38337, 20.4633 9.26504, 19.8515 10.1503, 18.9878 10.8772, 17.8794 11.4494 L 17.7607 11.2767 C 18.7539 10.5498, 19.4664 9.74726, 19.9019 8.86199, 20.3373 7.98033, 20.5532 6.97991, 20.5532 5.86433 L 20.5532 3.3309, 19.3657 3.3309 C 18.8511 3.33449, 18.3761 3.39207, 17.9406 3.50363 L 17.4044 2.98543, 22.1546 2.98543 C 21.9963 2.48882, 21.8307 2.08937, 21.6508 1.77988, 21.4745 1.474, 21.2478 1.16452, 20.9671 0.855036 L 21.0858 0.682302 C 22.1942 1.18611, 22.7808 1.54957, 22.8384 1.77988, 22.8995 2.0102, 22.9283 2.16494, 22.9283 2.23691, 22.9283 2.51041, 22.77 2.75871, 22.4533 2.98543 L 25.6597 2.98543, 26.311 2.35207, 27.2611 3.3309, 24.1159 3.3309, 24.1159 10.4706 C 24.1555 11.2047, 23.7992 11.6833, 23.0471 11.91, 22.9283 11.3379, 22.313 10.9168, 21.2046 10.6433 Z M 18.8907 4.77035 L 20.0782 5.40371, 19.6032 5.6916 C 18.8511 6.96192, 18.0378 7.98033, 17.1669 8.74324 L 17.0482 8.5705 C 17.5664 7.88316, 17.973 7.20302, 18.2681 6.53008, 18.5632 5.86073, 18.7719 5.27416, 18.8907 4.77035 Z M 24.5297 5.34613 L 24.6485 5.1734 C 25.4042 5.71319, 25.9584 6.17741, 26.3146 6.55887, 26.6709 6.94392, 26.8688 7.27859, 26.9084 7.56649, 26.948 7.85438, 26.8868 8.08469, 26.7285 8.25742, 26.5701 8.43016, 26.4514 8.51652, 26.3722 8.51293, 26.2535 8.51652, 26.1527 8.34379, 26.0735 7.99472, 25.9152 7.5377, 25.7101 7.08787, 25.451 6.64524, 25.1955 6.2062, 24.8896 5.77077, 24.5297 5.34613 Z M 16.5731 10.9312 C 16.8538 11.1255, 17.3684 11.417, 18.1206 11.7985, 18.8727 12.1835, 20.0782 12.403, 21.7408 12.4606, 23.4033 12.5182, 25.3034 12.4138, 27.441 12.1403 L 27.441 12.3707 C 26.6889 12.601, 26.293 12.9105, 26.2535 13.2919, 24.393 13.2919, 22.9067 13.2739, 21.7984 13.2343, 20.69 13.1983, 19.7615 13.0328, 19.0094 12.7449, 18.2573 12.4606, 17.6239 12.1044, 17.1093 11.6797, 16.5947 11.2983, 16.2781 11.1183, 16.1593 11.1363, 16.0405 11.1579, 15.7814 11.3594, 15.3856 11.7409, 14.9897 12.126, 14.5939 12.601, 14.198 13.1768 L 13.3668 12.3707 C 14.0793 11.9892, 14.8926 11.4926, 15.803 10.8736 L 15.803 5.97949, 15.328 5.97949 C 14.8134 5.98309, 14.3384 6.04067, 13.903 6.15222 L 13.3668 5.63402, 15.7419 5.63402, 16.3356 5.05824, 17.1669 5.86433, 16.5731 6.2098 Z M 14.6155 1.02777 L 14.7342 0.855036 C 15.4468 1.24369, 15.9434 1.56037, 16.2205 1.80867, 16.4976 2.06058, 16.6343 2.32688, 16.6343 2.61477, 16.6343 2.90266, 16.5551 3.10418, 16.3968 3.21934, 16.2385 3.33449, 16.1413 3.39207, 16.0981 3.38847, 15.9398 3.39207, 15.7814 3.16176, 15.6231 2.69754, 15.4288 2.12535, 15.0905 1.56756, 14.6155 1.02777 Z" stroke="none" fill="#000000" />
			<path d="M 28.0901 15.1449 C 28.059 15.2324, 28.0005 15.2954, 27.9151 15.3346, 27.8611 15.3567, 27.8116 15.3673, 27.7666 15.3673, 27.7355 15.3673, 27.6971 15.3632, 27.6521 15.3543, 27.4906 15.2978, 27.4096 15.1997, 27.4096 15.0598, 27.4096 15.0165, 27.4211 14.9682, 27.4432 14.9159 L 32.2216 2.05894 C 32.2531 1.97225, 32.3136 1.90436, 32.4035 1.85611, 32.453 1.84343, 32.498 1.83689, 32.5381 1.83648, 32.57 1.83689, 32.6105 1.84139, 32.6595 1.84957, 32.8215 1.90682, 32.9 2.00496, 32.8955 2.144, 32.8955 2.18816, 32.8845 2.23601, 32.8616 2.28794 Z" stroke="none" fill="#000000" />
			<path d="M 43.7867 0.73988 L 44.8555 1.94902 C 43.9054 1.95262, 42.2645 2.08577, 39.9254 2.35207 L 39.9254 5.00066, 42.9554 5.00066, 43.8443 4.13699, 45.093 5.34613, 39.9254 5.34613, 39.9254 8.0523, 44.3193 8.0523, 45.2693 7.13105, 46.5756 8.39777, 39.9254 8.39777, 39.9254 12.2555 C 39.9254 13.1408, 39.4323 13.7165, 38.4427 13.9828, 38.4427 13.4467, 37.7914 13.004, 36.4815 12.6586 L 36.4815 12.3707 C 37.2732 12.4498, 37.8993 12.5002, 38.3527 12.5182, 38.8098 12.5398, 39.0365 12.3347, 39.0365 11.91 L 39.0365 8.39777, 34.5814 8.39777 C 34.0704 8.40137, 33.5954 8.45895, 33.1563 8.5705 L 32.6237 8.0523, 39.0365 8.0523, 39.0365 5.34613, 36.0064 5.34613 C 35.4954 5.34973, 35.0204 5.40731, 34.5814 5.51886 L 34.0488 5.00066, 39.0365 5.00066, 39.0365 2.40965 C 37.5323 2.48882, 35.8121 2.56798, 33.8689 2.63996 L 33.8689 2.35207 C 36.4455 2.20092, 38.5831 1.98141, 40.2852 1.69352, 41.9874 1.40563, 43.1533 1.08895, 43.7867 0.73988 Z" stroke="none" fill="#000000" />
			<path d="M 59.8635 4.48246 L 59.3885 4.8855 C 59.3489 8.95916, 59.2194 11.4062, 59.0035 12.2303, 58.7876 13.0544, 58.201 13.6014, 57.2509 13.8677, 57.2113 13.4467, 56.596 12.986, 55.4084 12.4858 L 55.4696 12.1979 C 56.3009 12.3923, 56.9523 12.4894, 57.4273 12.4858, 57.6648 12.4894, 57.8555 12.4426, 57.9923 12.3455, 58.1326 12.2519, 58.2514 11.7517, 58.3485 10.8484, 58.4493 9.94878, 58.5356 7.88316, 58.6148 4.65519 L 56.121 4.65519 C 56.085 6.11624, 55.9158 7.42254, 55.6172 8.5741, 55.3221 9.72566, 54.7859 10.7441, 54.0158 11.6257, 53.2457 12.511, 52.2236 13.2919, 50.9569 13.9828 L 50.777 13.8101 C 52.0437 12.968, 52.9866 12.1152, 53.5983 11.2515, 54.2137 10.3878, 54.6491 9.41978, 54.9046 8.34379, 55.1637 7.2714, 55.3113 6.04067, 55.3509 4.65519 L 54.2821 4.65519, 53.5695 4.77035, 53.0945 4.30972, 55.3509 4.30972 C 55.3509 2.70113, 55.3329 1.474, 55.2897 0.624723 L 56.5384 1.2005, 56.121 1.60355, 56.121 4.30972, 58.4961 4.30972, 58.9711 3.79152 Z M 46.8581 2.58238 L 51.1333 2.58238, 51.8458 1.89144, 52.9146 2.92785, 48.5818 2.92785 C 48.1464 2.93145, 47.7505 2.98903, 47.3943 3.10058 Z M 46.3831 5.51886 L 51.9645 5.51886, 52.6771 4.82793, 53.7459 5.86433, 49.7694 5.86433, 50.7194 6.55527 C 50.3236 6.71361, 49.809 7.2678, 49.1756 8.22503, 48.5027 9.18947, 47.8873 9.95598, 47.3331 10.5282 L 52.0257 10.01 C 51.6299 9.24705, 51.216 8.53452, 50.777 7.87957 L 50.9569 7.76441 C 52.3424 8.99514, 53.0729 9.83362, 53.1521 10.2727, 53.2313 10.7153, 53.1845 11.0212, 53.0046 11.1939, 52.8282 11.3666, 52.7203 11.453, 52.6771 11.4494, 52.5619 11.453, 52.4827 11.3558, 52.4396 11.1615, 52.3604 10.8952, 52.2632 10.6073, 52.1445 10.2978, 49.2548 10.8017, 47.5922 11.2803, 47.1568 11.7373 L 46.5018 10.5857 C 46.9409 10.4742, 47.495 9.83362, 48.168 8.66047, 48.8409 7.49091, 49.2548 6.55887, 49.4131 5.86433 L 47.513 5.86433, 46.8581 5.97949 Z" stroke="none" fill="#000000" />
			<rect />
		</svg>
	</g>
	<path d="M 0 0 L 57.788 0" fill="none" stroke="#000000" stroke-width="1.20000005" stroke-linecap="round" stroke-linejoin="round" marker-end="url(#CustomMarker-02)" transform="matrix(0.833333 0 0 0.833333 249.53 139.865)" />
	<rect x="-59.2120361" y="-36.4381714" width="118.424072" height="72.8763428" stroke="none" fill="#69DDAD" fill-opacity="0.392156839" transform="matrix(0.833333 0 -0 0.833333 347.03 38.8651)" />
	<path d="M -59.212 -36.4382 L 59.212 -36.4382, 59.212 36.4382, -59.212 36.4382 Z" fill="none" stroke="#000000" stroke-width="1.20000005" stroke-linecap="round" stroke-linejoin="round" transform="matrix(0.833333 0 -0 0.833333 347.03 38.8651)" />
	<g transform="matrix(1 0 -0 1 326.606 30.8598)">
		<svg width="132.117233" height="47.945446">
			<defs />
			<path d="M 5.59908 0.624723 L 7.20407 1.31566, 6.54912 1.77629, 6.54912 5.63402, 10.0542 5.63402, 10.943 4.77035, 12.1918 5.97949, 6.54912 5.97949, 6.54912 12.4858, 11.4181 12.4858, 12.3681 11.5646, 13.6744 12.8313, 1.79893 12.8313 C 1.28792 12.8313, 0.8129 12.8889, 0.373867 13.004 L -0.15873 12.4858, 5.66026 12.4858, 5.66026 2.81269 C 5.66026 2.12535, 5.64226 1.39483, 5.59908 0.624723 Z" stroke="none" fill="#000000" />
			<path d="M 15.803 13.9253 C 15.8426 12.7737, 15.8606 9.93798, 15.8606 5.40371, 15.0329 6.7496, 14.2808 7.76801, 13.6043 8.45535 L 13.4279 8.34019 C 14.1801 7.19223, 14.8638 5.9471, 15.4756 4.60121, 16.0909 3.25892, 16.5551 1.89504, 16.8718 0.509567 L 18.2357 1.2005, 17.7031 1.4884 C 17.0698 2.87387, 16.6163 3.87069, 16.3356 4.48246 L 17.1093 5.00066, 16.6343 5.34613 C 16.6343 9.95598, 16.6559 12.6586, 16.6919 13.4646 Z M 20.672 0.73988 L 20.8483 0.624723 C 21.9999 1.474, 22.5829 2.08937, 22.6009 2.47082, 22.6224 2.85588, 22.5325 3.12577, 22.3346 3.27692, 22.1366 3.43166, 22.0179 3.50723, 21.9783 3.50363, 21.7804 3.50723, 21.6616 3.29491, 21.622 2.87027, 21.5033 2.29809, 21.1866 1.58916, 20.672 0.73988 Z M 17.6419 3.96425 L 24.8284 3.96425, 25.6597 3.15816, 26.8472 4.30972, 19.542 4.30972 C 19.067 4.31332, 18.6136 4.3709, 18.1781 4.48246 Z M 19.0094 5.63402 L 19.1857 5.51886 C 20.179 7.05908, 20.7512 8.08469, 20.9095 8.60289, 21.0678 9.12109, 21.147 9.51334, 21.147 9.77964, 21.147 10.1683, 21.039 10.4742, 20.8195 10.7045, 20.6036 10.9348, 20.4525 11.05, 20.3733 11.0464, 20.2581 11.05, 20.197 10.9168, 20.197 10.6433, 20.1574 10.1863, 20.0566 9.53494, 19.8983 8.68926, 19.7399 7.84718, 19.4449 6.82877, 19.0094 5.63402 Z M 24.0547 4.8855 L 25.4798 5.63402 C 25.1271 5.82835, 24.7708 6.50129, 24.411 7.64925, 24.0583 8.80441, 23.5041 10.4562, 22.7484 12.601 L 25.4222 12.601, 26.2535 11.7949, 27.441 12.9464, 19.2469 12.9464 C 18.7323 12.9464, 18.2573 13.004, 17.8219 13.1192 L 17.2857 12.601, 22.3346 12.601 C 22.8096 11.032, 23.2054 9.50615, 23.5221 8.02711, 23.8388 6.55167, 24.0187 5.50447, 24.0547 4.8855 Z" stroke="none" fill="#000000" />
			<path d="M 34.6113 2.35207 L 34.6113 7.36136 C 34.6113 10.2043, 33.5029 12.3743, 31.2861 13.8677 L 31.1062 13.695 C 32.8911 12.126, 33.78 10.0136, 33.78 7.36136 L 33.78 4.59761 C 33.78 3.56481, 33.762 2.51041, 33.7188 1.43082 L 34.6113 2.0066, 37.3426 2.0066, 37.8752 1.43082, 38.8252 2.23691, 38.2315 2.58238, 38.2315 11.9676 C 38.2315 12.3563, 38.4294 12.5434, 38.8252 12.5434 L 39.5378 12.5434 C 39.7393 12.5434, 39.8761 12.3958, 39.9552 12.0864, 40.0344 11.7805, 40.0956 11.0895, 40.1316 10.01 L 40.4302 10.01 C 40.4302 10.8592, 40.4698 11.4242, 40.549 11.7121, 40.6282 12, 40.8261 12.2195, 41.1428 12.3707, 40.9053 12.8313, 40.6606 13.0904, 40.4015 13.148, 40.1423 13.2055, 39.894 13.2343, 39.6565 13.2343 L 38.4114 13.2343 C 37.7385 13.2343, 37.4002 12.9284, 37.4002 12.3131 L 37.4002 2.35207 Z M 30.6312 6.32496 C 30.6312 10.3986, 30.6528 12.8529, 30.6923 13.695 L 29.7423 14.098 C 29.7819 12.4138, 29.7999 10.0711, 29.7999 7.07347, 29.2097 8.68926, 28.3388 10.1107, 27.1873 11.3343 L 27.0685 11.1615 C 28.2561 9.3622, 29.1485 7.13465, 29.7423 4.48246 L 28.3172 4.48246, 27.781 4.59761, 27.306 4.13699, 29.7999 4.13699 C 29.7999 2.7983, 29.7819 1.54957, 29.7423 0.394411 L 31.0486 0.912614, 30.6312 1.31566, 30.6312 4.13699, 31.4625 4.13699, 32.1174 3.50363, 33.125 4.48246, 30.6312 4.48246, 30.6312 6.03707 C 31.5812 6.38613, 32.2074 6.65603, 32.5025 6.84676, 32.8011 7.04109, 32.9487 7.28939, 32.9487 7.59168, 32.9487 7.786, 32.9199 7.98033, 32.8587 8.17106, 32.8011 8.36538, 32.7508 8.45895, 32.7112 8.45535, 32.5924 8.45895, 32.4125 8.26822, 32.175 7.87957, 31.8223 7.34697, 31.3077 6.82877, 30.6312 6.32496 Z" stroke="none" fill="#000000" />
			<rect />
		</svg>
	</g>
	<path d="M 0 0 L 0 48.3237" fill="none" stroke="#000000" stroke-width="1.20000005" stroke-linecap="round" stroke-linejoin="round" marker-end="url(#CustomMarker-03)" transform="matrix(0.833333 0 0 0.833333 347.03 69.2303)" />
	<rect x="-59.2120667" y="-36.4381714" width="118.424133" height="72.8763428" stroke="none" fill="#0FB8FB" fill-opacity="0.392156839" transform="matrix(0.833333 0 -0 0.833333 485.03 139.865)" />
	<path d="M -59.2121 -36.4382 L 59.2121 -36.4382, 59.2121 36.4382, -59.2121 36.4382 Z" fill="none" stroke="#000000" stroke-width="1.20000005" stroke-linecap="round" stroke-linejoin="round" transform="matrix(0.833333 0 -0 0.833333 485.03 139.865)" />
	<g transform="matrix(1 0 -0 1 455.008 131.86)">
		<svg width="189.09787" height="50.9999924">
			<defs />
			<path d="M 6.37279 4.19457 L 6.37279 5.51886, 10.2917 5.51886, 10.2917 4.19457 Z M 7.08532 0.682302 L 7.20407 0.509567 C 7.99577 0.858635, 8.47079 1.12853, 8.62913 1.31926, 8.78747 1.51359, 8.86664 1.66473, 8.86664 1.77629, 8.86664 2.0102, 8.74788 2.24051, 8.51037 2.46722 L 11.4181 2.46722, 12.1306 1.77629, 13.1994 2.81269, 5.77901 2.81269 C 5.26441 2.81629, 4.78939 2.87387, 4.35395 2.98543 L 3.81776 2.46722, 8.09293 2.46722 C 8.05695 1.93463, 7.71867 1.33725, 7.08532 0.682302 Z M 5.5415 6.49769 C 5.58109 6.19541, 5.59908 5.70599, 5.59908 5.03305, 5.59908 4.3637, 5.58109 3.81311, 5.5415 3.38847 L 6.37279 3.8491, 10.2305 3.8491, 10.648 3.3309, 11.4792 4.02183, 11.0618 4.30972, 11.0618 5.00066 C 11.0618 5.31014, 11.0834 5.6772, 11.123 6.09465 L 10.2917 6.44011, 10.2917 5.86433, 6.37279 5.86433, 6.37279 6.26738 Z M 11.598 8.51293 L 12.1306 7.47652, 4.41153 7.47652 C 4.45472 7.67085, 4.47271 7.84358, 4.47271 7.99472, 4.47271 8.18905, 4.44392 8.38337, 4.38274 8.5741, 4.32517 8.76843, 4.11644 8.86199, 3.76018 8.86199, 3.40392 8.86199, 3.22398 8.80441, 3.22398 8.68566, 3.22398 8.5741, 3.30315 8.41936, 3.46149 8.22503, 3.77817 7.84358, 3.99769 7.30738, 4.11644 6.61285 L 4.35395 6.61285, 4.41153 7.13105, 12.073 7.13105, 12.548 6.61285, 13.4981 7.5341 C 12.8647 7.57728, 12.2925 7.94074, 11.7743 8.62808 Z M 6.13528 12.601 C 7.04573 12.7557, 7.62871 12.8133, 7.88781 12.7737, 8.14691 12.7377, 8.25487 12.529, 8.21169 12.1403 L 8.21169 9.3766, 6.6103 9.3766 C 6.09569 9.3802, 5.62067 9.43777, 5.18524 9.54933 L 4.64904 9.03113, 10.4105 9.03113, 11.123 8.34019, 12.1918 9.3766, 8.98539 9.3766, 8.98539 12.4858 C 9.02498 13.2559, 8.58954 13.7525, 7.67909 13.9828, 7.71867 13.5618, 7.20407 13.1768, 6.13528 12.8313 Z M 2.51145 4.94308 L 2.51145 13.5798, 1.68017 13.9828 C 1.72335 13.0256, 1.74135 12.2987, 1.74135 11.7949 L 1.74135 5.40371 C 1.18716 6.28897, 0.593384 7.05908, -0.0399756 7.70683 L -0.219907 7.59168 C 0.650962 6.25298, 1.3347 4.87111, 1.83131 3.44965, 2.32792 2.03179, 2.61222 1.07095, 2.69139 0.567145 L 3.93651 1.2005, 3.46149 1.4884 C 2.95049 2.68314, 2.55464 3.60439, 2.27394 4.25214 L 2.98647 4.59761 Z" stroke="none" fill="#000000" />
			<path d="M 19.1857 8.10988 C 19.1857 11.1075, 19.2073 12.8889, 19.2469 13.4646 L 18.3545 13.8677 C 18.3976 13.3315, 18.4156 12.6981, 18.4156 11.9676 L 15.4468 11.9676 C 14.9322 11.9712, 14.4571 12.0288, 14.0217 12.1403 L 13.4855 11.6221, 18.4156 11.6221, 18.4156 10.2978, 16.5731 10.2978 C 16.0621 10.3014, 15.5871 10.359, 15.1481 10.4706 L 14.6155 9.95238, 18.4156 9.95238, 18.4156 8.74324, 15.9794 8.74324 C 15.4684 8.74684, 14.9933 8.80441, 14.5543 8.91597 L 14.0217 8.39777, 18.4156 8.39777 C 18.4156 8.17106, 18.3976 7.786, 18.3545 7.24621 L 19.6032 7.76441 Z M 22.0359 11.91 C 22.0359 12.6406, 22.0575 13.1768, 22.097 13.5222 L 21.2046 13.9253 C 21.2478 13.0436, 21.2658 11.9352, 21.2658 10.5893, 21.2658 9.24705, 21.2478 8.11348, 21.2046 7.18863 L 22.4533 7.76441, 22.0359 8.0523, 22.0359 8.39777, 25.0047 8.39777, 25.7784 7.70683, 26.7861 8.74324, 22.0359 8.74324, 22.0359 9.95238, 24.6485 9.95238, 25.3034 9.31902, 26.2535 10.2978, 22.0359 10.2978, 22.0359 11.5646, 25.5985 11.5646, 26.311 10.8736, 27.3223 11.91 Z M 20.017 2.12175 C 20.017 1.66473, 19.999 1.12853, 19.9595 0.509567 L 21.2658 1.02777, 20.7907 1.43082, 20.7907 2.12175, 23.3422 2.12175, 24.0547 1.43082, 25.0659 2.46722, 20.7907 2.46722, 20.7907 3.67636, 25.361 3.67636, 26.1923 2.87027, 27.3223 4.02183, 15.5043 4.02183 C 14.9933 4.02543, 14.5183 4.08301, 14.0793 4.19457 L 13.5467 3.67636, 20.017 3.67636, 20.017 2.46722, 16.8718 2.46722 C 16.5156 2.85588, 16.1593 3.20134, 15.803 3.50363 L 15.6231 3.38847 C 16.2565 2.47082, 16.7135 1.54957, 16.9906 0.624723 L 17.9406 1.31566 C 17.7031 1.35884, 17.408 1.62514, 17.0482 2.12175 Z M 24.2922 5.46129 C 24.2922 6.00108, 24.3138 6.54087, 24.3534 7.07347 L 23.5221 7.41894, 23.5221 6.84316, 17.2857 6.84316, 17.2857 7.30379, 16.4544 7.5341 C 16.4976 7.03749, 16.5156 6.58046, 16.5156 6.15582, 16.5156 5.73478, 16.4976 5.17699, 16.4544 4.48246 L 17.2857 4.94308, 23.4033 4.94308, 23.8784 4.42488, 24.7672 5.1734 Z M 17.2857 5.28855 L 17.2857 6.49769, 23.5221 6.49769, 23.5221 5.28855 Z" stroke="none" fill="#000000" />
			<path d="M 28.0901 15.1449 C 28.059 15.2324, 28.0005 15.2954, 27.9151 15.3346, 27.8611 15.3567, 27.8116 15.3673, 27.7666 15.3673, 27.7355 15.3673, 27.6971 15.3632, 27.6521 15.3543, 27.4906 15.2978, 27.4096 15.1997, 27.4096 15.0598, 27.4096 15.0165, 27.4211 14.9682, 27.4432 14.9159 L 32.2216 2.05894 C 32.2531 1.97225, 32.3136 1.90436, 32.4035 1.85611, 32.453 1.84343, 32.498 1.83689, 32.5381 1.83648, 32.57 1.83689, 32.6105 1.84139, 32.6595 1.84957, 32.8215 1.90682, 32.9 2.00496, 32.8955 2.144, 32.8955 2.18816, 32.8845 2.23601, 32.8616 2.28794 Z" stroke="none" fill="#000000" />
			<path d="M 38.0253 2.23691 L 38.0253 4.77035, 39.8678 4.77035, 39.8678 2.23691 Z M 38.6802 7.47652 L 38.6802 10.2978, 40.1629 10.2978, 40.1629 7.47652 Z M 41.4692 3.44605 L 41.5879 3.3309 C 42.027 3.64038, 42.3724 3.91027, 42.6279 4.14059, 42.887 4.3709, 43.013 4.60121, 43.013 4.83152, 43.013 5.06184, 42.9338 5.23457, 42.7755 5.34973, 42.6171 5.46488, 42.52 5.52246, 42.4804 5.51886, 42.322 5.52246, 42.2249 5.34973, 42.1817 5.00066, 42.1025 4.54363, 41.865 4.02543, 41.4692 3.44605 Z M 42.4192 0.682302 L 42.538 0.509567 C 43.4088 0.973791, 43.8766 1.29047, 43.9342 1.4632, 43.9954 1.63594, 44.0242 1.7403, 44.0242 1.77629, 44.0242 2.0102, 43.8659 2.24051, 43.5492 2.46722 L 44.8555 2.46722, 45.4492 1.89144, 46.3381 2.81269, 42.6567 2.81269 C 42.2249 2.81629, 41.7894 2.87387, 41.3504 2.98543 L 40.8178 2.46722, 43.2505 2.46722 C 43.1713 2.0102, 43.0526 1.63594, 42.8942 1.34805, 42.7359 1.06016, 42.5775 0.840641, 42.4192 0.682302 Z M 36.0676 10.2403 C 36.4635 9.39819, 36.7729 8.49853, 36.9889 7.5377, 37.2048 6.58046, 37.3127 5.53326, 37.3127 4.39969, 37.3127 3.26972, 37.2948 2.2585, 37.2552 1.37324 L 38.0253 1.89144, 39.749 1.89144, 40.224 1.37324, 41.1129 2.12175, 40.5803 2.40965 C 40.5803 3.79512, 40.6199 4.73436, 40.6991 5.23097 L 39.8678 5.57644, 39.8678 5.11582, 38.0253 5.11582 C 37.9893 5.61963, 37.9281 6.13783, 37.8489 6.67043 L 38.6802 7.13105, 40.1053 7.13105, 40.5191 6.67043, 41.2928 7.30379, 40.8754 7.59168 C 40.8754 9.16788, 40.897 10.3014, 40.9366 10.9888 L 40.1629 11.3918, 40.1629 10.6433, 38.6802 10.6433, 38.6802 11.1615, 37.9065 11.4494 C 37.9497 10.7621, 37.9677 9.66809, 37.9677 8.16746, 37.9677 7.44053, 37.9281 6.94392, 37.8489 6.67043, 37.6906 7.90116, 37.1976 9.1103, 36.3627 10.2978 Z M 43.0742 12.0252 C 43.1137 10.8017, 43.1317 9.68608, 43.1317 8.68566 L 42.6567 8.68566 C 42.34 8.68926, 41.9658 8.74684, 41.5303 8.85839 L 40.9941 8.34019, 43.1317 8.34019, 43.1317 6.2098, 42.3004 6.2098 C 41.9838 6.2134, 41.6095 6.27098, 41.1741 6.38254 L 40.6379 5.86433, 43.5492 5.86433 C 44.0638 4.48606, 44.3409 3.56481, 44.3805 3.10058 L 45.5068 3.73394, 45.0318 4.02183 C 44.7943 4.3709, 44.3984 4.98627, 43.8443 5.86433 L 44.9742 5.86433, 45.6256 5.23097, 46.5756 6.2098, 43.8443 6.2098, 43.8443 8.34019, 44.9131 8.34019, 45.5068 7.76441, 46.3993 8.68566, 43.8443 8.68566 C 43.8443 10.1863, 43.8659 11.1831, 43.9054 11.6797 Z M 33.8113 1.14293 L 33.93 0.970192 C 34.6426 1.31926, 35.168 1.63594, 35.5026 1.92383, 35.8409 2.21172, 35.9776 2.49241, 35.9201 2.75871, 35.8625 3.02861, 35.7725 3.20134, 35.6538 3.27692, 35.535 3.35609, 35.4343 3.39207, 35.3551 3.38847, 35.1967 3.39207, 35.06 3.17975, 34.9376 2.75511, 34.7433 2.22252, 34.3655 1.68272, 33.8113 1.14293 Z M 35.6502 10.7009 C 36.01 11.0895, 36.5138 11.4818, 37.1652 11.8848, 37.8202 12.2879, 39.0149 12.529, 40.7566 12.601, 42.4984 12.6801, 44.4596 12.601, 46.6368 12.3707 L 46.6368 12.601 C 45.9243 12.6801, 45.4888 12.986, 45.3305 13.5222, 43.3908 13.4862, 41.865 13.4467, 40.7566 13.4071, 39.6483 13.3711, 38.7198 13.2055, 37.9677 12.9177, 37.2156 12.6298, 36.6218 12.2591, 36.1864 11.7949, 35.7509 11.3379, 35.4523 11.0788, 35.2939 11.0212, 35.1356 10.9636, 34.8909 11.1183, 34.5526 11.4818, 34.2179 11.8489, 33.8725 12.2591, 33.5126 12.7161 L 32.7425 11.9676 C 33.4154 11.5862, 34.128 11.1651, 34.8801 10.7009 L 34.8801 5.97949, 34.4626 5.97949 C 33.9516 5.98309, 33.4766 6.04067, 33.0376 6.15222 L 32.505 5.63402, 34.7613 5.63402, 35.4127 5.00066, 36.2439 5.80675, 35.6502 6.26738 Z" stroke="none" fill="#000000" />
			<path d="M 52.9146 6.55527 L 52.9146 7.82199, 57.8447 7.82199, 57.8447 6.55527 Z M 52.9146 8.16746 L 52.9146 9.3766, 57.8447 9.3766, 57.8447 8.16746 Z M 52.0833 5.74918 L 52.9146 6.2098, 57.7835 6.2098, 58.201 5.6916, 59.0898 6.44011, 58.6148 6.78558 C 58.6148 8.28621, 58.6364 9.3622, 58.676 10.01 L 57.8447 10.2978, 57.8447 9.72207, 55.6459 9.72207, 55.6459 11.0464, 58.4961 11.0464, 59.2698 10.2978, 60.2774 11.3918, 55.6459 11.3918 C 55.6459 12.5074, 55.6675 13.2739, 55.7071 13.695 L 54.8147 14.0404 C 54.8578 13.2343, 54.8758 12.3563, 54.8758 11.3918 L 52.382 11.3918 C 51.8674 11.3954, 51.3924 11.453, 50.9569 11.5646 L 50.4207 11.0464, 54.8758 11.0464, 54.8758 9.72207, 52.9146 9.72207, 52.9146 10.01, 52.0833 10.2978 C 52.1265 9.57092, 52.1445 8.78642, 52.1445 7.94074, 52.1445 7.09866, 52.1265 6.36814, 52.0833 5.74918 Z M 51.6083 2.35207 L 54.9334 2.35207 C 54.8974 1.81947, 54.6383 1.24369, 54.1633 0.624723 L 54.2821 0.509567 C 54.955 0.81905, 55.3617 1.07095, 55.4984 1.26168, 55.6387 1.45601, 55.7071 1.60715, 55.7071 1.71871, 55.7071 1.95262, 55.5884 2.16494, 55.3509 2.35207 L 57.4884 2.35207, 58.1398 1.71871, 59.151 2.69754, 53.5695 2.69754 C 53.0549 2.70113, 52.5799 2.75871, 52.1445 2.87027 Z M 52.9146 2.92785 L 53.0333 2.81269 C 53.5875 3.12217, 53.9654 3.39207, 54.1633 3.62238, 54.3612 3.8527, 54.4584 4.04342, 54.4584 4.19457, 54.4584 4.31332, 54.3792 4.45727, 54.2209 4.63, 54.0625 4.80274, 53.9438 4.8891, 53.8646 4.8855, 53.7495 4.8891, 53.6703 4.71637, 53.6271 4.3673, 53.512 3.87069, 53.2744 3.39207, 52.9146 2.92785 Z M 56.7759 2.63996 L 57.7835 3.3309 C 57.4669 3.48923, 57.1826 3.70875, 56.9235 3.99664, 56.668 4.28453, 56.4017 4.60121, 56.121 4.94308 L 58.4385 4.94308, 59.2086 4.25214, 60.2198 5.28855, 52.5007 5.28855 C 51.9861 5.29215, 51.5111 5.34973, 51.0757 5.46129 L 50.5395 4.94308, 55.8259 4.94308 C 56.3405 3.8347, 56.6572 3.0646, 56.7759 2.63996 Z M 49.1756 5.46129 C 49.809 6.04067, 50.284 6.62724, 50.6007 7.22102, 50.9173 7.81839, 51.0469 8.36538, 50.9857 8.86199, 50.9281 9.3622, 50.7698 9.76525, 50.5107 10.0711, 50.2552 10.3806, 49.8306 10.5893, 49.2332 10.7009, 49.1972 10.2439, 48.8193 9.8984, 48.1068 9.66449 L 48.1068 9.43418 C 48.7006 9.55293, 49.1648 9.60331, 49.5031 9.58172, 49.8414 9.56373, 50.0465 9.27584, 50.1256 8.71805, 50.2048 8.16386, 50.1256 7.62406, 49.8881 7.10586, 49.6506 6.58766, 49.316 6.04067, 48.8769 5.46129 L 49.7082 2.06418, 47.9269 2.06418, 47.9269 13.5798, 47.0956 13.9253 C 47.1388 12.1619, 47.1568 10.0531, 47.1568 7.59527, 47.1568 5.14101, 47.1388 3.02861, 47.0956 1.25808 L 47.9269 1.71871, 49.7082 1.71871, 50.1832 1.2005, 51.0757 2.0066, 50.5395 2.29449 Z" stroke="none" fill="#000000" />
			<rect />
		</svg>
	</g>
	<path d="M 0 0 L 47.1759 0" fill="none" stroke="#000000" stroke-width="1.20000005" stroke-linecap="round" stroke-linejoin="round" marker-end="url(#CustomMarker-04)" transform="matrix(0.833333 0 0 0.833333 396.373 139.865)" />
	<path d="M 0 0 L 0 -84.7618, -106.388 -84.7618" fill="none" stroke="#000000" stroke-width="1.20000005" stroke-linecap="round" stroke-linejoin="round" marker-end="url(#CustomMarker-05)" transform="matrix(0.833333 0 0 0.833333 485.03 109.5)" />
	<g transform="matrix(1 0 -0 1 405.959 67.8598)">
		<svg width="90.0011215" height="45.0363579">
			<defs />
			<path d="M 5.36157 4.30972 L 5.36157 6.03707, 7.97418 6.03707, 7.97418 4.30972 Z M 8.74788 4.30972 L 8.74788 6.03707, 11.5368 6.03707, 11.5368 4.30972 Z M 5.36157 6.38254 L 5.36157 8.10988, 7.97418 8.10988, 7.97418 6.38254 Z M 8.74788 6.38254 L 8.74788 8.10988, 11.5368 8.10988, 11.5368 6.38254 Z M 9.63675 10.6433 C 10.2701 10.6865, 10.7451 10.7045, 11.0618 10.7045, 11.3785 10.7045, 11.5368 10.5498, 11.5368 10.2403 L 11.5368 8.45535, 8.74788 8.45535, 8.74788 11.0464, 7.97418 11.3918, 7.97418 8.45535, 5.36157 8.45535, 5.36157 11.2191, 4.53029 11.5646 C 4.57347 10.5318, 4.59146 9.13189, 4.59146 7.36496, 4.59146 5.60163, 4.57347 4.27374, 4.53029 3.38847 L 5.5415 3.96425, 8.09293 3.96425 C 8.01376 3.35249, 7.56034 2.81629, 6.72905 2.35207 L 6.84781 2.17933 C 7.52075 2.29809, 8.1721 2.54639, 8.80546 2.92785 L 10.5868 1.54597, 6.6103 1.54597 C 6.05611 1.54957, 5.56309 1.60715, 5.12406 1.71871 L 4.59146 1.2005, 10.648 1.2005, 11.1806 0.682302, 12.2494 1.77629 C 11.616 1.7403, 10.5292 2.18293, 8.98539 3.10058, 9.02498 3.17975, 9.04297 3.29491, 9.04297 3.44605, 9.04297 3.64038, 8.94581 3.81311, 8.74788 3.96425 L 11.4181 3.96425, 11.8355 3.38847, 12.7244 4.02183, 12.3105 4.42488, 12.3105 10.5282 C 12.3501 11.1831, 11.9723 11.6437, 11.1806 11.91, 11.1446 11.3774, 10.63 11.032, 9.63675 10.8736 Z M 0.848887 1.31566 L 0.967641 1.2005 C 1.52183 1.474, 1.96806 1.7439, 2.30633 2.0102, 2.6446 2.28009, 2.81014 2.54999, 2.81014 2.81629, 2.81014 3.08619, 2.73097 3.3057, 2.57263 3.47844, 2.41429 3.65117, 2.29554 3.73754, 2.21637 3.73394, 2.05803 3.73754, 1.93927 3.56481, 1.8601 3.21574, 1.74135 2.71913, 1.40308 2.08577, 0.848887 1.31566 Z M 2.86772 10.7009 C 3.26357 11.1651, 3.78897 11.561, 4.44392 11.8848, 5.09887 12.2123, 6.27562 12.403, 7.97778 12.4606, 9.67993 12.5182, 11.598 12.4318, 13.7356 12.1979 L 13.7356 12.4282 C 12.9439 12.6226, 12.5696 12.968, 12.6056 13.4646, 10.7487 13.4646, 9.2337 13.4287, 8.06414 13.3495, 6.89819 13.2739, 5.94815 13.112, 5.21403 12.8601, 4.4835 12.6118, 3.90053 12.2591, 3.46149 11.7949, 2.98647 11.3379, 2.6518 11.1183, 2.45388 11.1363, 2.25595 11.1579, 1.95007 11.3882, 1.53263 11.8273, 1.11878 12.2699, 0.8129 12.6801, 0.611377 13.0616 L -0.277485 12.3131 C 0.316289 11.7409, 1.10799 11.2407, 2.09761 10.8161 L 2.09761 5.97949, 1.68017 5.97949 C 1.16916 5.98309, 0.694145 6.04067, 0.255112 6.15222 L -0.277485 5.63402, 2.03644 5.63402, 2.3927 5.05824, 3.34274 5.74918, 2.86772 6.15222 Z" stroke="none" fill="#000000" />
			<path d="M 15.0257 1.2005 L 15.1444 1.08535 C 15.7418 1.39483, 16.2168 1.70431, 16.5731 2.0102, 16.9293 2.31968, 17.0661 2.61477, 16.9869 2.90266, 16.9077 3.19055, 16.789 3.39207, 16.6307 3.50723, 16.4723 3.62238, 16.3752 3.67996, 16.332 3.67636, 16.2168 3.67996, 16.1161 3.48923, 16.0369 3.10058, 15.9181 2.60397, 15.5799 1.97061, 15.0257 1.2005 Z M 16.807 11.2191 L 18.9446 9.26144, 19.0633 9.3766 C 18.5091 10.1467, 17.9945 10.8196, 17.5195 11.3918, 17.0445 12.0108, 16.7278 12.5074, 16.5695 12.8889 L 15.6806 11.9676 C 15.8785 11.7409, 15.9757 11.4134, 15.9757 10.9888 L 15.9757 6.03707, 15.2632 6.03707 C 14.9465 6.04067, 14.5722 6.09824, 14.1368 6.2098 L 13.6006 5.6916, 15.9757 5.6916, 16.4507 5.1734, 17.4008 5.92191, 16.807 6.38254 Z M 25.0011 2.58238 L 25.0011 5.57644 C 24.9219 8.87999, 25.3393 10.9348, 26.2498 11.7373 L 26.8436 9.08871, 27.0199 9.14629 C 26.9407 10.377, 26.9119 11.2335, 26.9335 11.7121, 26.9551 12.1943, 27.0415 12.6406, 27.1998 13.0616, 27.279 13.2919, 27.2394 13.4071, 27.0811 13.4071, 26.9623 13.4071, 26.6349 13.2559, 26.1023 12.9464, 25.5697 12.6406, 25.1342 12.0108, 24.796 11.05, 24.4577 10.0927, 24.249 8.55611, 24.1698 6.44011 L 24.1698 2.35207, 19.7759 2.35207 C 19.344 2.35567, 18.9086 2.41324, 18.4696 2.5248 L 17.937 2.0066, 24.1122 2.0066, 24.5872 1.43082, 25.5373 2.17933 Z M 21.2621 7.13105 C 21.2621 10.0136, 21.2837 11.9712, 21.3197 13.004 L 20.4308 13.4071 C 20.4704 11.7589, 20.4884 9.66809, 20.4884 7.13105 L 19.7183 7.13105 C 19.2037 7.13465, 18.7287 7.19223, 18.2932 7.30379 L 17.757 6.78558, 20.4884 6.78558 C 20.4884 4.79194, 20.4704 3.48923, 20.4308 2.87027 L 21.7947 3.44605, 21.2621 3.8491, 21.2621 6.78558, 22.2697 6.78558, 22.9822 6.09465, 23.9935 7.13105 Z" stroke="none" fill="#000000" />
			<rect />
		</svg>
	</g>
</svg>
