<?xml version="1.0" encoding="UTF-8" standalone="yes"?>
<svg xmlns="http://www.w3.org/2000/svg" xmlns:xlink="http://www.w3.org/1999/xlink" width="740.077758789pt" height="841.679992676pt">
 <g id="SFixTitle" />
 <g id="SContent">
  <g transform="scale(1.33333)">
   <rect width="100%" height="100%" fill="white" />
   <g>
    <g>
     <g />
     <g shape-rendering="crispEdges" />
     <g />
    </g>
    <g>
     <g />
    </g>
    <g>
     <g />
    </g>
   </g>
   <g transform="matrix(1,0,0,1,50.400001526,54)">
    <defs>
     <clipPath id="CLIP0">
      <path d="M-0.5,-0.5 L640.5,-0.5 L640.5,255.5 L-0.5,255.5 Z " />
     </clipPath>
    </defs>
    <g clip-path="url(#CLIP0)">
     <g />
     <g shape-rendering="crispEdges">
      <g>
       <path d="M0,0 L106.546295166,0 L106.546295166,12.135623932 L0,12.135623932 Z " fill="#D3D3D3" />
      </g>
      <g>
       <path d="M106.546295166,0 L213.092590332,0 L213.092590332,12.135623932 L106.546295166,12.135623932 Z " fill="#D3D3D3" />
      </g>
      <g>
       <path d="M213.092590332,0 L319.638885498,0 L319.638885498,12.135623932 L213.092590332,12.135623932 Z " fill="#D3D3D3" />
      </g>
      <g>
       <path d="M319.638885498,0 L426.185180664,0 L426.185180664,12.135623932 L319.638885498,12.135623932 Z " fill="#D3D3D3" />
      </g>
      <g>
       <path d="M426.185180664,0 L532.731445313,0 L532.731445313,12.135623932 L426.185180664,12.135623932 Z " fill="#D3D3D3" />
      </g>
      <g>
       <path d="M532.731506348,0 L639.277832031,0 L639.277832031,12.135623932 L532.731506348,12.135623932 Z " fill="#D3D3D3" />
      </g>
      <g>
       <path d="M106.546295166,12.135623932 L213.092590332,12.135623932 L213.092590332,24.271247864 L106.546295166,24.271247864 Z " fill="#FFFF00" />
      </g>
      <g>
       <path d="M106.546295166,24.271247864 L213.092590332,24.271247864 L213.092590332,36.406871796 L106.546295166,36.406871796 Z " fill="#FFFF00" />
      </g>
      <g>
       <path d="M106.546295166,36.406871796 L213.092590332,36.406871796 L213.092590332,48.542495728 L106.546295166,48.542495728 Z " fill="#FFFF00" />
      </g>
      <g>
       <path d="M106.546295166,48.542495728 L213.092590332,48.542495728 L213.092590332,60.678119659 L106.546295166,60.678119659 Z " fill="#FFFF00" />
      </g>
      <g>
       <path d="M106.546295166,60.678119659 L213.092590332,60.678119659 L213.092590332,72.813743591 L106.546295166,72.813743591 Z " fill="#FFFF00" />
      </g>
      <g>
       <path d="M106.546295166,72.813743591 L213.092590332,72.813743591 L213.092590332,84.949371338 L106.546295166,84.949371338 Z " fill="#FFFF00" />
      </g>
      <g>
       <path d="M106.546295166,84.949371338 L213.092590332,84.949371338 L213.092590332,97.084991455 L106.546295166,97.084991455 Z " fill="#FFFF00" />
      </g>
      <g>
       <path d="M106.546295166,97.084991455 L213.092590332,97.084991455 L213.092590332,109.220611572 L106.546295166,109.220611572 Z " fill="#FFFF00" />
      </g>
      <g>
       <path d="M106.546295166,109.220611572 L213.092590332,109.220611572 L213.092590332,121.356231689 L106.546295166,121.356231689 Z " fill="#FFFF00" />
      </g>
      <g>
       <path d="M106.546295166,121.356239319 L213.092590332,121.356239319 L213.092590332,133.491867065 L106.546295166,133.491867065 Z " fill="#FFFF00" />
      </g>
      <g>
       <path d="M106.546295166,133.491867065 L213.092590332,133.491867065 L213.092590332,145.627487183 L106.546295166,145.627487183 Z " fill="#FFFF00" />
      </g>
      <g>
       <path d="M106.546295166,145.627487183 L213.092590332,145.627487183 L213.092590332,157.7631073 L106.546295166,157.7631073 Z " fill="#FFFF00" />
      </g>
      <g>
       <path d="M106.546295166,157.7631073 L213.092590332,157.7631073 L213.092590332,169.898727417 L106.546295166,169.898727417 Z " fill="#FFFF00" />
      </g>
      <g>
       <path d="M106.546295166,169.898742676 L213.092590332,169.898742676 L213.092590332,182.034362793 L106.546295166,182.034362793 Z " fill="#FFFF00" />
      </g>
      <g>
       <path d="M106.546295166,182.034362793 L213.092590332,182.034362793 L213.092590332,194.16998291 L106.546295166,194.16998291 Z " fill="#FFFF00" />
      </g>
      <g>
       <path d="M106.546295166,194.16998291 L213.092590332,194.16998291 L213.092590332,206.305603027 L106.546295166,206.305603027 Z " fill="#FFFF00" />
      </g>
      <g>
       <path d="M106.546295166,206.305603027 L213.092590332,206.305603027 L213.092590332,218.441223145 L106.546295166,218.441223145 Z " fill="#FFFF00" />
      </g>
      <g>
       <path d="M106.546295166,218.441223145 L213.092590332,218.441223145 L213.092590332,230.576843262 L106.546295166,230.576843262 Z " fill="#FFFF00" />
      </g>
      <g>
       <path d="M106.546295166,230.576858521 L213.092590332,230.576858521 L213.092590332,242.712478638 L106.546295166,242.712478638 Z " fill="#FFFF00" />
      </g>
      <g>
       <path d="M106.546295166,242.712478638 L213.092590332,242.712478638 L213.092590332,254.848098755 L106.546295166,254.848098755 Z " fill="#FFFF00" />
      </g>
     </g>
     <g />
    </g>
    <defs>
     <clipPath id="CLIP1">
      <path d="M-0.5,-1.314327478 L640.5,-1.314327478 L640.5,256.685668945 L-0.5,256.685668945 Z " />
     </clipPath>
    </defs>
    <g clip-path="url(#CLIP1)">
     <g>
      <g />
      <path d="M 0,0 L 106.546295166,0" class="p0" fill="none" />
      <path d="M 0,0 L 0,12.135623932" class="p0" fill="none" />
      <path d="M 106.546295166,0 L 213.092590332,0" class="p0" fill="none" />
      <path d="M 106.54599762,0 L 106.54599762,12.135623932" class="p0" fill="none" />
      <path d="M 213.092590332,0 L 319.638885498,0" class="p0" fill="none" />
      <path d="M 213.093002319,0 L 213.093002319,12.135623932" class="p0" fill="none" />
      <path d="M 319.638885498,0 L 426.185180664,0" class="p0" fill="none" />
      <path d="M 319.639007568,0 L 319.639007568,12.135623932" class="p0" fill="none" />
      <path d="M 426.185180664,0 L 532.731445313,0" class="p0" fill="none" />
      <path d="M 426.184997559,0 L 426.184997559,12.135623932" class="p0" fill="none" />
      <path d="M 532.731506348,0 L 639.277832031,0" class="p0" fill="none" />
      <path d="M 532.731018066,0 L 532.731018066,12.135623932" class="p0" fill="none" />
      <path d="M 639.278015137,0 L 639.278015137,12.135623932" class="p0" fill="none" />
      <path d="M 0,12.13599968 L 106.546295166,12.13599968" class="p0" fill="none" />
      <path d="M 0,12.135623932 L 0,24.271247864" class="p0" fill="none" />
      <path d="M 106.546295166,12.13599968 L 213.092590332,12.13599968" class="p0" fill="none" />
      <path d="M 106.54599762,12.135623932 L 106.54599762,24.271247864" class="p0" fill="none" />
      <path d="M 213.092590332,12.13599968 L 319.638885498,12.13599968" class="p0" fill="none" />
      <path d="M 213.093002319,12.135623932 L 213.093002319,24.271247864" class="p0" fill="none" />
      <path d="M 319.638885498,12.13599968 L 426.185180664,12.13599968" class="p0" fill="none" />
      <path d="M 319.639007568,12.135623932 L 319.639007568,24.271247864" class="p0" fill="none" />
      <path d="M 426.185180664,12.13599968 L 532.731445313,12.13599968" class="p0" fill="none" />
      <path d="M 426.184997559,12.135623932 L 426.184997559,24.271247864" class="p0" fill="none" />
      <path d="M 532.731506348,12.13599968 L 639.277832031,12.13599968" class="p0" fill="none" />
      <path d="M 532.731018066,12.135623932 L 532.731018066,24.271247864" class="p0" fill="none" />
      <path d="M 639.278015137,12.135623932 L 639.278015137,24.271247864" class="p0" fill="none" />
      <path d="M 0,24.270999908 L 106.546295166,24.270999908" class="p0" fill="none" />
      <path d="M 0,24.271247864 L 0,36.406871796" class="p0" fill="none" />
      <path d="M 106.546295166,24.270999908 L 213.092590332,24.270999908" class="p0" fill="none" />
      <path d="M 106.54599762,24.271247864 L 106.54599762,36.406871796" class="p0" fill="none" />
      <path d="M 213.092590332,24.270999908 L 319.638885498,24.270999908" class="p0" fill="none" />
      <path d="M 213.093002319,24.271247864 L 213.093002319,36.406871796" class="p0" fill="none" />
      <path d="M 319.638885498,24.270999908 L 426.185180664,24.270999908" class="p0" fill="none" />
      <path d="M 319.639007568,24.271247864 L 319.639007568,36.406871796" class="p0" fill="none" />
      <path d="M 426.185180664,24.270999908 L 532.731445313,24.270999908" class="p0" fill="none" />
      <path d="M 426.184997559,24.271247864 L 426.184997559,36.406871796" class="p0" fill="none" />
      <path d="M 532.731506348,24.270999908 L 639.277832031,24.270999908" class="p0" fill="none" />
      <path d="M 532.731018066,24.271247864 L 532.731018066,36.406871796" class="p0" fill="none" />
      <path d="M 639.278015137,24.271247864 L 639.278015137,36.406871796" class="p0" fill="none" />
      <path d="M 0,36.407001495 L 106.546295166,36.407001495" class="p0" fill="none" />
      <path d="M 0,36.406871796 L 0,48.542495728" class="p0" fill="none" />
      <path d="M 106.546295166,36.407001495 L 213.092590332,36.407001495" class="p0" fill="none" />
      <path d="M 106.54599762,36.406871796 L 106.54599762,48.542495728" class="p0" fill="none" />
      <path d="M 213.092590332,36.407001495 L 319.638885498,36.407001495" class="p0" fill="none" />
      <path d="M 213.093002319,36.406871796 L 213.093002319,48.542495728" class="p0" fill="none" />
      <path d="M 319.638885498,36.407001495 L 426.185180664,36.407001495" class="p0" fill="none" />
      <path d="M 319.639007568,36.406871796 L 319.639007568,48.542495728" class="p0" fill="none" />
      <path d="M 426.185180664,36.407001495 L 532.731445313,36.407001495" class="p0" fill="none" />
      <path d="M 426.184997559,36.406871796 L 426.184997559,48.542495728" class="p0" fill="none" />
      <path d="M 532.731506348,36.407001495 L 639.277832031,36.407001495" class="p0" fill="none" />
      <path d="M 532.731018066,36.406871796 L 532.731018066,48.542495728" class="p0" fill="none" />
      <path d="M 639.278015137,36.406871796 L 639.278015137,48.542495728" class="p0" fill="none" />
      <path d="M 0,48.541999817 L 106.546295166,48.541999817" class="p0" fill="none" />
      <path d="M 0,48.542495728 L 0,60.678119659" class="p0" fill="none" />
      <path d="M 106.546295166,48.541999817 L 213.092590332,48.541999817" class="p0" fill="none" />
      <path d="M 106.54599762,48.542495728 L 106.54599762,60.678119659" class="p0" fill="none" />
      <path d="M 213.092590332,48.541999817 L 319.638885498,48.541999817" class="p0" fill="none" />
      <path d="M 213.093002319,48.542495728 L 213.093002319,60.678119659" class="p0" fill="none" />
      <path d="M 319.638885498,48.541999817 L 426.185180664,48.541999817" class="p0" fill="none" />
      <path d="M 319.639007568,48.542495728 L 319.639007568,60.678119659" class="p0" fill="none" />
      <path d="M 426.185180664,48.541999817 L 532.731445313,48.541999817" class="p0" fill="none" />
      <path d="M 426.184997559,48.542495728 L 426.184997559,60.678119659" class="p0" fill="none" />
      <path d="M 532.731506348,48.541999817 L 639.277832031,48.541999817" class="p0" fill="none" />
      <path d="M 532.731018066,48.542495728 L 532.731018066,60.678119659" class="p0" fill="none" />
      <path d="M 639.278015137,48.542495728 L 639.278015137,60.678119659" class="p0" fill="none" />
      <path d="M 0,60.678001404 L 106.546295166,60.678001404" class="p0" fill="none" />
      <path d="M 0,60.678119659 L 0,72.813743591" class="p0" fill="none" />
      <path d="M 106.546295166,60.678001404 L 213.092590332,60.678001404" class="p0" fill="none" />
      <path d="M 106.54599762,60.678119659 L 106.54599762,72.813743591" class="p0" fill="none" />
      <path d="M 213.092590332,60.678001404 L 319.638885498,60.678001404" class="p0" fill="none" />
      <path d="M 213.093002319,60.678119659 L 213.093002319,72.813743591" class="p0" fill="none" />
      <path d="M 319.638885498,60.678001404 L 426.185180664,60.678001404" class="p0" fill="none" />
      <path d="M 319.639007568,60.678119659 L 319.639007568,72.813743591" class="p0" fill="none" />
      <path d="M 426.185180664,60.678001404 L 532.731445313,60.678001404" class="p0" fill="none" />
      <path d="M 426.184997559,60.678119659 L 426.184997559,72.813743591" class="p0" fill="none" />
      <path d="M 532.731506348,60.678001404 L 639.277832031,60.678001404" class="p0" fill="none" />
      <path d="M 532.731018066,60.678119659 L 532.731018066,72.813743591" class="p0" fill="none" />
      <path d="M 639.278015137,60.678119659 L 639.278015137,72.813743591" class="p0" fill="none" />
      <path d="M 0,72.814002991 L 106.546295166,72.814002991" class="p0" fill="none" />
      <path d="M 0,72.813743591 L 0,84.949371338" class="p0" fill="none" />
      <path d="M 106.546295166,72.814002991 L 213.092590332,72.814002991" class="p0" fill="none" />
      <path d="M 106.54599762,72.813743591 L 106.54599762,84.949371338" class="p0" fill="none" />
      <path d="M 213.092590332,72.814002991 L 319.638885498,72.814002991" class="p0" fill="none" />
      <path d="M 213.093002319,72.813743591 L 213.093002319,84.949371338" class="p0" fill="none" />
      <path d="M 319.638885498,72.814002991 L 426.185180664,72.814002991" class="p0" fill="none" />
      <path d="M 319.639007568,72.813743591 L 319.639007568,84.949371338" class="p0" fill="none" />
      <path d="M 426.185180664,72.814002991 L 532.731445313,72.814002991" class="p0" fill="none" />
      <path d="M 426.184997559,72.813743591 L 426.184997559,84.949371338" class="p0" fill="none" />
      <path d="M 532.731506348,72.814002991 L 639.277832031,72.814002991" class="p0" fill="none" />
      <path d="M 532.731018066,72.813743591 L 532.731018066,84.949371338" class="p0" fill="none" />
      <path d="M 639.278015137,72.813743591 L 639.278015137,84.949371338" class="p0" fill="none" />
      <path d="M 0,84.948997498 L 106.546295166,84.948997498" class="p0" fill="none" />
      <path d="M 0,84.949371338 L 0,97.084991455" class="p0" fill="none" />
      <path d="M 106.546295166,84.948997498 L 213.092590332,84.948997498" class="p0" fill="none" />
      <path d="M 106.54599762,84.949371338 L 106.54599762,97.084991455" class="p0" fill="none" />
      <path d="M 213.092590332,84.948997498 L 319.638885498,84.948997498" class="p0" fill="none" />
      <path d="M 213.093002319,84.949371338 L 213.093002319,97.084991455" class="p0" fill="none" />
      <path d="M 319.638885498,84.948997498 L 426.185180664,84.948997498" class="p0" fill="none" />
      <path d="M 319.639007568,84.949371338 L 319.639007568,97.084991455" class="p0" fill="none" />
      <path d="M 426.185180664,84.948997498 L 532.731445313,84.948997498" class="p0" fill="none" />
      <path d="M 426.184997559,84.949371338 L 426.184997559,97.084991455" class="p0" fill="none" />
      <path d="M 532.731506348,84.948997498 L 639.277832031,84.948997498" class="p0" fill="none" />
      <path d="M 532.731018066,84.949371338 L 532.731018066,97.084991455" class="p0" fill="none" />
      <path d="M 639.278015137,84.949371338 L 639.278015137,97.084991455" class="p0" fill="none" />
      <path d="M 0,97.084999084 L 106.546295166,97.084999084" class="p0" fill="none" />
      <path d="M 0,97.084991455 L 0,109.220611572" class="p0" fill="none" />
      <path d="M 106.546295166,97.084999084 L 213.092590332,97.084999084" class="p0" fill="none" />
      <path d="M 106.54599762,97.084991455 L 106.54599762,109.220611572" class="p0" fill="none" />
      <path d="M 213.092590332,97.084999084 L 319.638885498,97.084999084" class="p0" fill="none" />
      <path d="M 213.093002319,97.084991455 L 213.093002319,109.220611572" class="p0" fill="none" />
      <path d="M 319.638885498,97.084999084 L 426.185180664,97.084999084" class="p0" fill="none" />
      <path d="M 319.639007568,97.084991455 L 319.639007568,109.220611572" class="p0" fill="none" />
      <path d="M 426.185180664,97.084999084 L 532.731445313,97.084999084" class="p0" fill="none" />
      <path d="M 426.184997559,97.084991455 L 426.184997559,109.220611572" class="p0" fill="none" />
      <path d="M 532.731506348,97.084999084 L 639.277832031,97.084999084" class="p0" fill="none" />
      <path d="M 532.731018066,97.084991455 L 532.731018066,109.220611572" class="p0" fill="none" />
      <path d="M 639.278015137,97.084991455 L 639.278015137,109.220611572" class="p0" fill="none" />
      <path d="M 0,109.221000671 L 106.546295166,109.221000671" class="p0" fill="none" />
      <path d="M 0,109.220611572 L 0,121.356231689" class="p0" fill="none" />
      <path d="M 106.546295166,109.221000671 L 213.092590332,109.221000671" class="p0" fill="none" />
      <path d="M 106.54599762,109.220611572 L 106.54599762,121.356231689" class="p0" fill="none" />
      <path d="M 213.092590332,109.221000671 L 319.638885498,109.221000671" class="p0" fill="none" />
      <path d="M 213.093002319,109.220611572 L 213.093002319,121.356231689" class="p0" fill="none" />
      <path d="M 319.638885498,109.221000671 L 426.185180664,109.221000671" class="p0" fill="none" />
      <path d="M 319.639007568,109.220611572 L 319.639007568,121.356231689" class="p0" fill="none" />
      <path d="M 426.185180664,109.221000671 L 532.731445313,109.221000671" class="p0" fill="none" />
      <path d="M 426.184997559,109.220611572 L 426.184997559,121.356231689" class="p0" fill="none" />
      <path d="M 532.731506348,109.221000671 L 639.277832031,109.221000671" class="p0" fill="none" />
      <path d="M 532.731018066,109.220611572 L 532.731018066,121.356231689" class="p0" fill="none" />
      <path d="M 639.278015137,109.220611572 L 639.278015137,121.356231689" class="p0" fill="none" />
      <path d="M 0,121.356002808 L 106.546295166,121.356002808" class="p0" fill="none" />
      <path d="M 0,121.356239319 L 0,133.491867065" class="p0" fill="none" />
      <path d="M 106.546295166,121.356002808 L 213.092590332,121.356002808" class="p0" fill="none" />
      <path d="M 106.54599762,121.356239319 L 106.54599762,133.491867065" class="p0" fill="none" />
      <path d="M 213.092590332,121.356002808 L 319.638885498,121.356002808" class="p0" fill="none" />
      <path d="M 213.093002319,121.356239319 L 213.093002319,133.491867065" class="p0" fill="none" />
      <path d="M 319.638885498,121.356002808 L 426.185180664,121.356002808" class="p0" fill="none" />
      <path d="M 319.639007568,121.356239319 L 319.639007568,133.491867065" class="p0" fill="none" />
      <path d="M 426.185180664,121.356002808 L 532.731445313,121.356002808" class="p0" fill="none" />
      <path d="M 426.184997559,121.356239319 L 426.184997559,133.491867065" class="p0" fill="none" />
      <path d="M 532.731506348,121.356002808 L 639.277832031,121.356002808" class="p0" fill="none" />
      <path d="M 532.731018066,121.356239319 L 532.731018066,133.491867065" class="p0" fill="none" />
      <path d="M 639.278015137,121.356239319 L 639.278015137,133.491867065" class="p0" fill="none" />
      <path d="M 0,133.492004395 L 106.546295166,133.492004395" class="p0" fill="none" />
      <path d="M 0,133.491867065 L 0,145.627487183" class="p0" fill="none" />
      <path d="M 106.546295166,133.492004395 L 213.092590332,133.492004395" class="p0" fill="none" />
      <path d="M 106.54599762,133.491867065 L 106.54599762,145.627487183" class="p0" fill="none" />
      <path d="M 213.092590332,133.492004395 L 319.638885498,133.492004395" class="p0" fill="none" />
      <path d="M 213.093002319,133.491867065 L 213.093002319,145.627487183" class="p0" fill="none" />
      <path d="M 319.638885498,133.492004395 L 426.185180664,133.492004395" class="p0" fill="none" />
      <path d="M 319.639007568,133.491867065 L 319.639007568,145.627487183" class="p0" fill="none" />
      <path d="M 426.185180664,133.492004395 L 532.731445313,133.492004395" class="p0" fill="none" />
      <path d="M 426.184997559,133.491867065 L 426.184997559,145.627487183" class="p0" fill="none" />
      <path d="M 532.731506348,133.492004395 L 639.277832031,133.492004395" class="p0" fill="none" />
      <path d="M 532.731018066,133.491867065 L 532.731018066,145.627487183" class="p0" fill="none" />
      <path d="M 639.278015137,133.491867065 L 639.278015137,145.627487183" class="p0" fill="none" />
      <path d="M 0,145.626998901 L 106.546295166,145.626998901" class="p0" fill="none" />
      <path d="M 0,145.627487183 L 0,157.7631073" class="p0" fill="none" />
      <path d="M 106.546295166,145.626998901 L 213.092590332,145.626998901" class="p0" fill="none" />
      <path d="M 106.54599762,145.627487183 L 106.54599762,157.7631073" class="p0" fill="none" />
      <path d="M 213.092590332,145.626998901 L 319.638885498,145.626998901" class="p0" fill="none" />
      <path d="M 213.093002319,145.627487183 L 213.093002319,157.7631073" class="p0" fill="none" />
      <path d="M 319.638885498,145.626998901 L 426.185180664,145.626998901" class="p0" fill="none" />
      <path d="M 319.639007568,145.627487183 L 319.639007568,157.7631073" class="p0" fill="none" />
      <path d="M 426.185180664,145.626998901 L 532.731445313,145.626998901" class="p0" fill="none" />
      <path d="M 426.184997559,145.627487183 L 426.184997559,157.7631073" class="p0" fill="none" />
      <path d="M 532.731506348,145.626998901 L 639.277832031,145.626998901" class="p0" fill="none" />
      <path d="M 532.731018066,145.627487183 L 532.731018066,157.7631073" class="p0" fill="none" />
      <path d="M 639.278015137,145.627487183 L 639.278015137,157.7631073" class="p0" fill="none" />
      <path d="M 0,157.763000488 L 106.546295166,157.763000488" class="p0" fill="none" />
      <path d="M 0,157.7631073 L 0,169.898727417" class="p0" fill="none" />
      <path d="M 106.546295166,157.763000488 L 213.092590332,157.763000488" class="p0" fill="none" />
      <path d="M 106.54599762,157.7631073 L 106.54599762,169.898727417" class="p0" fill="none" />
      <path d="M 213.092590332,157.763000488 L 319.638885498,157.763000488" class="p0" fill="none" />
      <path d="M 213.093002319,157.7631073 L 213.093002319,169.898727417" class="p0" fill="none" />
      <path d="M 319.638885498,157.763000488 L 426.185180664,157.763000488" class="p0" fill="none" />
      <path d="M 319.639007568,157.7631073 L 319.639007568,169.898727417" class="p0" fill="none" />
      <path d="M 426.185180664,157.763000488 L 532.731445313,157.763000488" class="p0" fill="none" />
      <path d="M 426.184997559,157.7631073 L 426.184997559,169.898727417" class="p0" fill="none" />
      <path d="M 532.731506348,157.763000488 L 639.277832031,157.763000488" class="p0" fill="none" />
      <path d="M 532.731018066,157.7631073 L 532.731018066,169.898727417" class="p0" fill="none" />
      <path d="M 639.278015137,157.7631073 L 639.278015137,169.898727417" class="p0" fill="none" />
      <path d="M 0,169.899002075 L 106.546295166,169.899002075" class="p0" fill="none" />
      <path d="M 0,169.898742676 L 0,182.034362793" class="p0" fill="none" />
      <path d="M 106.546295166,169.899002075 L 213.092590332,169.899002075" class="p0" fill="none" />
      <path d="M 106.54599762,169.898742676 L 106.54599762,182.034362793" class="p0" fill="none" />
      <path d="M 213.092590332,169.899002075 L 319.638885498,169.899002075" class="p0" fill="none" />
      <path d="M 213.093002319,169.898742676 L 213.093002319,182.034362793" class="p0" fill="none" />
      <path d="M 319.638885498,169.899002075 L 426.185180664,169.899002075" class="p0" fill="none" />
      <path d="M 319.639007568,169.898742676 L 319.639007568,182.034362793" class="p0" fill="none" />
      <path d="M 426.185180664,169.899002075 L 532.731445313,169.899002075" class="p0" fill="none" />
      <path d="M 426.184997559,169.898742676 L 426.184997559,182.034362793" class="p0" fill="none" />
      <path d="M 532.731506348,169.899002075 L 639.277832031,169.899002075" class="p0" fill="none" />
      <path d="M 532.731018066,169.898742676 L 532.731018066,182.034362793" class="p0" fill="none" />
      <path d="M 639.278015137,169.898742676 L 639.278015137,182.034362793" class="p0" fill="none" />
      <path d="M 0,182.033996582 L 106.546295166,182.033996582" class="p0" fill="none" />
      <path d="M 0,182.034362793 L 0,194.16998291" class="p0" fill="none" />
      <path d="M 106.546295166,182.033996582 L 213.092590332,182.033996582" class="p0" fill="none" />
      <path d="M 106.54599762,182.034362793 L 106.54599762,194.16998291" class="p0" fill="none" />
      <path d="M 213.092590332,182.033996582 L 319.638885498,182.033996582" class="p0" fill="none" />
      <path d="M 213.093002319,182.034362793 L 213.093002319,194.16998291" class="p0" fill="none" />
      <path d="M 319.638885498,182.033996582 L 426.185180664,182.033996582" class="p0" fill="none" />
      <path d="M 319.639007568,182.034362793 L 319.639007568,194.16998291" class="p0" fill="none" />
      <path d="M 426.185180664,182.033996582 L 532.731445313,182.033996582" class="p0" fill="none" />
      <path d="M 426.184997559,182.034362793 L 426.184997559,194.16998291" class="p0" fill="none" />
      <path d="M 532.731506348,182.033996582 L 639.277832031,182.033996582" class="p0" fill="none" />
      <path d="M 532.731018066,182.034362793 L 532.731018066,194.16998291" class="p0" fill="none" />
      <path d="M 639.278015137,182.034362793 L 639.278015137,194.16998291" class="p0" fill="none" />
      <path d="M 0,194.169998169 L 106.546295166,194.169998169" class="p0" fill="none" />
      <path d="M 0,194.16998291 L 0,206.305603027" class="p0" fill="none" />
      <path d="M 106.546295166,194.169998169 L 213.092590332,194.169998169" class="p0" fill="none" />
      <path d="M 106.54599762,194.16998291 L 106.54599762,206.305603027" class="p0" fill="none" />
      <path d="M 213.092590332,194.169998169 L 319.638885498,194.169998169" class="p0" fill="none" />
      <path d="M 213.093002319,194.16998291 L 213.093002319,206.305603027" class="p0" fill="none" />
      <path d="M 319.638885498,194.169998169 L 426.185180664,194.169998169" class="p0" fill="none" />
      <path d="M 319.639007568,194.16998291 L 319.639007568,206.305603027" class="p0" fill="none" />
      <path d="M 426.185180664,194.169998169 L 532.731445313,194.169998169" class="p0" fill="none" />
      <path d="M 426.184997559,194.16998291 L 426.184997559,206.305603027" class="p0" fill="none" />
      <path d="M 532.731506348,194.169998169 L 639.277832031,194.169998169" class="p0" fill="none" />
      <path d="M 532.731018066,194.16998291 L 532.731018066,206.305603027" class="p0" fill="none" />
      <path d="M 639.278015137,194.16998291 L 639.278015137,206.305603027" class="p0" fill="none" />
      <path d="M 0,206.305999756 L 106.546295166,206.305999756" class="p0" fill="none" />
      <path d="M 0,206.305603027 L 0,218.441223145" class="p0" fill="none" />
      <path d="M 106.546295166,206.305999756 L 213.092590332,206.305999756" class="p0" fill="none" />
      <path d="M 106.54599762,206.305603027 L 106.54599762,218.441223145" class="p0" fill="none" />
      <path d="M 213.092590332,206.305999756 L 319.638885498,206.305999756" class="p0" fill="none" />
      <path d="M 213.093002319,206.305603027 L 213.093002319,218.441223145" class="p0" fill="none" />
      <path d="M 319.638885498,206.305999756 L 426.185180664,206.305999756" class="p0" fill="none" />
      <path d="M 319.639007568,206.305603027 L 319.639007568,218.441223145" class="p0" fill="none" />
      <path d="M 426.185180664,206.305999756 L 532.731445313,206.305999756" class="p0" fill="none" />
      <path d="M 426.184997559,206.305603027 L 426.184997559,218.441223145" class="p0" fill="none" />
      <path d="M 532.731506348,206.305999756 L 639.277832031,206.305999756" class="p0" fill="none" />
      <path d="M 532.731018066,206.305603027 L 532.731018066,218.441223145" class="p0" fill="none" />
      <path d="M 639.278015137,206.305603027 L 639.278015137,218.441223145" class="p0" fill="none" />
      <path d="M 0,218.440994263 L 106.546295166,218.440994263" class="p0" fill="none" />
      <path d="M 0,218.441223145 L 0,230.576843262" class="p0" fill="none" />
      <path d="M 106.546295166,218.440994263 L 213.092590332,218.440994263" class="p0" fill="none" />
      <path d="M 106.54599762,218.441223145 L 106.54599762,230.576843262" class="p0" fill="none" />
      <path d="M 213.092590332,218.440994263 L 319.638885498,218.440994263" class="p0" fill="none" />
      <path d="M 213.093002319,218.441223145 L 213.093002319,230.576843262" class="p0" fill="none" />
      <path d="M 319.638885498,218.440994263 L 426.185180664,218.440994263" class="p0" fill="none" />
      <path d="M 319.639007568,218.441223145 L 319.639007568,230.576843262" class="p0" fill="none" />
      <path d="M 426.185180664,218.440994263 L 532.731445313,218.440994263" class="p0" fill="none" />
      <path d="M 426.184997559,218.441223145 L 426.184997559,230.576843262" class="p0" fill="none" />
      <path d="M 532.731506348,218.440994263 L 639.277832031,218.440994263" class="p0" fill="none" />
      <path d="M 532.731018066,218.441223145 L 532.731018066,230.576843262" class="p0" fill="none" />
      <path d="M 639.278015137,218.441223145 L 639.278015137,230.576843262" class="p0" fill="none" />
      <path d="M 0,230.57699585 L 106.546295166,230.57699585" class="p0" fill="none" />
      <path d="M 0,230.576858521 L 0,242.712478638" class="p0" fill="none" />
      <path d="M 106.546295166,230.57699585 L 213.092590332,230.57699585" class="p0" fill="none" />
      <path d="M 106.54599762,230.576858521 L 106.54599762,242.712478638" class="p0" fill="none" />
      <path d="M 213.092590332,230.57699585 L 319.638885498,230.57699585" class="p0" fill="none" />
      <path d="M 213.093002319,230.576858521 L 213.093002319,242.712478638" class="p0" fill="none" />
      <path d="M 319.638885498,230.57699585 L 426.185180664,230.57699585" class="p0" fill="none" />
      <path d="M 319.639007568,230.576858521 L 319.639007568,242.712478638" class="p0" fill="none" />
      <path d="M 426.185180664,230.57699585 L 532.731445313,230.57699585" class="p0" fill="none" />
      <path d="M 426.184997559,230.576858521 L 426.184997559,242.712478638" class="p0" fill="none" />
      <path d="M 532.731506348,230.57699585 L 639.277832031,230.57699585" class="p0" fill="none" />
      <path d="M 532.731018066,230.576858521 L 532.731018066,242.712478638" class="p0" fill="none" />
      <path d="M 639.278015137,230.576858521 L 639.278015137,242.712478638" class="p0" fill="none" />
      <path d="M 0,242.712005615 L 106.546295166,242.712005615" class="p0" fill="none" />
      <path d="M 0,242.712478638 L 0,254.848098755" class="p0" fill="none" />
      <path d="M 106.546295166,242.712005615 L 213.092590332,242.712005615" class="p0" fill="none" />
      <path d="M 106.54599762,242.712478638 L 106.54599762,254.848098755" class="p0" fill="none" />
      <path d="M 213.092590332,242.712005615 L 319.638885498,242.712005615" class="p0" fill="none" />
      <path d="M 213.093002319,242.712478638 L 213.093002319,254.848098755" class="p0" fill="none" />
      <path d="M 319.638885498,242.712005615 L 426.185180664,242.712005615" class="p0" fill="none" />
      <path d="M 319.639007568,242.712478638 L 319.639007568,254.848098755" class="p0" fill="none" />
      <path d="M 426.185180664,242.712005615 L 532.731445313,242.712005615" class="p0" fill="none" />
      <path d="M 426.184997559,242.712478638 L 426.184997559,254.848098755" class="p0" fill="none" />
      <path d="M 532.731506348,242.712005615 L 639.277832031,242.712005615" class="p0" fill="none" />
      <path d="M 532.731018066,242.712478638 L 532.731018066,254.848098755" class="p0" fill="none" />
      <path d="M 639.278015137,242.712478638 L 639.278015137,254.848098755" class="p0" fill="none" />
      <path d="M 0,254.848007202 L 106.546295166,254.848007202" class="p0" fill="none" />
      <path d="M 106.546295166,254.848007202 L 213.092590332,254.848007202" class="p0" fill="none" />
      <path d="M 213.092590332,254.848007202 L 319.638885498,254.848007202" class="p0" fill="none" />
      <path d="M 319.638885498,254.848007202 L 426.185180664,254.848007202" class="p0" fill="none" />
      <path d="M 426.185180664,254.848007202 L 532.731445313,254.848007202" class="p0" fill="none" />
      <path d="M 532.731506348,254.848007202 L 639.277832031,254.848007202" class="p0" fill="none" />
     </g>
    </g>
    <defs>
     <clipPath id="CLIP2">
      <path d="M-0.5,-0.5 L640.5,-0.5 L640.5,255.5 L-0.5,255.5 Z " />
     </clipPath>
    </defs>
    <g clip-path="url(#CLIP2)">
     <g>
      <defs>
       <clipPath id="CLIP3">
        <path d="M0.25,0.25 L106.296295166,0.25 L106.296295166,11.885623932 L0.25,11.885623932 Z " />
       </clipPath>
      </defs>
      <g clip-path="url(#CLIP3)">
       <g>
        <g transform="matrix(1,0,0,1,0.959876537,11.434648514)">
         <text x="1" y="-2.560546875" class="f0">Comment</text>
        </g>
       </g>
      </g>
      <defs>
       <clipPath id="CLIP4">
        <path d="M106.796295166,0.25 L212.842590332,0.25 L212.842590332,11.885623932 L106.796295166,11.885623932 Z " />
       </clipPath>
      </defs>
      <g clip-path="url(#CLIP4)">
       <g>
        <g transform="matrix(1,0,0,1,107.50617218,11.434648514)">
         <text x="1" y="-2.560546875" class="f0">Description</text>
        </g>
       </g>
      </g>
      <defs>
       <clipPath id="CLIP5">
        <path d="M213.342590332,0.25 L319.388885498,0.25 L319.388885498,11.885623932 L213.342590332,11.885623932 Z " />
       </clipPath>
      </defs>
      <g clip-path="url(#CLIP5)">
       <g>
        <g transform="matrix(1,0,0,1,214.052459717,11.434648514)">
         <text x="1" y="-2.560546875" class="f0">Designator</text>
        </g>
       </g>
      </g>
      <defs>
       <clipPath id="CLIP6">
        <path d="M319.888885498,0.25 L425.935180664,0.25 L425.935180664,11.885623932 L319.888885498,11.885623932 Z " />
       </clipPath>
      </defs>
      <g clip-path="url(#CLIP6)">
       <g>
        <g transform="matrix(1,0,0,1,320.598754883,11.434648514)">
         <text x="1" y="-2.560546875" class="f0">Footprint</text>
        </g>
       </g>
      </g>
      <defs>
       <clipPath id="CLIP7">
        <path d="M426.435180664,0.25 L532.481445313,0.25 L532.481445313,11.885623932 L426.435180664,11.885623932 Z " />
       </clipPath>
      </defs>
      <g clip-path="url(#CLIP7)">
       <g>
        <g transform="matrix(1,0,0,1,427.145050049,11.434648514)">
         <text x="1" y="-2.560546875" class="f0">LibRef</text>
        </g>
       </g>
      </g>
      <defs>
       <clipPath id="CLIP8">
        <path d="M532.981506348,0.25 L639.027832031,0.25 L639.027832031,11.885623932 L532.981506348,11.885623932 Z " />
       </clipPath>
      </defs>
      <g clip-path="url(#CLIP8)">
       <g>
        <g transform="matrix(1,0,0,1,533.69140625,11.434648514)">
         <text x="1" y="-2.560546875" class="f0">Quantity</text>
        </g>
       </g>
      </g>
      <defs>
       <clipPath id="CLIP9">
        <path d="M0.25,12.385623932 L106.296295166,12.385623932 L106.296295166,24.021247864 L0.25,24.021247864 Z " />
       </clipPath>
      </defs>
      <g clip-path="url(#CLIP9)">
       <g>
        <g transform="matrix(1,0,0,1,0.959876537,23.570272446)">
         <text x="1" y="-2.560546875" class="f0">12pF</text>
        </g>
       </g>
      </g>
      <defs>
       <clipPath id="CLIP10">
        <path d="M106.796295166,12.385623932 L212.842590332,12.385623932 L212.842590332,24.021247864 L106.796295166,24.021247864 Z " />
       </clipPath>
      </defs>
      <g clip-path="url(#CLIP10)">
       <g>
        <g transform="matrix(1,0,0,1,107.50617218,23.570272446)">
         <text x="1" y="-2.560546875" class="f0">贴</text>
         <text x="12.039999962" y="-2.560546875" class="f0">片</text>
         <text x="23.079999924" y="-2.560546875" class="f0">电</text>
         <text x="34.119998932" y="-2.560546875" class="f0">容</text>
         <text x="45.159999847" y="-2.560546875" class="f0">0402</text>
        </g>
       </g>
      </g>
      <defs>
       <clipPath id="CLIP11">
        <path d="M213.342590332,12.385623932 L319.388885498,12.385623932 L319.388885498,24.021247864 L213.342590332,24.021247864 Z " />
       </clipPath>
      </defs>
      <g clip-path="url(#CLIP11)">
       <g>
        <g transform="matrix(1,0,0,1,214.052459717,23.570272446)">
         <text x="1" y="-2.560546875" class="f0">C1,</text>
         <text x="16.082969666" y="-2.560546875" class="f0"> </text>
         <text x="19.107110977" y="-2.560546875" class="f0">C2</text>
        </g>
       </g>
      </g>
      <defs>
       <clipPath id="CLIP12">
        <path d="M319.888885498,12.385623932 L425.935180664,12.385623932 L425.935180664,24.021247864 L319.888885498,24.021247864 Z " />
       </clipPath>
      </defs>
      <g clip-path="url(#CLIP12)">
       <g>
        <g transform="matrix(1,0,0,1,320.598754883,23.570272446)">
         <text x="1" y="-2.560546875" class="f0">c0402</text>
        </g>
       </g>
      </g>
      <defs>
       <clipPath id="CLIP13">
        <path d="M426.435180664,12.385623932 L532.481445313,12.385623932 L532.481445313,24.021247864 L426.435180664,24.021247864 Z " />
       </clipPath>
      </defs>
      <g clip-path="url(#CLIP13)">
       <g>
        <g transform="matrix(1,0,0,1,427.145050049,23.570272446)">
         <text x="1" y="-2.560546875" class="f0">0402</text>
         <text x="24.265937805" y="-2.560546875" class="f0">贴</text>
         <text x="35.305938721" y="-2.560546875" class="f0">片</text>
         <text x="46.345939636" y="-2.560546875" class="f0">电</text>
         <text x="57.385940552" y="-2.560546875" class="f0">容</text>
        </g>
       </g>
      </g>
      <defs>
       <clipPath id="CLIP14">
        <path d="M532.981506348,12.385623932 L639.027832031,12.385623932 L639.027832031,24.021247864 L532.981506348,24.021247864 Z " />
       </clipPath>
      </defs>
      <g clip-path="url(#CLIP14)">
       <g>
        <g transform="matrix(1,0,0,1,632.461303711,23.570272446)">
         <text x="-1" y="-2.560546875" class="f0">2</text>
        </g>
       </g>
      </g>
      <defs>
       <clipPath id="CLIP15">
        <path d="M0.25,24.521247864 L106.296295166,24.521247864 L106.296295166,36.156871796 L0.25,36.156871796 Z " />
       </clipPath>
      </defs>
      <g clip-path="url(#CLIP15)">
       <g>
        <g transform="matrix(1,0,0,1,0.959876537,35.70589447)">
         <text x="1" y="-2.560546875" class="f0">0.1uF</text>
        </g>
       </g>
      </g>
      <defs>
       <clipPath id="CLIP16">
        <path d="M106.796295166,24.521247864 L212.842590332,24.521247864 L212.842590332,36.156871796 L106.796295166,36.156871796 Z " />
       </clipPath>
      </defs>
      <g clip-path="url(#CLIP16)">
       <g>
        <g transform="matrix(1,0,0,1,107.50617218,35.70589447)">
         <text x="1" y="-2.560546875" class="f0">贴</text>
         <text x="12.039999962" y="-2.560546875" class="f0">片</text>
         <text x="23.079999924" y="-2.560546875" class="f0">电</text>
         <text x="34.119998932" y="-2.560546875" class="f0">容</text>
         <text x="45.159999847" y="-2.560546875" class="f0">0402</text>
        </g>
       </g>
      </g>
      <defs>
       <clipPath id="CLIP17">
        <path d="M213.342590332,24.521247864 L319.388885498,24.521247864 L319.388885498,36.156871796 L213.342590332,36.156871796 Z " />
       </clipPath>
      </defs>
      <g clip-path="url(#CLIP17)">
       <g>
        <g transform="matrix(1,0,0,1,214.052459717,35.70589447)">
         <text x="1" y="-2.560546875" class="f0">C3,</text>
         <text x="16.082969666" y="-2.560546875" class="f0"> </text>
         <text x="19.107110977" y="-2.560546875" class="f0">C6,</text>
         <text x="34.190078735" y="-2.560546875" class="f0"> </text>
         <text x="37.21421814" y="-2.560546875" class="f0">C7,</text>
         <text x="52.297187805" y="-2.560546875" class="f0"> </text>
         <text x="55.321327209" y="-2.560546875" class="f0">C8,</text>
         <text x="70.404296875" y="-2.560546875" class="f0"> </text>
         <text x="73.428436279" y="-2.560546875" class="f0">C9</text>
        </g>
       </g>
      </g>
      <defs>
       <clipPath id="CLIP18">
        <path d="M319.888885498,24.521247864 L425.935180664,24.521247864 L425.935180664,36.156871796 L319.888885498,36.156871796 Z " />
       </clipPath>
      </defs>
      <g clip-path="url(#CLIP18)">
       <g>
        <g transform="matrix(1,0,0,1,320.598754883,35.70589447)">
         <text x="1" y="-2.560546875" class="f0">c0402</text>
        </g>
       </g>
      </g>
      <defs>
       <clipPath id="CLIP19">
        <path d="M426.435180664,24.521247864 L532.481445313,24.521247864 L532.481445313,36.156871796 L426.435180664,36.156871796 Z " />
       </clipPath>
      </defs>
      <g clip-path="url(#CLIP19)">
       <g>
        <g transform="matrix(1,0,0,1,427.145050049,35.70589447)">
         <text x="1" y="-2.560546875" class="f0">0402</text>
         <text x="24.265937805" y="-2.560546875" class="f0">贴</text>
         <text x="35.305938721" y="-2.560546875" class="f0">片</text>
         <text x="46.345939636" y="-2.560546875" class="f0">电</text>
         <text x="57.385940552" y="-2.560546875" class="f0">容</text>
        </g>
       </g>
      </g>
      <defs>
       <clipPath id="CLIP20">
        <path d="M532.981506348,24.521247864 L639.027832031,24.521247864 L639.027832031,36.156871796 L532.981506348,36.156871796 Z " />
       </clipPath>
      </defs>
      <g clip-path="url(#CLIP20)">
       <g>
        <g transform="matrix(1,0,0,1,632.461303711,35.70589447)">
         <text x="-1" y="-2.560546875" class="f0">5</text>
        </g>
       </g>
      </g>
      <defs>
       <clipPath id="CLIP21">
        <path d="M0.25,36.656871796 L106.296295166,36.656871796 L106.296295166,48.292495728 L0.25,48.292495728 Z " />
       </clipPath>
      </defs>
      <g clip-path="url(#CLIP21)">
       <g>
        <g transform="matrix(1,0,0,1,0.959876537,47.841522217)">
         <text x="1" y="-2.560546875" class="f0">10uF</text>
        </g>
       </g>
      </g>
      <defs>
       <clipPath id="CLIP22">
        <path d="M106.796295166,36.656871796 L212.842590332,36.656871796 L212.842590332,48.292495728 L106.796295166,48.292495728 Z " />
       </clipPath>
      </defs>
      <g clip-path="url(#CLIP22)">
       <g>
        <g transform="matrix(1,0,0,1,107.50617218,47.841522217)">
         <text x="1" y="-2.560546875" class="f0">贴</text>
         <text x="12.039999962" y="-2.560546875" class="f0">片</text>
         <text x="23.079999924" y="-2.560546875" class="f0">电</text>
         <text x="34.119998932" y="-2.560546875" class="f0">容</text>
         <text x="45.159999847" y="-2.560546875" class="f0">0402</text>
        </g>
       </g>
      </g>
      <defs>
       <clipPath id="CLIP23">
        <path d="M213.342590332,36.656871796 L319.388885498,36.656871796 L319.388885498,48.292495728 L213.342590332,48.292495728 Z " />
       </clipPath>
      </defs>
      <g clip-path="url(#CLIP23)">
       <g>
        <g transform="matrix(1,0,0,1,214.052459717,47.841522217)">
         <text x="1" y="-2.560546875" class="f0">C4,</text>
         <text x="16.082969666" y="-2.560546875" class="f0"> </text>
         <text x="19.107110977" y="-2.560546875" class="f0">C5,</text>
         <text x="34.190078735" y="-2.560546875" class="f0"> </text>
         <text x="37.21421814" y="-2.560546875" class="f0">C12,</text>
         <text x="58.113670349" y="-2.560546875" class="f0"> </text>
         <text x="61.137809753" y="-2.560546875" class="f0">C13</text>
        </g>
       </g>
      </g>
      <defs>
       <clipPath id="CLIP24">
        <path d="M319.888885498,36.656871796 L425.935180664,36.656871796 L425.935180664,48.292495728 L319.888885498,48.292495728 Z " />
       </clipPath>
      </defs>
      <g clip-path="url(#CLIP24)">
       <g>
        <g transform="matrix(1,0,0,1,320.598754883,47.841522217)">
         <text x="1" y="-2.560546875" class="f0">c0402</text>
        </g>
       </g>
      </g>
      <defs>
       <clipPath id="CLIP25">
        <path d="M426.435180664,36.656871796 L532.481445313,36.656871796 L532.481445313,48.292495728 L426.435180664,48.292495728 Z " />
       </clipPath>
      </defs>
      <g clip-path="url(#CLIP25)">
       <g>
        <g transform="matrix(1,0,0,1,427.145050049,47.841522217)">
         <text x="1" y="-2.560546875" class="f0">0402</text>
         <text x="24.265937805" y="-2.560546875" class="f0">贴</text>
         <text x="35.305938721" y="-2.560546875" class="f0">片</text>
         <text x="46.345939636" y="-2.560546875" class="f0">电</text>
         <text x="57.385940552" y="-2.560546875" class="f0">容</text>
        </g>
       </g>
      </g>
      <defs>
       <clipPath id="CLIP26">
        <path d="M532.981506348,36.656871796 L639.027832031,36.656871796 L639.027832031,48.292495728 L532.981506348,48.292495728 Z " />
       </clipPath>
      </defs>
      <g clip-path="url(#CLIP26)">
       <g>
        <g transform="matrix(1,0,0,1,632.461303711,47.841522217)">
         <text x="-1" y="-2.560546875" class="f0">4</text>
        </g>
       </g>
      </g>
      <defs>
       <clipPath id="CLIP27">
        <path d="M0.25,48.792495728 L106.296295166,48.792495728 L106.296295166,60.428119659 L0.25,60.428119659 Z " />
       </clipPath>
      </defs>
      <g clip-path="url(#CLIP27)">
       <g>
        <g transform="matrix(1,0,0,1,0.959876537,59.977146149)">
         <text x="1" y="-2.560546875" class="f0">100uF</text>
        </g>
       </g>
      </g>
      <defs>
       <clipPath id="CLIP28">
        <path d="M106.796295166,48.792495728 L212.842590332,48.792495728 L212.842590332,60.428119659 L106.796295166,60.428119659 Z " />
       </clipPath>
      </defs>
      <g clip-path="url(#CLIP28)">
       <g>
        <g transform="matrix(1,0,0,1,107.50617218,59.977146149)">
         <text x="1" y="-2.560546875" class="f0">1210</text>
         <text x="24.265937805" y="-2.560546875" class="f0">贴</text>
         <text x="35.305938721" y="-2.560546875" class="f0">片</text>
         <text x="46.345939636" y="-2.560546875" class="f0">电</text>
         <text x="57.385940552" y="-2.560546875" class="f0">容</text>
        </g>
       </g>
      </g>
      <defs>
       <clipPath id="CLIP29">
        <path d="M213.342590332,48.792495728 L319.388885498,48.792495728 L319.388885498,60.428119659 L213.342590332,60.428119659 Z " />
       </clipPath>
      </defs>
      <g clip-path="url(#CLIP29)">
       <g>
        <g transform="matrix(1,0,0,1,214.052459717,59.977146149)">
         <text x="1" y="-2.560546875" class="f0">C10,</text>
         <text x="21.899452209" y="-2.560546875" class="f0"> </text>
         <text x="24.923593521" y="-2.560546875" class="f0">C11</text>
        </g>
       </g>
      </g>
      <defs>
       <clipPath id="CLIP30">
        <path d="M319.888885498,48.792495728 L425.935180664,48.792495728 L425.935180664,60.428119659 L319.888885498,60.428119659 Z " />
       </clipPath>
      </defs>
      <g clip-path="url(#CLIP30)">
       <g>
        <g transform="matrix(1,0,0,1,320.598754883,59.977146149)">
         <text x="1" y="-2.560546875" class="f0">1210</text>
        </g>
       </g>
      </g>
      <defs>
       <clipPath id="CLIP31">
        <path d="M426.435180664,48.792495728 L532.481445313,48.792495728 L532.481445313,60.428119659 L426.435180664,60.428119659 Z " />
       </clipPath>
      </defs>
      <g clip-path="url(#CLIP31)">
       <g>
        <g transform="matrix(1,0,0,1,427.145050049,59.977146149)">
         <text x="1" y="-2.560546875" class="f0">1210</text>
         <text x="24.265937805" y="-2.560546875" class="f0">贴</text>
         <text x="35.305938721" y="-2.560546875" class="f0">片</text>
         <text x="46.345939636" y="-2.560546875" class="f0">电</text>
         <text x="57.385940552" y="-2.560546875" class="f0">容</text>
        </g>
       </g>
      </g>
      <defs>
       <clipPath id="CLIP32">
        <path d="M532.981506348,48.792495728 L639.027832031,48.792495728 L639.027832031,60.428119659 L532.981506348,60.428119659 Z " />
       </clipPath>
      </defs>
      <g clip-path="url(#CLIP32)">
       <g>
        <g transform="matrix(1,0,0,1,632.461303711,59.977146149)">
         <text x="-1" y="-2.560546875" class="f0">2</text>
        </g>
       </g>
      </g>
      <defs>
       <clipPath id="CLIP33">
        <path d="M0.25,60.928119659 L106.296295166,60.928119659 L106.296295166,72.563743591 L0.25,72.563743591 Z " />
       </clipPath>
      </defs>
      <g clip-path="url(#CLIP33)">
       <g>
        <g transform="matrix(1,0,0,1,0.959876537,72.112770081)">
         <text x="1" y="-2.560546875" class="f0">10uF</text>
        </g>
       </g>
      </g>
      <defs>
       <clipPath id="CLIP34">
        <path d="M106.796295166,60.928119659 L212.842590332,60.928119659 L212.842590332,72.563743591 L106.796295166,72.563743591 Z " />
       </clipPath>
      </defs>
      <g clip-path="url(#CLIP34)">
       <g>
        <g transform="matrix(1,0,0,1,107.50617218,72.112770081)">
         <text x="1" y="-2.560546875" class="f0">3216</text>
         <text x="24.265937805" y="-2.560546875" class="f0">钽</text>
         <text x="35.305938721" y="-2.560546875" class="f0">电</text>
         <text x="46.345939636" y="-2.560546875" class="f0">容</text>
        </g>
       </g>
      </g>
      <defs>
       <clipPath id="CLIP35">
        <path d="M213.342590332,60.928119659 L319.388885498,60.928119659 L319.388885498,72.563743591 L213.342590332,72.563743591 Z " />
       </clipPath>
      </defs>
      <g clip-path="url(#CLIP35)">
       <g>
        <g transform="matrix(1,0,0,1,214.052459717,72.112770081)">
         <text x="1" y="-2.560546875" class="f0">C14</text>
        </g>
       </g>
      </g>
      <defs>
       <clipPath id="CLIP36">
        <path d="M319.888885498,60.928119659 L425.935180664,60.928119659 L425.935180664,72.563743591 L319.888885498,72.563743591 Z " />
       </clipPath>
      </defs>
      <g clip-path="url(#CLIP36)">
       <g>
        <g transform="matrix(1,0,0,1,320.598754883,72.112770081)">
         <text x="1" y="-2.560546875" class="f0">3216</text>
        </g>
       </g>
      </g>
      <defs>
       <clipPath id="CLIP37">
        <path d="M426.435180664,60.928119659 L532.481445313,60.928119659 L532.481445313,72.563743591 L426.435180664,72.563743591 Z " />
       </clipPath>
      </defs>
      <g clip-path="url(#CLIP37)">
       <g>
        <g transform="matrix(1,0,0,1,427.145050049,72.112770081)">
         <text x="1" y="-2.560546875" class="f0">3216</text>
         <text x="24.265937805" y="-2.560546875" class="f0">钽</text>
         <text x="35.305938721" y="-2.560546875" class="f0">电</text>
         <text x="46.345939636" y="-2.560546875" class="f0">容</text>
        </g>
       </g>
      </g>
      <defs>
       <clipPath id="CLIP38">
        <path d="M532.981506348,60.928119659 L639.027832031,60.928119659 L639.027832031,72.563743591 L532.981506348,72.563743591 Z " />
       </clipPath>
      </defs>
      <g clip-path="url(#CLIP38)">
       <g>
        <g transform="matrix(1,0,0,1,632.461303711,72.112770081)">
         <text x="-1" y="-2.560546875" class="f0">1</text>
        </g>
       </g>
      </g>
      <defs>
       <clipPath id="CLIP39">
        <path d="M0.25,73.063743591 L106.296295166,73.063743591 L106.296295166,84.699371338 L0.25,84.699371338 Z " />
       </clipPath>
      </defs>
      <g clip-path="url(#CLIP39)">
       <g>
        <g transform="matrix(1,0,0,1,0.959876537,84.248397827)">
         <text x="1" y="-2.560546875" class="f0">立</text>
         <text x="12.039999962" y="-2.560546875" class="f0">式</text>
         <text x="23.079999924" y="-2.560546875" class="f0">XT30</text>
         <text x="46.787967682" y="-2.560546875" class="f0">母</text>
         <text x="57.827968597" y="-2.560546875" class="f0">头</text>
        </g>
       </g>
      </g>
      <defs>
       <clipPath id="CLIP40">
        <path d="M106.796295166,73.063743591 L212.842590332,73.063743591 L212.842590332,84.699371338 L106.796295166,84.699371338 Z " />
       </clipPath>
      </defs>
      <g clip-path="url(#CLIP40)">
       <g>
        <g transform="matrix(1,0,0,1,107.50617218,84.248397827)">
         <text x="1" y="-2.560546875" class="f0">立</text>
         <text x="12.039999962" y="-2.560546875" class="f0">式</text>
         <text x="23.079999924" y="-2.560546875" class="f0">XT30</text>
         <text x="46.787967682" y="-2.560546875" class="f0">母</text>
         <text x="57.827968597" y="-2.560546875" class="f0">头</text>
        </g>
       </g>
      </g>
      <defs>
       <clipPath id="CLIP41">
        <path d="M213.342590332,73.063743591 L319.388885498,73.063743591 L319.388885498,84.699371338 L213.342590332,84.699371338 Z " />
       </clipPath>
      </defs>
      <g clip-path="url(#CLIP41)">
       <g>
        <g transform="matrix(1,0,0,1,214.052459717,84.248397827)">
         <text x="1" y="-2.560546875" class="f0">CN1</text>
        </g>
       </g>
      </g>
      <defs>
       <clipPath id="CLIP42">
        <path d="M319.888885498,73.063743591 L425.935180664,73.063743591 L425.935180664,84.699371338 L319.888885498,84.699371338 Z " />
       </clipPath>
      </defs>
      <g clip-path="url(#CLIP42)">
       <g>
        <g transform="matrix(1,0,0,1,320.598754883,84.248397827)">
         <text x="1" y="-2.560546875" class="f0">CONN-TH_XT30U-M</text>
        </g>
       </g>
      </g>
      <defs>
       <clipPath id="CLIP43">
        <path d="M426.435180664,73.063743591 L532.481445313,73.063743591 L532.481445313,84.699371338 L426.435180664,84.699371338 Z " />
       </clipPath>
      </defs>
      <g clip-path="url(#CLIP43)">
       <g>
        <g transform="matrix(1,0,0,1,427.145050049,84.248397827)">
         <text x="1" y="-2.560546875" class="f0">立</text>
         <text x="12.039999962" y="-2.560546875" class="f0">式</text>
         <text x="23.079999924" y="-2.560546875" class="f0">XT30</text>
         <text x="46.787967682" y="-2.560546875" class="f0">母</text>
         <text x="57.827968597" y="-2.560546875" class="f0">头</text>
        </g>
       </g>
      </g>
      <defs>
       <clipPath id="CLIP44">
        <path d="M532.981506348,73.063743591 L639.027832031,73.063743591 L639.027832031,84.699371338 L532.981506348,84.699371338 Z " />
       </clipPath>
      </defs>
      <g clip-path="url(#CLIP44)">
       <g>
        <g transform="matrix(1,0,0,1,632.461303711,84.248397827)">
         <text x="-1" y="-2.560546875" class="f0">1</text>
        </g>
       </g>
      </g>
      <defs>
       <clipPath id="CLIP45">
        <path d="M0.25,85.199371338 L106.296295166,85.199371338 L106.296295166,96.834991455 L0.25,96.834991455 Z " />
       </clipPath>
      </defs>
      <g clip-path="url(#CLIP45)">
       <g>
        <g transform="matrix(1,0,0,1,0.959876537,96.384017944)">
         <text x="1" y="-2.560546875" class="f0">KF141R-2.54-2P</text>
        </g>
       </g>
      </g>
      <defs>
       <clipPath id="CLIP46">
        <path d="M106.796295166,85.199371338 L212.842590332,85.199371338 L212.842590332,96.834991455 L106.796295166,96.834991455 Z " />
       </clipPath>
      </defs>
      <g clip-path="url(#CLIP46)">
       <g>
        <g transform="matrix(1,0,0,1,107.50617218,96.384017944)">
         <text x="1" y="-2.560546875" class="f0">接</text>
         <text x="12.039999962" y="-2.560546875" class="f0">头</text>
        </g>
       </g>
      </g>
      <defs>
       <clipPath id="CLIP47">
        <path d="M213.342590332,85.199371338 L319.388885498,85.199371338 L319.388885498,96.834991455 L213.342590332,96.834991455 Z " />
       </clipPath>
      </defs>
      <g clip-path="url(#CLIP47)">
       <g>
        <g transform="matrix(1,0,0,1,214.052459717,96.384017944)">
         <text x="1" y="-2.560546875" class="f0">CN2,</text>
         <text x="24.125780106" y="-2.560546875" class="f0"> </text>
         <text x="27.149921417" y="-2.560546875" class="f0">CN3</text>
        </g>
       </g>
      </g>
      <defs>
       <clipPath id="CLIP48">
        <path d="M319.888885498,85.199371338 L425.935180664,85.199371338 L425.935180664,96.834991455 L319.888885498,96.834991455 Z " />
       </clipPath>
      </defs>
      <g clip-path="url(#CLIP48)">
       <g>
        <g transform="matrix(1,0,0,1,320.598754883,96.384017944)">
         <text x="1" y="-2.560546875" class="f0">CONN-TH_2P-P2.54_KF141R-2.54-2P</text>
        </g>
       </g>
      </g>
      <defs>
       <clipPath id="CLIP49">
        <path d="M426.435180664,85.199371338 L532.481445313,85.199371338 L532.481445313,96.834991455 L426.435180664,96.834991455 Z " />
       </clipPath>
      </defs>
      <g clip-path="url(#CLIP49)">
       <g>
        <g transform="matrix(1,0,0,1,427.145050049,96.384017944)">
         <text x="1" y="-2.560546875" class="f0">KF141R-2.54-2P</text>
        </g>
       </g>
      </g>
      <defs>
       <clipPath id="CLIP50">
        <path d="M532.981506348,85.199371338 L639.027832031,85.199371338 L639.027832031,96.834991455 L532.981506348,96.834991455 Z " />
       </clipPath>
      </defs>
      <g clip-path="url(#CLIP50)">
       <g>
        <g transform="matrix(1,0,0,1,632.461303711,96.384017944)">
         <text x="-1" y="-2.560546875" class="f0">2</text>
        </g>
       </g>
      </g>
      <defs>
       <clipPath id="CLIP51">
        <path d="M0.25,97.334991455 L106.296295166,97.334991455 L106.296295166,108.970611572 L0.25,108.970611572 Z " />
       </clipPath>
      </defs>
      <g clip-path="url(#CLIP51)">
       <g>
        <g transform="matrix(1,0,0,1,0.959876537,108.519638062)">
         <text x="1" y="-2.560546875" class="f0">立</text>
         <text x="12.039999962" y="-2.560546875" class="f0">式</text>
         <text x="23.079999924" y="-2.560546875" class="f0">gh1.25</text>
         <text x="55.364456177" y="-2.560546875" class="f0"> </text>
         <text x="58.388595581" y="-2.560546875" class="f0">4pin</text>
        </g>
       </g>
      </g>
      <defs>
       <clipPath id="CLIP52">
        <path d="M106.796295166,97.334991455 L212.842590332,97.334991455 L212.842590332,108.970611572 L106.796295166,108.970611572 Z " />
       </clipPath>
      </defs>
      <g clip-path="url(#CLIP52)">
       <g>
        <g transform="matrix(1,0,0,1,107.50617218,108.519638062)">
         <text x="1" y="-2.560546875" class="f0">立</text>
         <text x="12.039999962" y="-2.560546875" class="f0">式</text>
         <text x="23.079999924" y="-2.560546875" class="f0">gh1.25</text>
         <text x="55.364456177" y="-2.560546875" class="f0"> </text>
         <text x="58.388595581" y="-2.560546875" class="f0">4pin</text>
        </g>
       </g>
      </g>
      <defs>
       <clipPath id="CLIP53">
        <path d="M213.342590332,97.334991455 L319.388885498,97.334991455 L319.388885498,108.970611572 L213.342590332,108.970611572 Z " />
       </clipPath>
      </defs>
      <g clip-path="url(#CLIP53)">
       <g>
        <g transform="matrix(1,0,0,1,214.052459717,108.519638062)">
         <text x="1" y="-2.560546875" class="f0">CN4</text>
        </g>
       </g>
      </g>
      <defs>
       <clipPath id="CLIP54">
        <path d="M319.888885498,97.334991455 L425.935180664,97.334991455 L425.935180664,108.970611572 L319.888885498,108.970611572 Z " />
       </clipPath>
      </defs>
      <g clip-path="url(#CLIP54)">
       <g>
        <g transform="matrix(1,0,0,1,320.598754883,108.519638062)">
         <text x="1" y="-2.560546875" class="f0">GH1.25</text>
         <text x="35.995937347" y="-2.560546875" class="f0"> </text>
         <text x="39.020076752" y="-2.560546875" class="f0">4P</text>
         <text x="50.927967072" y="-2.560546875" class="f0"> </text>
         <text x="53.952106476" y="-2.560546875" class="f0">立</text>
         <text x="64.992103577" y="-2.560546875" class="f0">贴</text>
        </g>
       </g>
      </g>
      <defs>
       <clipPath id="CLIP55">
        <path d="M426.435180664,97.334991455 L532.481445313,97.334991455 L532.481445313,108.970611572 L426.435180664,108.970611572 Z " />
       </clipPath>
      </defs>
      <g clip-path="url(#CLIP55)">
       <g>
        <g transform="matrix(1,0,0,1,427.145050049,108.519638062)">
         <text x="1" y="-2.560546875" class="f0">立</text>
         <text x="12.039999962" y="-2.560546875" class="f0">式</text>
         <text x="23.079999924" y="-2.560546875" class="f0">gh1.25</text>
         <text x="55.364456177" y="-2.560546875" class="f0"> </text>
         <text x="58.388595581" y="-2.560546875" class="f0">4pin</text>
        </g>
       </g>
      </g>
      <defs>
       <clipPath id="CLIP56">
        <path d="M532.981506348,97.334991455 L639.027832031,97.334991455 L639.027832031,108.970611572 L532.981506348,108.970611572 Z " />
       </clipPath>
      </defs>
      <g clip-path="url(#CLIP56)">
       <g>
        <g transform="matrix(1,0,0,1,632.461303711,108.519638062)">
         <text x="-1" y="-2.560546875" class="f0">1</text>
        </g>
       </g>
      </g>
      <defs>
       <clipPath id="CLIP57">
        <path d="M0.25,109.470611572 L106.296295166,109.470611572 L106.296295166,121.106231689 L0.25,121.106231689 Z " />
       </clipPath>
      </defs>
      <g clip-path="url(#CLIP57)">
       <g>
        <g transform="matrix(1,0,0,1,0.959876537,120.655258179)">
         <text x="1" y="-2.560546875" class="f0">SS34B</text>
        </g>
       </g>
      </g>
      <defs>
       <clipPath id="CLIP58">
        <path d="M106.796295166,109.470611572 L212.842590332,109.470611572 L212.842590332,121.106231689 L106.796295166,121.106231689 Z " />
       </clipPath>
      </defs>
      <g clip-path="url(#CLIP58)">
       <g>
        <g transform="matrix(1,0,0,1,107.50617218,120.655258179)">
         <text x="1" y="-2.560546875" class="f0">硝</text>
         <text x="12.039999962" y="-2.560546875" class="f0">基</text>
         <text x="23.079999924" y="-2.560546875" class="f0">特</text>
         <text x="34.119998932" y="-2.560546875" class="f0">二</text>
         <text x="45.159999847" y="-2.560546875" class="f0">极</text>
         <text x="56.200000763" y="-2.560546875" class="f0">管</text>
        </g>
       </g>
      </g>
      <defs>
       <clipPath id="CLIP59">
        <path d="M213.342590332,109.470611572 L319.388885498,109.470611572 L319.388885498,121.106231689 L213.342590332,121.106231689 Z " />
       </clipPath>
      </defs>
      <g clip-path="url(#CLIP59)">
       <g>
        <g transform="matrix(1,0,0,1,214.052459717,120.655258179)">
         <text x="1" y="-2.560546875" class="f0">D1</text>
        </g>
       </g>
      </g>
      <defs>
       <clipPath id="CLIP60">
        <path d="M319.888885498,109.470611572 L425.935180664,109.470611572 L425.935180664,121.106231689 L319.888885498,121.106231689 Z " />
       </clipPath>
      </defs>
      <g clip-path="url(#CLIP60)">
       <g>
        <g transform="matrix(1,0,0,1,320.598754883,120.655258179)">
         <text x="1" y="-2.560546875" class="f0">SMA_L4.3-W2.6-LS5.2-RD</text>
        </g>
       </g>
      </g>
      <defs>
       <clipPath id="CLIP61">
        <path d="M426.435180664,109.470611572 L532.481445313,109.470611572 L532.481445313,121.106231689 L426.435180664,121.106231689 Z " />
       </clipPath>
      </defs>
      <g clip-path="url(#CLIP61)">
       <g>
        <g transform="matrix(1,0,0,1,427.145050049,120.655258179)">
         <text x="1" y="-2.560546875" class="f0">SS34</text>
         <text x="23.985624313" y="-2.560546875" class="f0">二</text>
         <text x="35.025623322" y="-2.560546875" class="f0">极</text>
         <text x="46.065624237" y="-2.560546875" class="f0">管</text>
        </g>
       </g>
      </g>
      <defs>
       <clipPath id="CLIP62">
        <path d="M532.981506348,109.470611572 L639.027832031,109.470611572 L639.027832031,121.106231689 L532.981506348,121.106231689 Z " />
       </clipPath>
      </defs>
      <g clip-path="url(#CLIP62)">
       <g>
        <g transform="matrix(1,0,0,1,632.461303711,120.655258179)">
         <text x="-1" y="-2.560546875" class="f0">1</text>
        </g>
       </g>
      </g>
      <defs>
       <clipPath id="CLIP63">
        <path d="M0.25,121.606239319 L106.296295166,121.606239319 L106.296295166,133.241867065 L0.25,133.241867065 Z " />
       </clipPath>
      </defs>
      <g clip-path="url(#CLIP63)">
       <g>
        <g transform="matrix(1,0,0,1,0.959876537,132.790893555)">
         <text x="1" y="-2.560546875" class="f0">PZ254V-11-03P</text>
        </g>
       </g>
      </g>
      <defs>
       <clipPath id="CLIP64">
        <path d="M106.796295166,121.606239319 L212.842590332,121.606239319 L212.842590332,133.241867065 L106.796295166,133.241867065 Z " />
       </clipPath>
      </defs>
      <g clip-path="url(#CLIP64)">
       <g>
        <g transform="matrix(1,0,0,1,107.50617218,132.790893555)">
         <text x="1" y="-2.560546875" class="f0">2.54mm</text>
         <text x="39.44593811" y="-2.560546875" class="f0"> </text>
         <text x="42.470077515" y="-2.560546875" class="f0">1x3pin</text>
         <text x="73.843513489" y="-2.560546875" class="f0">排</text>
         <text x="84.883514404" y="-2.560546875" class="f0">针</text>
        </g>
       </g>
      </g>
      <defs>
       <clipPath id="CLIP65">
        <path d="M213.342590332,121.606239319 L319.388885498,121.606239319 L319.388885498,133.241867065 L213.342590332,133.241867065 Z " />
       </clipPath>
      </defs>
      <g clip-path="url(#CLIP65)">
       <g>
        <g transform="matrix(1,0,0,1,214.052459717,132.790893555)">
         <text x="1" y="-2.560546875" class="f0">H1,</text>
         <text x="16.891563416" y="-2.560546875" class="f0"> </text>
         <text x="19.915704727" y="-2.560546875" class="f0">H2,</text>
         <text x="35.807266235" y="-2.560546875" class="f0"> </text>
         <text x="38.83140564" y="-2.560546875" class="f0">H3,</text>
         <text x="54.722969055" y="-2.560546875" class="f0"> </text>
         <text x="57.747108459" y="-2.560546875" class="f0">H4,</text>
         <text x="73.638671875" y="-2.560546875" class="f0"> </text>
         <text x="76.662811279" y="-2.560546875" class="f0">H5</text>
        </g>
       </g>
      </g>
      <defs>
       <clipPath id="CLIP66">
        <path d="M319.888885498,121.606239319 L425.935180664,121.606239319 L425.935180664,133.241867065 L319.888885498,133.241867065 Z " />
       </clipPath>
      </defs>
      <g clip-path="url(#CLIP66)">
       <g>
        <g transform="matrix(1,0,0,1,320.598754883,132.790893555)">
         <text x="1" y="-2.560546875" class="f0">HDR-TH_3P-P2.54-V-M</text>
        </g>
       </g>
      </g>
      <defs>
       <clipPath id="CLIP67">
        <path d="M426.435180664,121.606239319 L532.481445313,121.606239319 L532.481445313,133.241867065 L426.435180664,133.241867065 Z " />
       </clipPath>
      </defs>
      <g clip-path="url(#CLIP67)">
       <g>
        <g transform="matrix(1,0,0,1,427.145050049,132.790893555)">
         <text x="1" y="-2.560546875" class="f0">2.54mm</text>
         <text x="39.44593811" y="-2.560546875" class="f0"> </text>
         <text x="42.470077515" y="-2.560546875" class="f0">1x3pin</text>
         <text x="73.843513489" y="-2.560546875" class="f0">排</text>
         <text x="84.883514404" y="-2.560546875" class="f0">针</text>
        </g>
       </g>
      </g>
      <defs>
       <clipPath id="CLIP68">
        <path d="M532.981506348,121.606239319 L639.027832031,121.606239319 L639.027832031,133.241867065 L532.981506348,133.241867065 Z " />
       </clipPath>
      </defs>
      <g clip-path="url(#CLIP68)">
       <g>
        <g transform="matrix(1,0,0,1,632.461303711,132.790893555)">
         <text x="-1" y="-2.560546875" class="f0">5</text>
        </g>
       </g>
      </g>
      <defs>
       <clipPath id="CLIP69">
        <path d="M0.25,133.741867065 L106.296295166,133.741867065 L106.296295166,145.377487183 L0.25,145.377487183 Z " />
       </clipPath>
      </defs>
      <g clip-path="url(#CLIP69)">
       <g>
        <g transform="matrix(1,0,0,1,0.959876537,144.926513672)">
         <text x="1" y="-2.560546875" class="f0">2.54mm</text>
         <text x="39.44593811" y="-2.560546875" class="f0">排</text>
         <text x="50.485939026" y="-2.560546875" class="f0">针</text>
         <text x="61.525939941" y="-2.560546875" class="f0"> </text>
         <text x="64.550079346" y="-2.560546875" class="f0">1x4P</text>
        </g>
       </g>
      </g>
      <defs>
       <clipPath id="CLIP70">
        <path d="M106.796295166,133.741867065 L212.842590332,133.741867065 L212.842590332,145.377487183 L106.796295166,145.377487183 Z " />
       </clipPath>
      </defs>
      <g clip-path="url(#CLIP70)">
       <g>
        <g transform="matrix(1,0,0,1,107.50617218,144.926513672)">
         <text x="1" y="-2.560546875" class="f0">2.54mm</text>
         <text x="39.44593811" y="-2.560546875" class="f0">排</text>
         <text x="50.485939026" y="-2.560546875" class="f0">针</text>
         <text x="61.525939941" y="-2.560546875" class="f0"> </text>
         <text x="64.550079346" y="-2.560546875" class="f0">1x4P</text>
        </g>
       </g>
      </g>
      <defs>
       <clipPath id="CLIP71">
        <path d="M213.342590332,133.741867065 L319.388885498,133.741867065 L319.388885498,145.377487183 L213.342590332,145.377487183 Z " />
       </clipPath>
      </defs>
      <g clip-path="url(#CLIP71)">
       <g>
        <g transform="matrix(1,0,0,1,214.052459717,144.926513672)">
         <text x="1" y="-2.560546875" class="f0">H6,</text>
         <text x="16.891563416" y="-2.560546875" class="f0"> </text>
         <text x="19.915704727" y="-2.560546875" class="f0">H7,</text>
         <text x="35.807266235" y="-2.560546875" class="f0"> </text>
         <text x="38.83140564" y="-2.560546875" class="f0">H8</text>
        </g>
       </g>
      </g>
      <defs>
       <clipPath id="CLIP72">
        <path d="M319.888885498,133.741867065 L425.935180664,133.741867065 L425.935180664,145.377487183 L319.888885498,145.377487183 Z " />
       </clipPath>
      </defs>
      <g clip-path="url(#CLIP72)">
       <g>
        <g transform="matrix(1,0,0,1,320.598754883,144.926513672)">
         <text x="1" y="-2.560546875" class="f0">HDR-TH_4P-P2.54-V-M</text>
        </g>
       </g>
      </g>
      <defs>
       <clipPath id="CLIP73">
        <path d="M426.435180664,133.741867065 L532.481445313,133.741867065 L532.481445313,145.377487183 L426.435180664,145.377487183 Z " />
       </clipPath>
      </defs>
      <g clip-path="url(#CLIP73)">
       <g>
        <g transform="matrix(1,0,0,1,427.145050049,144.926513672)">
         <text x="1" y="-2.560546875" class="f0">2.54mm</text>
         <text x="39.44593811" y="-2.560546875" class="f0">排</text>
         <text x="50.485939026" y="-2.560546875" class="f0">针</text>
         <text x="61.525939941" y="-2.560546875" class="f0"> </text>
         <text x="64.550079346" y="-2.560546875" class="f0">1x4P</text>
        </g>
       </g>
      </g>
      <defs>
       <clipPath id="CLIP74">
        <path d="M532.981506348,133.741867065 L639.027832031,133.741867065 L639.027832031,145.377487183 L532.981506348,145.377487183 Z " />
       </clipPath>
      </defs>
      <g clip-path="url(#CLIP74)">
       <g>
        <g transform="matrix(1,0,0,1,632.461303711,144.926513672)">
         <text x="-1" y="-2.560546875" class="f0">3</text>
        </g>
       </g>
      </g>
      <defs>
       <clipPath id="CLIP75">
        <path d="M0.25,145.877487183 L106.296295166,145.877487183 L106.296295166,157.5131073 L0.25,157.5131073 Z " />
       </clipPath>
      </defs>
      <g clip-path="url(#CLIP75)">
       <g>
        <g transform="matrix(1,0,0,1,0.959876537,157.062133789)">
         <text x="1" y="-2.560546875" class="f0">10uH</text>
        </g>
       </g>
      </g>
      <defs>
       <clipPath id="CLIP76">
        <path d="M106.796295166,145.877487183 L212.842590332,145.877487183 L212.842590332,157.5131073 L106.796295166,157.5131073 Z " />
       </clipPath>
      </defs>
      <g clip-path="url(#CLIP76)">
       <g>
        <g transform="matrix(1,0,0,1,107.50617218,157.062133789)">
         <text x="1" y="-2.560546875" class="f0">一</text>
         <text x="12.039999962" y="-2.560546875" class="f0">体</text>
         <text x="23.079999924" y="-2.560546875" class="f0">成</text>
         <text x="34.119998932" y="-2.560546875" class="f0">型</text>
         <text x="45.159999847" y="-2.560546875" class="f0">屏</text>
         <text x="56.200000763" y="-2.560546875" class="f0">蔽</text>
         <text x="67.239997864" y="-2.560546875" class="f0">电</text>
         <text x="78.279998779" y="-2.560546875" class="f0">感</text>
         <text x="89.319999695" y="-2.560546875" class="f0">，</text>
         <text x="100.36000061" y="-2.560546875" class="f0">0530</text>
         <text x="123.625938416" y="-2.560546875" class="f0">封</text>
         <text x="134.665939331" y="-2.560546875" class="f0">装</text>
         <text x="145.705932617" y="-2.560546875" class="f0">，</text>
         <text x="156.745925903" y="-2.560546875" class="f0">额</text>
         <text x="167.785919189" y="-2.560546875" class="f0">定</text>
         <text x="178.825912476" y="-2.560546875" class="f0">电</text>
         <text x="189.865905762" y="-2.560546875" class="f0">流</text>
         <text x="200.905899048" y="-2.560546875" class="f0">3A</text>
        </g>
       </g>
      </g>
      <defs>
       <clipPath id="CLIP77">
        <path d="M213.342590332,145.877487183 L319.388885498,145.877487183 L319.388885498,157.5131073 L213.342590332,157.5131073 Z " />
       </clipPath>
      </defs>
      <g clip-path="url(#CLIP77)">
       <g>
        <g transform="matrix(1,0,0,1,214.052459717,157.062133789)">
         <text x="1" y="-2.560546875" class="f0">L1</text>
        </g>
       </g>
      </g>
      <defs>
       <clipPath id="CLIP78">
        <path d="M319.888885498,145.877487183 L425.935180664,145.877487183 L425.935180664,157.5131073 L319.888885498,157.5131073 Z " />
       </clipPath>
      </defs>
      <g clip-path="url(#CLIP78)">
       <g>
        <g transform="matrix(1,0,0,1,320.598754883,157.062133789)">
         <text x="1" y="-2.560546875" class="f0">IND-SMD_L5.4-W5.2</text>
        </g>
       </g>
      </g>
      <defs>
       <clipPath id="CLIP79">
        <path d="M426.435180664,145.877487183 L532.481445313,145.877487183 L532.481445313,157.5131073 L426.435180664,157.5131073 Z " />
       </clipPath>
      </defs>
      <g clip-path="url(#CLIP79)">
       <g>
        <g transform="matrix(1,0,0,1,427.145050049,157.062133789)">
         <text x="1" y="-2.560546875" class="f0">0530</text>
         <text x="24.265937805" y="-2.560546875" class="f0">屏</text>
         <text x="35.305938721" y="-2.560546875" class="f0">蔽</text>
         <text x="46.345939636" y="-2.560546875" class="f0">电</text>
         <text x="57.385940552" y="-2.560546875" class="f0">感</text>
        </g>
       </g>
      </g>
      <defs>
       <clipPath id="CLIP80">
        <path d="M532.981506348,145.877487183 L639.027832031,145.877487183 L639.027832031,157.5131073 L532.981506348,157.5131073 Z " />
       </clipPath>
      </defs>
      <g clip-path="url(#CLIP80)">
       <g>
        <g transform="matrix(1,0,0,1,632.461303711,157.062133789)">
         <text x="-1" y="-2.560546875" class="f0">1</text>
        </g>
       </g>
      </g>
      <defs>
       <clipPath id="CLIP81">
        <path d="M0.25,158.0131073 L106.296295166,158.0131073 L106.296295166,169.648727417 L0.25,169.648727417 Z " />
       </clipPath>
      </defs>
      <g clip-path="url(#CLIP81)">
       <g>
        <g transform="matrix(1,0,0,1,0.959876537,169.197753906)">
         <text x="1" y="-2.560546875" class="f0">10KΩ</text>
        </g>
       </g>
      </g>
      <defs>
       <clipPath id="CLIP82">
        <path d="M106.796295166,158.0131073 L212.842590332,158.0131073 L212.842590332,169.648727417 L106.796295166,169.648727417 Z " />
       </clipPath>
      </defs>
      <g clip-path="url(#CLIP82)">
       <g>
        <g transform="matrix(1,0,0,1,107.50617218,169.197753906)">
         <text x="1" y="-2.560546875" class="f0">0402</text>
         <text x="24.265937805" y="-2.560546875" class="f0">贴</text>
         <text x="35.305938721" y="-2.560546875" class="f0">片</text>
         <text x="46.345939636" y="-2.560546875" class="f0">电</text>
         <text x="57.385940552" y="-2.560546875" class="f0">阻</text>
        </g>
       </g>
      </g>
      <defs>
       <clipPath id="CLIP83">
        <path d="M213.342590332,158.0131073 L319.388885498,158.0131073 L319.388885498,169.648727417 L213.342590332,169.648727417 Z " />
       </clipPath>
      </defs>
      <g clip-path="url(#CLIP83)">
       <g>
        <g transform="matrix(1,0,0,1,214.052459717,169.197753906)">
         <text x="1" y="-2.560546875" class="f0">R1,</text>
         <text x="15.60320282" y="-2.560546875" class="f0"> </text>
         <text x="18.627344131" y="-2.560546875" class="f0">R2</text>
        </g>
       </g>
      </g>
      <defs>
       <clipPath id="CLIP84">
        <path d="M319.888885498,158.0131073 L425.935180664,158.0131073 L425.935180664,169.648727417 L319.888885498,169.648727417 Z " />
       </clipPath>
      </defs>
      <g clip-path="url(#CLIP84)">
       <g>
        <g transform="matrix(1,0,0,1,320.598754883,169.197753906)">
         <text x="1" y="-2.560546875" class="f0">R0402</text>
        </g>
       </g>
      </g>
      <defs>
       <clipPath id="CLIP85">
        <path d="M426.435180664,158.0131073 L532.481445313,158.0131073 L532.481445313,169.648727417 L426.435180664,169.648727417 Z " />
       </clipPath>
      </defs>
      <g clip-path="url(#CLIP85)">
       <g>
        <g transform="matrix(1,0,0,1,427.145050049,169.197753906)">
         <text x="1" y="-2.560546875" class="f0">0402</text>
         <text x="24.265937805" y="-2.560546875" class="f0">贴</text>
         <text x="35.305938721" y="-2.560546875" class="f0">片</text>
         <text x="46.345939636" y="-2.560546875" class="f0">电</text>
         <text x="57.385940552" y="-2.560546875" class="f0">阻</text>
        </g>
       </g>
      </g>
      <defs>
       <clipPath id="CLIP86">
        <path d="M532.981506348,158.0131073 L639.027832031,158.0131073 L639.027832031,169.648727417 L532.981506348,169.648727417 Z " />
       </clipPath>
      </defs>
      <g clip-path="url(#CLIP86)">
       <g>
        <g transform="matrix(1,0,0,1,632.461303711,169.197753906)">
         <text x="-1" y="-2.560546875" class="f0">2</text>
        </g>
       </g>
      </g>
      <defs>
       <clipPath id="CLIP87">
        <path d="M0.25,170.148742676 L106.296295166,170.148742676 L106.296295166,181.784362793 L0.25,181.784362793 Z " />
       </clipPath>
      </defs>
      <g clip-path="url(#CLIP87)">
       <g>
        <g transform="matrix(1,0,0,1,0.959876537,181.333389282)">
         <text x="1" y="-2.560546875" class="f0">SW</text>
        </g>
       </g>
      </g>
      <defs>
       <clipPath id="CLIP88">
        <path d="M106.796295166,170.148742676 L212.842590332,170.148742676 L212.842590332,181.784362793 L106.796295166,181.784362793 Z " />
       </clipPath>
      </defs>
      <g clip-path="url(#CLIP88)">
       <g>
        <g transform="matrix(1,0,0,1,107.50617218,181.333389282)">
         <text x="1" y="-2.560546875" class="f0">开</text>
         <text x="12.039999962" y="-2.560546875" class="f0">关</text>
        </g>
       </g>
      </g>
      <defs>
       <clipPath id="CLIP89">
        <path d="M213.342590332,170.148742676 L319.388885498,170.148742676 L319.388885498,181.784362793 L213.342590332,181.784362793 Z " />
       </clipPath>
      </defs>
      <g clip-path="url(#CLIP89)">
       <g>
        <g transform="matrix(1,0,0,1,214.052459717,181.333389282)">
         <text x="1" y="-2.560546875" class="f0">S1</text>
        </g>
       </g>
      </g>
      <defs>
       <clipPath id="CLIP90">
        <path d="M319.888885498,170.148742676 L425.935180664,170.148742676 L425.935180664,181.784362793 L319.888885498,181.784362793 Z " />
       </clipPath>
      </defs>
      <g clip-path="url(#CLIP90)">
       <g>
        <g transform="matrix(1,0,0,1,320.598754883,181.333389282)">
         <text x="1" y="-2.560546875" class="f0">KEY_SMD</text>
        </g>
       </g>
      </g>
      <defs>
       <clipPath id="CLIP91">
        <path d="M426.435180664,170.148742676 L532.481445313,170.148742676 L532.481445313,181.784362793 L426.435180664,181.784362793 Z " />
       </clipPath>
      </defs>
      <g clip-path="url(#CLIP91)">
       <g>
        <g transform="matrix(1,0,0,1,427.145050049,181.333389282)">
         <text x="1" y="-2.560546875" class="f0">SW</text>
        </g>
       </g>
      </g>
      <defs>
       <clipPath id="CLIP92">
        <path d="M532.981506348,170.148742676 L639.027832031,170.148742676 L639.027832031,181.784362793 L532.981506348,181.784362793 Z " />
       </clipPath>
      </defs>
      <g clip-path="url(#CLIP92)">
       <g>
        <g transform="matrix(1,0,0,1,632.461303711,181.333389282)">
         <text x="-1" y="-2.560546875" class="f0">1</text>
        </g>
       </g>
      </g>
      <defs>
       <clipPath id="CLIP93">
        <path d="M0.25,182.284362793 L106.296295166,182.284362793 L106.296295166,193.91998291 L0.25,193.91998291 Z " />
       </clipPath>
      </defs>
      <g clip-path="url(#CLIP93)">
       <g>
        <g transform="matrix(1,0,0,1,0.959876537,193.469009399)">
         <text x="1" y="-2.560546875" class="f0">SS12D10G4</text>
         <text x="56.496482849" y="-2.560546875" class="f0"> </text>
         <text x="59.520622253" y="-2.560546875" class="f0">071</text>
        </g>
       </g>
      </g>
      <defs>
       <clipPath id="CLIP94">
        <path d="M106.796295166,182.284362793 L212.842590332,182.284362793 L212.842590332,193.91998291 L106.796295166,193.91998291 Z " />
       </clipPath>
      </defs>
      <g clip-path="url(#CLIP94)">
       <g>
        <g transform="matrix(1,0,0,1,107.50617218,193.469009399)">
         <text x="1" y="-2.560546875" class="f0">单</text>
         <text x="12.039999962" y="-2.560546875" class="f0">刀</text>
         <text x="23.079999924" y="-2.560546875" class="f0">双</text>
         <text x="34.119998932" y="-2.560546875" class="f0">掷</text>
         <text x="45.159999847" y="-2.560546875" class="f0">开</text>
         <text x="56.200000763" y="-2.560546875" class="f0">关</text>
        </g>
       </g>
      </g>
      <defs>
       <clipPath id="CLIP95">
        <path d="M213.342590332,182.284362793 L319.388885498,182.284362793 L319.388885498,193.91998291 L213.342590332,193.91998291 Z " />
       </clipPath>
      </defs>
      <g clip-path="url(#CLIP95)">
       <g>
        <g transform="matrix(1,0,0,1,214.052459717,193.469009399)">
         <text x="1" y="-2.560546875" class="f0">SW1</text>
        </g>
       </g>
      </g>
      <defs>
       <clipPath id="CLIP96">
        <path d="M319.888885498,182.284362793 L425.935180664,182.284362793 L425.935180664,193.91998291 L319.888885498,193.91998291 Z " />
       </clipPath>
      </defs>
      <g clip-path="url(#CLIP96)">
       <g>
        <g transform="matrix(1,0,0,1,320.598754883,193.469009399)">
         <text x="1" y="-2.560546875" class="f0">SW-TH_SHOU-HAN_SS12D10G4</text>
        </g>
       </g>
      </g>
      <defs>
       <clipPath id="CLIP97">
        <path d="M426.435180664,182.284362793 L532.481445313,182.284362793 L532.481445313,193.91998291 L426.435180664,193.91998291 Z " />
       </clipPath>
      </defs>
      <g clip-path="url(#CLIP97)">
       <g>
        <g transform="matrix(1,0,0,1,427.145050049,193.469009399)">
         <text x="1" y="-2.560546875" class="f0">SS12D</text>
        </g>
       </g>
      </g>
      <defs>
       <clipPath id="CLIP98">
        <path d="M532.981506348,182.284362793 L639.027832031,182.284362793 L639.027832031,193.91998291 L532.981506348,193.91998291 Z " />
       </clipPath>
      </defs>
      <g clip-path="url(#CLIP98)">
       <g>
        <g transform="matrix(1,0,0,1,632.461303711,193.469009399)">
         <text x="-1" y="-2.560546875" class="f0">1</text>
        </g>
       </g>
      </g>
      <defs>
       <clipPath id="CLIP99">
        <path d="M0.25,194.41998291 L106.296295166,194.41998291 L106.296295166,206.055603027 L0.25,206.055603027 Z " />
       </clipPath>
      </defs>
      <g clip-path="url(#CLIP99)">
       <g>
        <g transform="matrix(1,0,0,1,0.959876537,205.604629517)">
         <text x="1" y="-2.560546875" class="f0">STM32F103C8T6</text>
        </g>
       </g>
      </g>
      <defs>
       <clipPath id="CLIP100">
        <path d="M106.796295166,194.41998291 L212.842590332,194.41998291 L212.842590332,206.055603027 L106.796295166,206.055603027 Z " />
       </clipPath>
      </defs>
      <g clip-path="url(#CLIP100)">
       <g>
        <g transform="matrix(1,0,0,1,107.50617218,205.604629517)">
         <text x="1" y="-2.560546875" class="f0">单</text>
         <text x="12.039999962" y="-2.560546875" class="f0">片</text>
         <text x="23.079999924" y="-2.560546875" class="f0">机</text>
        </g>
       </g>
      </g>
      <defs>
       <clipPath id="CLIP101">
        <path d="M213.342590332,194.41998291 L319.388885498,194.41998291 L319.388885498,206.055603027 L213.342590332,206.055603027 Z " />
       </clipPath>
      </defs>
      <g clip-path="url(#CLIP101)">
       <g>
        <g transform="matrix(1,0,0,1,214.052459717,205.604629517)">
         <text x="1" y="-2.560546875" class="f0">U1</text>
        </g>
       </g>
      </g>
      <defs>
       <clipPath id="CLIP102">
        <path d="M319.888885498,194.41998291 L425.935180664,194.41998291 L425.935180664,206.055603027 L319.888885498,206.055603027 Z " />
       </clipPath>
      </defs>
      <g clip-path="url(#CLIP102)">
       <g>
        <g transform="matrix(1,0,0,1,320.598754883,205.604629517)">
         <text x="1" y="-2.560546875" class="f0">LQFP48</text>
         <text x="37.472969055" y="-2.560546875" class="f0"> </text>
         <text x="40.497108459" y="-2.560546875" class="f0">7X7_N</text>
        </g>
       </g>
      </g>
      <defs>
       <clipPath id="CLIP103">
        <path d="M426.435180664,194.41998291 L532.481445313,194.41998291 L532.481445313,206.055603027 L426.435180664,206.055603027 Z " />
       </clipPath>
      </defs>
      <g clip-path="url(#CLIP103)">
       <g>
        <g transform="matrix(1,0,0,1,427.145050049,205.604629517)">
         <text x="1" y="-2.560546875" class="f0">STM32F103C8T6</text>
        </g>
       </g>
      </g>
      <defs>
       <clipPath id="CLIP104">
        <path d="M532.981506348,194.41998291 L639.027832031,194.41998291 L639.027832031,206.055603027 L532.981506348,206.055603027 Z " />
       </clipPath>
      </defs>
      <g clip-path="url(#CLIP104)">
       <g>
        <g transform="matrix(1,0,0,1,632.461303711,205.604629517)">
         <text x="-1" y="-2.560546875" class="f0">1</text>
        </g>
       </g>
      </g>
      <defs>
       <clipPath id="CLIP105">
        <path d="M0.25,206.555603027 L106.296295166,206.555603027 L106.296295166,218.191223145 L0.25,218.191223145 Z " />
       </clipPath>
      </defs>
      <g clip-path="url(#CLIP105)">
       <g>
        <g transform="matrix(1,0,0,1,0.959876537,217.740249634)">
         <text x="1" y="-2.560546875" class="f0">XL1507-5.0E1</text>
        </g>
       </g>
      </g>
      <defs>
       <clipPath id="CLIP106">
        <path d="M106.796295166,206.555603027 L212.842590332,206.555603027 L212.842590332,218.191223145 L106.796295166,218.191223145 Z " />
       </clipPath>
      </defs>
      <g clip-path="url(#CLIP106)">
       <g>
        <g transform="matrix(1,0,0,1,107.50617218,217.740249634)">
         <text x="1" y="-2.560546875" class="f0">DC-DC</text>
         <text x="35.392189026" y="-2.560546875" class="f0"> </text>
         <text x="38.41632843" y="-2.560546875" class="f0">BUCK</text>
         <text x="64.905860901" y="-2.560546875" class="f0">芯</text>
         <text x="75.945861816" y="-2.560546875" class="f0">片</text>
        </g>
       </g>
      </g>
      <defs>
       <clipPath id="CLIP107">
        <path d="M213.342590332,206.555603027 L319.388885498,206.555603027 L319.388885498,218.191223145 L213.342590332,218.191223145 Z " />
       </clipPath>
      </defs>
      <g clip-path="url(#CLIP107)">
       <g>
        <g transform="matrix(1,0,0,1,214.052459717,217.740249634)">
         <text x="1" y="-2.560546875" class="f0">U2</text>
        </g>
       </g>
      </g>
      <defs>
       <clipPath id="CLIP108">
        <path d="M319.888885498,206.555603027 L425.935180664,206.555603027 L425.935180664,218.191223145 L319.888885498,218.191223145 Z " />
       </clipPath>
      </defs>
      <g clip-path="url(#CLIP108)">
       <g>
        <g transform="matrix(1,0,0,1,320.598754883,217.740249634)">
         <text x="1" y="-2.560546875" class="f0">TO-252-5_L6.5-W5.6-P1.27-LS9.5-TL</text>
        </g>
       </g>
      </g>
      <defs>
       <clipPath id="CLIP109">
        <path d="M426.435180664,206.555603027 L532.481445313,206.555603027 L532.481445313,218.191223145 L426.435180664,218.191223145 Z " />
       </clipPath>
      </defs>
      <g clip-path="url(#CLIP109)">
       <g>
        <g transform="matrix(1,0,0,1,427.145050049,217.740249634)">
         <text x="1" y="-2.560546875" class="f0">XL1507-5.0E1</text>
        </g>
       </g>
      </g>
      <defs>
       <clipPath id="CLIP110">
        <path d="M532.981506348,206.555603027 L639.027832031,206.555603027 L639.027832031,218.191223145 L532.981506348,218.191223145 Z " />
       </clipPath>
      </defs>
      <g clip-path="url(#CLIP110)">
       <g>
        <g transform="matrix(1,0,0,1,632.461303711,217.740249634)">
         <text x="-1" y="-2.560546875" class="f0">1</text>
        </g>
       </g>
      </g>
      <defs>
       <clipPath id="CLIP111">
        <path d="M0.25,218.691223145 L106.296295166,218.691223145 L106.296295166,230.326843262 L0.25,230.326843262 Z " />
       </clipPath>
      </defs>
      <g clip-path="url(#CLIP111)">
       <g>
        <g transform="matrix(1,0,0,1,0.959876537,229.875869751)">
         <text x="1" y="-2.560546875" class="f0">XC6201P332MR-HXY</text>
        </g>
       </g>
      </g>
      <defs>
       <clipPath id="CLIP112">
        <path d="M106.796295166,218.691223145 L212.842590332,218.691223145 L212.842590332,230.326843262 L106.796295166,230.326843262 Z " />
       </clipPath>
      </defs>
      <g clip-path="url(#CLIP112)">
       <g>
        <g transform="matrix(1,0,0,1,107.50617218,229.875869751)">
         <text x="1" y="-2.560546875" class="f0">3.3V</text>
         <text x="21.813203812" y="-2.560546875" class="f0"> </text>
         <text x="24.837345123" y="-2.560546875" class="f0">LDO</text>
        </g>
       </g>
      </g>
      <defs>
       <clipPath id="CLIP113">
        <path d="M213.342590332,218.691223145 L319.388885498,218.691223145 L319.388885498,230.326843262 L213.342590332,230.326843262 Z " />
       </clipPath>
      </defs>
      <g clip-path="url(#CLIP113)">
       <g>
        <g transform="matrix(1,0,0,1,214.052459717,229.875869751)">
         <text x="1" y="-2.560546875" class="f0">U3</text>
        </g>
       </g>
      </g>
      <defs>
       <clipPath id="CLIP114">
        <path d="M319.888885498,218.691223145 L425.935180664,218.691223145 L425.935180664,230.326843262 L319.888885498,230.326843262 Z " />
       </clipPath>
      </defs>
      <g clip-path="url(#CLIP114)">
       <g>
        <g transform="matrix(1,0,0,1,320.598754883,229.875869751)">
         <text x="1" y="-2.560546875" class="f0">SOT-23-5_L3.0-W1.7-P0.95-LS2.8-BR</text>
        </g>
       </g>
      </g>
      <defs>
       <clipPath id="CLIP115">
        <path d="M426.435180664,218.691223145 L532.481445313,218.691223145 L532.481445313,230.326843262 L426.435180664,230.326843262 Z " />
       </clipPath>
      </defs>
      <g clip-path="url(#CLIP115)">
       <g>
        <g transform="matrix(1,0,0,1,427.145050049,229.875869751)">
         <text x="1" y="-2.560546875" class="f0">XC6201P332MR-HXY</text>
        </g>
       </g>
      </g>
      <defs>
       <clipPath id="CLIP116">
        <path d="M532.981506348,218.691223145 L639.027832031,218.691223145 L639.027832031,230.326843262 L532.981506348,230.326843262 Z " />
       </clipPath>
      </defs>
      <g clip-path="url(#CLIP116)">
       <g>
        <g transform="matrix(1,0,0,1,632.461303711,229.875869751)">
         <text x="-1" y="-2.560546875" class="f0">1</text>
        </g>
       </g>
      </g>
      <defs>
       <clipPath id="CLIP117">
        <path d="M0.25,230.826858521 L106.296295166,230.826858521 L106.296295166,242.462478638 L0.25,242.462478638 Z " />
       </clipPath>
      </defs>
      <g clip-path="url(#CLIP117)">
       <g>
        <g transform="matrix(1,0,0,1,0.959876537,242.011505127)">
         <text x="1" y="-2.560546875" class="f0">TB6612FNG(O,C,8,EL</text>
        </g>
       </g>
      </g>
      <defs>
       <clipPath id="CLIP118">
        <path d="M106.796295166,230.826858521 L212.842590332,230.826858521 L212.842590332,242.462478638 L106.796295166,242.462478638 Z " />
       </clipPath>
      </defs>
      <g clip-path="url(#CLIP118)">
       <g>
        <g transform="matrix(1,0,0,1,107.50617218,242.011505127)">
         <text x="1" y="-2.560546875" class="f0">电</text>
         <text x="12.039999962" y="-2.560546875" class="f0">机</text>
         <text x="23.079999924" y="-2.560546875" class="f0">驱</text>
         <text x="34.119998932" y="-2.560546875" class="f0">动</text>
        </g>
       </g>
      </g>
      <defs>
       <clipPath id="CLIP119">
        <path d="M213.342590332,230.826858521 L319.388885498,230.826858521 L319.388885498,242.462478638 L213.342590332,242.462478638 Z " />
       </clipPath>
      </defs>
      <g clip-path="url(#CLIP119)">
       <g>
        <g transform="matrix(1,0,0,1,214.052459717,242.011505127)">
         <text x="1" y="-2.560546875" class="f0">U4</text>
        </g>
       </g>
      </g>
      <defs>
       <clipPath id="CLIP120">
        <path d="M319.888885498,230.826858521 L425.935180664,230.826858521 L425.935180664,242.462478638 L319.888885498,242.462478638 Z " />
       </clipPath>
      </defs>
      <g clip-path="url(#CLIP120)">
       <g>
        <g transform="matrix(1,0,0,1,320.598754883,242.011505127)">
         <text x="1" y="-2.560546875" class="f0">SSOP-24_L8.4-W5.8-P0.65-LS7.8-BL</text>
        </g>
       </g>
      </g>
      <defs>
       <clipPath id="CLIP121">
        <path d="M426.435180664,230.826858521 L532.481445313,230.826858521 L532.481445313,242.462478638 L426.435180664,242.462478638 Z " />
       </clipPath>
      </defs>
      <g clip-path="url(#CLIP121)">
       <g>
        <g transform="matrix(1,0,0,1,427.145050049,242.011505127)">
         <text x="1" y="-2.560546875" class="f0">TB6612FNG(O,C,8,EL</text>
        </g>
       </g>
      </g>
      <defs>
       <clipPath id="CLIP122">
        <path d="M532.981506348,230.826858521 L639.027832031,230.826858521 L639.027832031,242.462478638 L532.981506348,242.462478638 Z " />
       </clipPath>
      </defs>
      <g clip-path="url(#CLIP122)">
       <g>
        <g transform="matrix(1,0,0,1,632.461303711,242.011505127)">
         <text x="-1" y="-2.560546875" class="f0">1</text>
        </g>
       </g>
      </g>
      <defs>
       <clipPath id="CLIP123">
        <path d="M0.25,242.962478638 L106.296295166,242.962478638 L106.296295166,254.598098755 L0.25,254.598098755 Z " />
       </clipPath>
      </defs>
      <g clip-path="url(#CLIP123)">
       <g>
        <g transform="matrix(1,0,0,1,0.959876537,254.147125244)">
         <text x="1" y="-2.560546875" class="f0">12MHz</text>
        </g>
       </g>
      </g>
      <defs>
       <clipPath id="CLIP124">
        <path d="M106.796295166,242.962478638 L212.842590332,242.962478638 L212.842590332,254.598098755 L106.796295166,254.598098755 Z " />
       </clipPath>
      </defs>
      <g clip-path="url(#CLIP124)">
       <g>
        <g transform="matrix(1,0,0,1,107.50617218,254.147125244)">
         <text x="1" y="-2.560546875" class="f0">3225</text>
         <text x="24.265937805" y="-2.560546875" class="f0">贴</text>
         <text x="35.305938721" y="-2.560546875" class="f0">片</text>
         <text x="46.345939636" y="-2.560546875" class="f0">晶</text>
         <text x="57.385940552" y="-2.560546875" class="f0">振</text>
        </g>
       </g>
      </g>
      <defs>
       <clipPath id="CLIP125">
        <path d="M213.342590332,242.962478638 L319.388885498,242.962478638 L319.388885498,254.598098755 L213.342590332,254.598098755 Z " />
       </clipPath>
      </defs>
      <g clip-path="url(#CLIP125)">
       <g>
        <g transform="matrix(1,0,0,1,214.052459717,254.147125244)">
         <text x="1" y="-2.560546875" class="f0">Y1</text>
        </g>
       </g>
      </g>
      <defs>
       <clipPath id="CLIP126">
        <path d="M319.888885498,242.962478638 L425.935180664,242.962478638 L425.935180664,254.598098755 L319.888885498,254.598098755 Z " />
       </clipPath>
      </defs>
      <g clip-path="url(#CLIP126)">
       <g>
        <g transform="matrix(1,0,0,1,320.598754883,254.147125244)">
         <text x="1" y="-2.560546875" class="f0">OSC-3225-4P</text>
        </g>
       </g>
      </g>
      <defs>
       <clipPath id="CLIP127">
        <path d="M426.435180664,242.962478638 L532.481445313,242.962478638 L532.481445313,254.598098755 L426.435180664,254.598098755 Z " />
       </clipPath>
      </defs>
      <g clip-path="url(#CLIP127)">
       <g>
        <g transform="matrix(1,0,0,1,427.145050049,254.147125244)">
         <text x="1" y="-2.560546875" class="f0">3225</text>
         <text x="24.265937805" y="-2.560546875" class="f0">贴</text>
         <text x="35.305938721" y="-2.560546875" class="f0">片</text>
         <text x="46.345939636" y="-2.560546875" class="f0">晶</text>
         <text x="57.385940552" y="-2.560546875" class="f0">振</text>
        </g>
       </g>
      </g>
      <defs>
       <clipPath id="CLIP128">
        <path d="M532.981506348,242.962478638 L639.027832031,242.962478638 L639.027832031,254.598098755 L532.981506348,254.598098755 Z " />
       </clipPath>
      </defs>
      <g clip-path="url(#CLIP128)">
       <g>
        <g transform="matrix(1,0,0,1,632.461303711,254.147125244)">
         <text x="-1" y="-2.560546875" class="f0">1</text>
        </g>
       </g>
      </g>
     </g>
    </g>
    <defs>
     <clipPath id="CLIP129">
      <path d="M-0.5,-0.5 L640.5,-0.5 L640.5,255.5 L-0.5,255.5 Z " />
     </clipPath>
    </defs>
    <g clip-path="url(#CLIP129)">
     <g />
    </g>
   </g>
   <g />
   <g />
   <g />
   <g>
    <g>
     <g />
     <g shape-rendering="crispEdges" />
     <g />
    </g>
    <g>
     <g />
    </g>
    <g>
     <g />
    </g>
   </g>
  </g>
 </g>
 <defs />
 <defs>
  <style type="text/css">
   <![CDATA[
   
.f0
{
font-family:DengXian;
font-size:11.039999962px;
fill:#000000;
}

   
.p0
{
stroke:#000000;
stroke-width:0.876218319px;
stroke-linecap:butt;
stroke-linejoin:miter;
}

   ]]></style>
 </defs>
</svg>
